<svg width="29" height="29" viewBox="0 0 29 29" fill="none" xmlns="http://www.w3.org/2000/svg">
<path d="M19.8511 12.6494C19.8511 11.6143 19.6558 10.6377 19.2652 9.71973C18.8745 8.80176 18.3374 8.00586 17.6538 7.33203C16.9702 6.6582 16.1743 6.12598 15.2661 5.73535C14.3579 5.34473 13.3862 5.14941 12.3511 5.14941C11.3159 5.14941 10.3443 5.34473 9.43605 5.73535C8.52785 6.12598 7.73683 6.6582 7.063 7.33203C6.38918 8.00586 5.85207 8.80176 5.45168 9.71973C5.05128 10.6377 4.85109 11.6143 4.85109 12.6494C4.85109 13.6846 5.05128 14.6562 5.45168 15.5645C5.85207 16.4727 6.38918 17.2637 7.063 17.9375C7.73683 18.6113 8.52785 19.1484 9.43605 19.5488C10.3443 19.9492 11.3159 20.1494 12.3511 20.1494C13.3862 20.1494 14.3579 19.9492 15.2661 19.5488C16.1743 19.1484 16.9702 18.6113 17.6538 17.9375C18.3374 17.2637 18.8745 16.4727 19.2652 15.5645C19.6558 14.6562 19.8511 13.6846 19.8511 12.6494ZM28.4351 26.5654C28.4351 27.1514 28.2251 27.6543 27.8052 28.0742C27.3853 28.4941 26.8823 28.7041 26.2964 28.7041C26.0034 28.7041 25.7251 28.6504 25.4614 28.543C25.1978 28.4355 24.9683 28.2744 24.773 28.0596L19.0308 22.3467C18.0542 23.0303 16.9946 23.5479 15.8521 23.8994C14.7095 24.251 13.5425 24.4268 12.3511 24.4268C10.73 24.4268 9.20168 24.1191 7.76613 23.5039C6.33058 22.8887 5.08058 22.0439 4.01613 20.9697C2.95168 19.8955 2.11183 18.6455 1.4966 17.2197C0.881363 15.7939 0.573746 14.2656 0.573746 12.6348C0.573746 11.0039 0.881363 9.47559 1.4966 8.0498C2.11183 6.62402 2.95168 5.37402 4.01613 4.2998C5.08058 3.22559 6.33058 2.38086 7.76613 1.76562C9.20168 1.15039 10.7349 0.842773 12.3657 0.842773C13.9966 0.842773 15.5249 1.15039 16.9507 1.76562C18.3765 2.38086 19.6216 3.22559 20.6861 4.2998C21.7505 5.37402 22.5952 6.62402 23.2202 8.0498C23.8452 9.47559 24.1577 11.0088 24.1577 12.6494C24.1577 13.8213 23.9771 14.9785 23.6157 16.1211C23.2544 17.2637 22.7417 18.333 22.0777 19.3291L27.8198 25.0713C28.0152 25.2471 28.1665 25.4668 28.2739 25.7305C28.3814 25.9941 28.4351 26.2725 28.4351 26.5654Z" fill="white"/>
</svg>
