<svg width="100" height="72" viewBox="0 0 100 72" fill="none" xmlns="http://www.w3.org/2000/svg">
<path d="M27.3189 60.7178H29.2466C33.3941 60.7178 34.3873 59.5775 35.5556 54.3316L43.9674 16.0147C44.318 14.4182 44.4348 13.2018 44.4348 12.3656C44.4348 10.2368 43.4417 9.55259 41.1635 9.55259H38.5932L38.8852 8.10815H67.5675L67.2754 9.55259H65.4645C61.317 9.55259 60.3239 10.845 59.214 16.0147L50.8021 54.3316C50.4516 55.8522 50.2764 57.0687 50.2764 57.9049C50.2764 60.0335 51.3278 60.7178 53.6061 60.7178H56.0011L55.709 62.1623H27.0269L27.3189 60.7178Z" fill="white"/>
<path d="M100 40.9677C99.8705 41.862 99.6748 42.737 99.437 43.589C99.3195 44.0164 99.1871 44.4348 99.0474 44.8488C98.9776 45.056 98.9037 45.2598 98.8304 45.4649C98.754 45.6669 98.6776 45.8696 98.5975 46.0688C97.9618 47.67 97.1839 49.1509 96.3202 50.5056C95.8878 51.1829 95.4323 51.8271 94.964 52.4488C94.4963 53.0722 94.013 53.6686 93.5201 54.2466C92.5327 55.4 91.5005 56.4664 90.4377 57.4583C89.3729 58.4456 88.2773 59.3578 87.1603 60.2053C86.0428 61.0514 84.9053 61.8387 83.7489 62.5581C82.5931 63.2795 81.4219 63.9443 80.2394 64.5596C79.0571 65.1762 77.861 65.7317 76.658 66.2486C71.8428 68.3089 66.8992 69.6355 61.9287 70.4487C59.4425 70.8534 56.9474 71.1262 54.4497 71.281C53.2008 71.3573 51.9513 71.4051 50.7016 71.4233C49.4514 71.4402 48.1976 71.4257 46.9459 71.3752C41.9378 71.1709 36.9336 70.3649 32.014 68.882C29.5539 68.1445 27.1165 67.2279 24.7152 66.1255C23.5148 65.568 22.3288 64.979 21.1497 64.3398C19.9712 63.7032 18.8014 63.0277 17.6452 62.2998C16.4885 61.5739 15.3443 60.7985 14.2202 59.9578C13.0958 59.1185 11.9869 58.2263 10.9097 57.2482C9.83254 56.2703 8.77954 55.2264 7.77305 54.0805L7.39661 53.6492L7.02576 53.2061L6.84056 52.9843L6.65852 52.7559L6.2958 52.2973C5.81772 51.6749 5.34981 51.0339 4.9011 50.3613C4.45353 49.6867 4.01903 48.9917 3.60996 48.2609C3.50583 48.0811 3.40811 47.8919 3.30708 47.7079L3.15691 47.4299L3.01012 47.1404C2.81352 46.7556 2.62948 46.3576 2.45279 45.9537C2.09925 45.1459 1.79003 44.2991 1.52191 43.4293C1.25427 42.559 1.02801 41.6643 0.851326 40.7522C0.763628 40.296 0.683487 39.8375 0.620459 39.3743C0.553054 38.9128 0.500478 38.4475 0.457011 37.982C0.373699 37.0497 0.33699 36.1128 0.346753 35.1817C0.351299 34.9488 0.355553 34.7165 0.364037 34.4846C0.373928 34.2527 0.383676 34.0214 0.40038 33.7907C0.426606 33.3294 0.473972 32.8713 0.524643 32.4172C0.634496 31.5098 0.789953 30.619 1.00146 29.7625L1.00832 29.7644C0.981516 30.6738 0.975946 31.5713 1.00973 32.4602C1.04386 33.3489 1.10987 34.2269 1.20958 35.0908C1.31144 35.9545 1.44535 36.8036 1.61006 37.6345C1.69753 38.0483 1.78366 38.4605 1.885 38.8648L1.96013 39.168L2.04077 39.4679C2.09218 39.6688 2.15119 39.8655 2.20693 40.0632C2.66748 41.6381 3.25175 43.1181 3.94443 44.4705C4.63064 45.8121 5.45972 47.0668 6.32502 48.241L6.65496 48.6761C6.76383 48.8224 6.87956 48.9596 6.99088 49.1026C7.21275 49.3899 7.44583 49.6613 7.67408 49.939L8.02473 50.3434L8.19977 50.5459L8.37796 50.7436L8.73433 51.1387L9.09693 51.5235L9.27818 51.7158L9.46187 51.9041L9.82909 52.2807L10.2019 52.6474C10.3258 52.7702 10.4504 52.8917 10.5766 53.0104L10.9535 53.3693L11.3349 53.7194C11.5883 53.9545 11.8467 54.1801 12.1035 54.4083C14.17 56.2109 16.3344 57.8092 18.5637 59.2107C19.6787 59.9105 20.8083 60.5669 21.9512 61.175C23.0938 61.7801 24.251 62.3498 25.4119 62.8669C26.5745 63.381 27.7476 63.8499 28.9286 64.2763C30.1094 64.7041 31.2996 65.0813 32.4943 65.4271C34.8843 66.1175 37.2989 66.6379 39.7236 67.0336C40.9362 67.2305 42.1515 67.3967 43.3691 67.5263C44.5865 67.661 45.8062 67.7559 47.0268 67.8237C48.2478 67.893 49.4683 67.9252 50.6922 67.9305C51.9167 67.9351 53.1411 67.9107 54.3647 67.8584C56.812 67.7517 59.2564 67.5294 61.6911 67.1782C64.1258 66.8269 66.5509 66.347 68.957 65.7242C71.3633 65.1035 73.7502 64.3352 76.1052 63.4078C77.2827 62.9439 78.4501 62.4306 79.6084 61.8806C80.7664 61.3291 81.913 60.7298 83.0438 60.0763C84.1736 59.4199 85.2912 58.7211 86.3865 57.9569C87.482 57.1937 88.555 56.3662 89.5994 55.4719C90.6447 54.5802 91.6601 53.6173 92.6321 52.5723C93.1171 52.0484 93.5932 51.5072 94.0538 50.9408C94.5159 50.3764 94.9614 49.7859 95.3986 49.183C96.2714 47.9748 97.0984 46.6985 97.8686 45.3369C98.2524 44.6547 98.6234 43.9525 98.9768 43.2239C99.3325 42.4969 99.666 41.7418 100 40.9677Z" fill="white"/>
<path d="M0 30.4912C0.191242 29.6287 0.427898 28.7904 0.689855 27.9671C0.953063 27.1447 1.24341 26.3377 1.56705 25.5579C1.88945 24.7771 2.23402 24.0118 2.61075 23.2789C2.98724 22.5458 3.38817 21.8369 3.81321 21.1575C4.24107 20.4818 4.69361 19.8383 5.16131 19.2175C5.62777 18.6071 6.10618 18.0169 6.59431 17.4449C7.57198 16.3037 8.5903 15.2394 9.63921 14.2474C10.6885 13.2557 11.7696 12.34 12.8703 11.4811C13.9724 10.6264 15.0935 9.82477 16.2349 9.09268C17.3744 8.35402 18.5321 7.67935 19.6993 7.0449C20.8672 6.41306 22.0494 5.84091 23.2389 5.30679C24.4295 4.77854 25.6279 4.28857 26.8345 3.84869C28.0411 3.4082 29.2546 3.01187 30.4729 2.6518C31.691 2.2906 32.9151 1.97486 34.1425 1.69464C35.37 1.41477 36.601 1.16975 37.8348 0.961947C42.7709 0.129807 47.743 -0.139115 52.7079 0.0653627C57.6729 0.285321 62.6344 0.99791 67.5341 2.3143C68.7588 2.64358 69.9785 3.01765 71.1934 3.42642C72.4084 3.83411 73.6171 4.28796 74.8179 4.7874C77.2197 5.78365 79.5903 6.96744 81.9052 8.37303C84.2195 9.77944 86.4771 11.4164 88.6303 13.339C90.7776 15.27 92.8295 17.4843 94.6403 20.118C95.5434 21.4349 96.3769 22.8682 97.1011 24.4199C97.8251 25.9698 98.441 27.6393 98.8912 29.4013C99.1163 30.2817 99.2994 31.1842 99.4355 32.0989C99.4665 32.3288 99.4992 32.5575 99.5283 32.787C99.5533 33.0182 99.5791 33.2483 99.6017 33.479C99.6205 33.7109 99.6412 33.9415 99.6579 34.1726C99.6715 34.4046 99.6848 34.6361 99.6943 34.8675C99.7657 36.7205 99.6345 38.5715 99.2864 40.308L99.2697 40.3047C99.2606 39.4013 99.2262 38.5107 99.1534 37.6342C99.135 37.4152 99.1114 37.1971 99.0918 36.9799C99.0693 36.7628 99.0421 36.5469 99.0177 36.3316L98.9293 35.6898C98.8976 35.4771 98.8614 35.2659 98.8279 35.0549L98.7127 34.4274C98.6718 34.2196 98.6273 34.0134 98.5851 33.8073C98.5393 33.6022 98.4897 33.3991 98.4431 33.1956C98.3934 32.9932 98.3405 32.7925 98.2897 32.5917C98.0774 31.7919 97.8316 31.0151 97.5581 30.2617C97.011 28.7544 96.3516 27.3425 95.6146 26.0191L95.4767 25.7708C95.4304 25.6884 95.3821 25.6079 95.335 25.5264C95.2399 25.3642 95.147 25.2001 95.0479 25.0423C94.8559 24.7203 94.6557 24.4076 94.4551 24.0961C94.052 23.475 93.63 22.8774 93.1968 22.296C92.7633 21.7149 92.3182 21.1498 91.8588 20.6066C91.399 20.0642 90.9271 19.5413 90.4453 19.0359C89.9639 18.5302 89.4712 18.0438 88.9711 17.573C88.7218 17.336 88.4678 17.1082 88.2147 16.8791C87.9589 16.6552 87.7044 16.429 87.4453 16.2123C85.382 14.4577 83.208 12.9558 80.9809 11.6304C79.8649 10.9752 78.738 10.3529 77.5961 9.78582C76.4559 9.21242 75.3039 8.68361 74.1433 8.19224C72.9824 7.70287 71.8138 7.24593 70.6372 6.83067C69.4608 6.41457 68.2772 6.03686 67.0883 5.6925C64.7103 5.00574 62.3108 4.4558 59.8983 4.04668C57.4861 3.63468 55.0612 3.35797 52.6319 3.21594C50.203 3.07115 47.7675 3.06134 45.3364 3.17191C42.9052 3.28396 40.4768 3.52092 38.0593 3.89798C35.6419 4.27305 33.2345 4.78041 30.8481 5.43979C28.4611 6.09424 26.0958 6.90539 23.7631 7.87368C22.5975 8.36141 21.4418 8.89593 20.2953 9.46675C19.1507 10.0446 18.0153 10.6613 16.8984 11.3398C14.662 12.6864 12.4842 14.2384 10.4192 16.0575C9.38511 16.9626 8.38079 17.9372 7.41561 18.9856C6.93379 19.5111 6.46125 20.054 6.00015 20.6163C5.54578 21.1774 5.10761 21.7667 4.67869 22.3727C4.25295 22.9834 3.83866 23.6134 3.43366 24.2599L3.13269 24.7491L2.83654 25.246C2.73582 25.4097 2.64031 25.5797 2.54327 25.7482C2.4466 25.9172 2.34866 26.0851 2.2538 26.2568C1.48237 27.6182 0.765855 29.0554 0.030823 30.5141L0 30.4912Z" fill="white"/>
</svg>
