<svg width="100" height="82" viewBox="0 0 100 82" fill="none" xmlns="http://www.w3.org/2000/svg">
<path d="M23.4004 42.6733C31.4528 42.6733 39.4446 42.6733 47.4365 42.6733C48.3446 44.0264 48.9501 45.5333 49.1922 47.1324C49.3739 48.178 49.4344 49.2851 49.4344 50.3614C49.4647 56.4196 49.5252 62.4779 49.4647 68.5053C49.4344 73.6102 47.0732 77.485 42.8351 80.1605C40.9885 81.3291 38.93 81.8518 36.7504 81.8826C32.4215 81.9134 28.0926 81.8826 23.7334 81.8826C23.6123 81.8826 23.4912 81.8519 23.3398 81.8519C23.4004 68.8129 23.4004 55.7738 23.4004 42.6733ZM32.1188 45.4411C32.1188 54.6668 32.1188 63.8002 32.1188 72.9952C33.6626 72.9952 35.146 72.9952 36.6596 72.9952C37.6586 72.9952 38.4759 72.5646 39.2024 71.9188C40.2014 70.9963 40.6858 69.8277 40.6858 68.4438C40.6858 62.5394 40.7463 56.6349 40.7463 50.7305C40.7463 50.1769 40.716 49.6541 40.6555 49.1006C40.3831 47.0709 38.6575 45.5026 36.6293 45.4411C35.8725 45.4103 35.1157 45.4411 34.3892 45.4411C33.6626 45.4411 32.9058 45.4411 32.1188 45.4411Z" fill="white"/>
<path d="M23.4004 39.2593C23.4004 26.1588 23.4004 13.1506 23.4004 0.0808012C23.582 0.0500488 23.7334 0.0500488 23.915 0.0500488C27.8201 0.0500488 31.7252 0.0500488 35.6001 0.0500488C42.5021 0.0500488 46.8007 5.12419 48.0116 9.21426C48.4657 10.6904 48.6473 12.1665 48.6473 13.7041C48.6473 19.8238 48.6473 25.9436 48.6473 32.0633C48.6473 34.4927 48.0419 36.7684 46.8007 38.8595C46.7402 38.9826 46.6494 39.1056 46.5586 39.2593C38.8694 39.2593 31.1501 39.2593 23.4004 39.2593ZM32.0279 36.4916C33.2994 36.4916 34.48 36.4916 35.6606 36.4916C37.0834 36.4609 38.2035 35.8151 39.0511 34.6465C39.6868 33.8162 39.8684 32.8321 39.8684 31.7865C39.8381 27.7272 39.8382 23.6679 39.8382 19.6086C39.8382 17.5174 39.8382 15.4262 39.8382 13.3351C39.8079 10.7519 37.7796 8.84523 35.4487 8.93749C34.5103 8.96824 33.5718 8.93749 32.6031 8.93749C32.4215 8.93749 32.2398 8.96824 32.0279 8.99899C32.0279 18.1632 32.0279 27.2967 32.0279 36.4916Z" fill="white"/>
<path d="M61.1855 42.5503C61.3672 42.5503 61.5488 42.5503 61.7304 42.5503C66.0291 42.5503 70.2974 42.5503 74.5961 42.5503C75.0804 42.5503 75.3832 42.6733 75.6859 43.0731C77.3811 45.3795 78.4406 47.9627 78.9553 50.7919C79.258 52.5448 79.3791 54.2977 79.3488 56.0813C79.3185 59.4641 79.3488 62.8161 79.3185 66.1989C79.2883 67.7057 79.2883 69.2126 79.1066 70.6887C78.4406 76.1319 73.5063 81.2675 67.6638 81.8518C60.459 82.5591 55.1008 77.5465 53.7386 72.3493C53.4056 71.1192 53.224 69.8584 53.2542 68.5668C53.2845 66.6909 53.2542 64.815 53.2845 62.9699C53.2845 62.7854 53.3148 62.6008 53.3451 62.3548C56.2209 62.3548 59.0362 62.3548 61.9423 62.3548C61.9423 62.6316 61.9726 62.8776 61.9726 63.1236C61.9423 64.8458 61.9423 66.5679 61.9121 68.29C61.8818 69.6124 62.2451 70.781 63.1835 71.7035C64.4549 72.9644 65.9685 73.3027 67.6032 72.7491C69.2379 72.2263 70.2672 71.027 70.5699 69.2433C70.6304 68.9666 70.6607 68.6591 70.6607 68.3515C70.6304 64.6612 70.6607 60.971 70.6002 57.2807C70.5396 54.0517 69.6315 51.0687 67.6335 48.5163C66.9675 47.6859 66.1804 46.9171 65.3934 46.2098C64.1522 45.1027 62.8202 44.0264 61.5488 42.9501C61.4277 42.8578 61.2763 42.7656 61.1553 42.6733C61.125 42.6733 61.1553 42.6118 61.1855 42.5503Z" fill="white"/>
<path d="M79.4394 19.5781C76.5636 19.5781 73.718 19.5781 70.8421 19.5781C70.8421 19.3013 70.8119 19.0553 70.8119 18.8093C70.8119 17.0257 70.8421 15.2728 70.8119 13.4891C70.8119 12.1668 70.388 10.9674 69.3891 10.0449C68.1479 8.90703 66.6646 8.63026 65.1207 9.15305C63.5465 9.67584 62.5476 10.8444 62.2146 12.5358C62.154 12.9048 62.1238 13.2739 62.1238 13.6429C62.0935 16.9027 62.0935 20.1317 62.0935 23.3914C62.0935 25.7901 62.4568 28.0965 63.3952 30.2799C64.2731 32.3096 65.5748 34.0625 67.2397 35.4771C68.602 36.6457 69.9945 37.8143 71.4476 39.0444C71.2054 39.1059 71.054 39.1366 70.9027 39.1366C66.5435 39.1366 62.1843 39.1366 57.8251 39.1366C57.4013 39.1366 57.1591 38.9521 56.9472 38.6446C55.2823 36.3997 54.2833 33.8472 53.7989 31.1103C53.4962 29.3574 53.3751 27.6045 53.4054 25.8208C53.4357 22.4073 53.4054 18.9938 53.4357 15.5803C53.4659 14.1042 53.4659 12.6281 53.6476 11.1827C54.2833 6.20083 58.6122 1.06518 64.3639 0.173358C72.053 -1.02598 77.5625 4.20192 79.0156 9.55284C79.3486 10.7829 79.5302 12.0438 79.5 13.3354C79.4697 15.2113 79.5 17.0872 79.4697 18.9323C79.4697 19.1476 79.4394 19.3628 79.4394 19.5781Z" fill="white"/>
<path d="M99.9124 56.2656C94.7964 51.13 89.741 46.0558 84.6553 40.9509C89.741 35.846 94.7965 30.7719 99.8519 25.6978C100.003 26.2513 100.064 54.9125 99.9124 56.2656Z" fill="white"/>
<path d="M0 56.2961C0 45.9941 0 35.8765 0 25.6052C5.14626 30.7716 10.2017 35.8458 15.2874 40.9507C10.2017 46.0863 5.14626 51.1297 0 56.2961Z" fill="white"/>
</svg>
