<svg width="40" height="40" viewBox="0 0 40 40" fill="none" xmlns="http://www.w3.org/2000/svg">
<g clip-path="url(#clip0_43_67)">
<mask id="mask0_43_67" style="mask-type:luminance" maskUnits="userSpaceOnUse" x="0" y="0" width="40" height="40">
<path d="M40 0H0V40H40V0Z" fill="white"/>
</mask>
<g mask="url(#mask0_43_67)">
<mask id="mask1_43_67" style="mask-type:luminance" maskUnits="userSpaceOnUse" x="0" y="0" width="40" height="40">
<path d="M40 0H0V40H40V0Z" fill="white"/>
</mask>
<g mask="url(#mask1_43_67)">
<path d="M15.546 21.6695L14.989 23.7486L12.9534 23.7917C12.3451 22.6633 12 21.3723 12 20.0004C12 18.6738 12.3226 17.4228 12.8945 16.3213L14.7072 16.6535L15.5011 18.4549C15.3349 18.9393 15.2444 19.4593 15.2444 20.0004C15.2444 20.5877 15.3508 21.1504 15.546 21.6695Z" fill="#FBBB00"/>
<path d="M27.8602 18.5059C27.9521 18.9898 28 19.4896 28 20.0004C28 20.5731 27.9397 21.1318 27.825 21.6707C27.4356 23.5046 26.418 25.1059 25.0083 26.2391L22.7252 26.1222L22.4022 24.1055C23.3376 23.5569 24.0686 22.6984 24.4536 21.6707H20.1758V18.5059H24.516H27.8602Z" fill="#518EF8"/>
<path d="M25.0077 26.2382C23.6367 27.3402 21.8956 28 19.9998 28C16.9532 28 14.3044 26.2971 12.9531 23.7911L15.5457 21.6689C16.2213 23.472 17.9606 24.7556 19.9998 24.7556C20.8762 24.7556 21.6974 24.5186 22.402 24.105L25.0077 26.2382Z" fill="#28B446"/>
<path d="M25.1065 13.8418L22.5148 15.9635C21.7856 15.5077 20.9236 15.2444 20.0001 15.2444C17.9148 15.2444 16.1429 16.5868 15.5011 18.4546L12.895 16.3209C14.2265 13.7539 16.9082 12 20.0001 12C21.9412 12 23.721 12.6914 25.1065 13.8418Z" fill="#F14336"/>
</g>
</g>
</g>
<defs>
<clipPath id="clip0_43_67">
<rect width="40" height="40" fill="white"/>
</clipPath>
</defs>
</svg>
