<svg width="40" height="40" viewBox="0 0 40 40" fill="none" xmlns="http://www.w3.org/2000/svg">
<g clip-path="url(#clip0_53_203)">
<mask id="mask0_53_203" style="mask-type:luminance" maskUnits="userSpaceOnUse" x="0" y="0" width="40" height="40">
<path d="M40 0H0V40H40V0Z" fill="white"/>
</mask>
<g mask="url(#mask0_53_203)">
<mask id="mask1_53_203" style="mask-type:luminance" maskUnits="userSpaceOnUse" x="0" y="0" width="40" height="40">
<path d="M40 0H0V40H40V0Z" fill="white"/>
</mask>
<g mask="url(#mask1_53_203)">
<path fill-rule="evenodd" clip-rule="evenodd" d="M29 19.9998C29 24.9703 24.9706 28.9998 20 28.9998C15.0294 28.9998 11 24.9703 11 19.9998C11 15.0292 15.0294 10.9998 20 10.9998C24.9706 10.9998 29 15.0292 29 19.9998ZM18.7578 20.538L14.4559 14.7861H17.7715L20.5918 18.557L24.0821 14.7861H25.0565L21.0271 19.1392L25.5711 25.2147H22.2555L19.1933 21.1201L15.4032 25.2147H14.4288L18.7578 20.538ZM17.4119 15.5037H15.8888L22.6149 24.497H24.1381L17.4119 15.5037Z" fill="black"/>
<path d="M14.4558 14.7861L18.7577 20.5381L14.4287 25.2147H15.4031L19.1932 21.1201L22.2554 25.2147H25.571L21.0269 19.1393L25.0564 14.7861H24.082L20.5916 18.557L17.7714 14.7861H14.4558ZM15.8887 15.5038H17.4118L24.1379 24.497H22.6148L15.8887 15.5038Z" fill="white"/>
</g>
</g>
</g>
<defs>
<clipPath id="clip0_53_203">
<rect width="40" height="40" fill="white"/>
</clipPath>
</defs>
</svg>
