<svg width="22" height="21" viewBox="0 0 22 21" fill="none" xmlns="http://www.w3.org/2000/svg">
<g clip-path="url(#clip0_1_10520)">
<g clip-path="url(#clip1_1_10520)">
<g clip-path="url(#clip2_1_10520)">
<mask id="mask0_1_10520" style="mask-type:luminance" maskUnits="userSpaceOnUse" x="1" y="0" width="21" height="21">
<path d="M21.1666 0.25885H1.16656V20.2589H21.1666V0.25885Z" fill="white"/>
</mask>
<g mask="url(#mask0_1_10520)">
<mask id="mask1_1_10520" style="mask-type:luminance" maskUnits="userSpaceOnUse" x="1" y="3" width="21" height="16">
<path d="M21.1666 3.25885H1.16656V18.0384H21.1666V3.25885Z" fill="white"/>
</mask>
<g mask="url(#mask1_1_10520)">
<path d="M19.6043 4.53506V6.03727H15.312V4.53506C15.312 4.19659 15.4465 3.87198 15.6858 3.63264C15.9251 3.39331 16.2498 3.25885 16.5882 3.25885H18.3297C18.6464 3.25882 18.9518 3.37658 19.1865 3.58923C19.4212 3.80187 19.5684 4.09421 19.5995 4.40937C19.6019 4.45046 19.6043 4.49276 19.6043 4.53506Z" fill="#414865"/>
<g style="mix-blend-mode:multiply">
<path d="M19.6043 4.535V6.0372H15.312V4.55997C15.9026 4.05019 16.6495 3.75736 17.4292 3.72996C18.2089 3.70256 18.9746 3.94223 19.5995 4.40931C19.6019 4.4504 19.6043 4.4927 19.6043 4.535Z" fill="#A8C1CC"/>
</g>
<path d="M7.0218 4.52217V6.03727H2.72909V4.53506C2.72869 4.47925 2.73259 4.42349 2.74077 4.36828C2.78061 4.06144 2.93081 3.7796 3.1633 3.57543C3.3958 3.37126 3.69468 3.25872 4.00409 3.25885H5.7468C6.08287 3.25905 6.40529 3.39184 6.64402 3.62838C6.88275 3.86493 7.01851 4.18611 7.0218 4.52217Z" fill="#414865"/>
<g style="mix-blend-mode:multiply">
<path d="M7.0218 4.52222V6.03731H2.72909V4.53511C2.72869 4.4793 2.73259 4.42354 2.74077 4.36833C3.36574 3.90396 4.13018 3.6662 4.90828 3.69417C5.68639 3.72214 6.43178 4.01418 7.0218 4.52222Z" fill="#A8C1CC"/>
</g>
<path d="M15.9349 5.08063H6.08453V11.0709H15.9349V5.08063Z" fill="#D0D6F3"/>
<path d="M10.8069 9.54081C10.807 9.57842 10.7996 9.61567 10.7853 9.65044C10.7709 9.68521 10.7498 9.71682 10.7233 9.74345C10.6967 9.77009 10.6652 9.79123 10.6304 9.80567C10.5957 9.82012 10.5585 9.82758 10.5209 9.82763H9.27525C9.2012 9.82485 9.1311 9.79348 9.0797 9.74011C9.02829 9.68673 8.99957 9.61551 8.99957 9.54141C8.99957 9.4673 9.02829 9.39608 9.0797 9.34271C9.1311 9.28934 9.2012 9.25797 9.27525 9.25519H10.5209C10.5966 9.25529 10.6692 9.28541 10.7228 9.33894C10.7764 9.39247 10.8067 9.46505 10.8069 9.54081Z" fill="#FF4539"/>
<path d="M9.06337 9.57263C9.06337 9.49667 9.09354 9.42381 9.14726 9.3701C9.20097 9.31639 9.27382 9.28621 9.34979 9.28621H10.5946C10.6352 9.2863 10.6752 9.29508 10.7121 9.31196C10.749 9.32885 10.7819 9.35345 10.8084 9.3841C10.7825 9.34446 10.7471 9.31191 10.7054 9.2894C10.6637 9.2669 10.617 9.25514 10.5696 9.25519H9.32481C9.26972 9.255 9.21575 9.27078 9.16943 9.30061C9.12311 9.33044 9.08641 9.37304 9.06379 9.42328C9.04116 9.47351 9.03358 9.52923 9.04194 9.58368C9.0503 9.63814 9.07425 9.68901 9.1109 9.73014C9.08001 9.68341 9.06349 9.62865 9.06337 9.57263Z" fill="white"/>
<path d="M10.7468 9.31769C10.7652 9.36121 10.7725 9.40861 10.7682 9.45567C10.7638 9.50272 10.7479 9.54797 10.7218 9.58737C10.6957 9.62678 10.6603 9.65912 10.6187 9.68151C10.5771 9.7039 10.5306 9.71564 10.4833 9.7157H9.23811C9.17404 9.71549 9.11195 9.69346 9.06207 9.65326C9.08395 9.70503 9.12062 9.74919 9.16748 9.78022C9.21435 9.81125 9.26933 9.82776 9.32553 9.82769H10.5703C10.6298 9.82788 10.6878 9.80947 10.7363 9.77506C10.7848 9.74064 10.8214 9.69192 10.8408 9.63573C10.8602 9.57953 10.8616 9.51867 10.8448 9.46164C10.8279 9.40462 10.7937 9.35429 10.7468 9.31769Z" fill="#EF2622"/>
<g style="mix-blend-mode:overlay" opacity="0.35">
<path d="M10.3833 9.25519C10.3083 9.28737 10.238 9.32951 10.1743 9.38047C10.0429 9.48723 9.93256 9.61855 9.79801 9.72209C9.74644 9.76205 9.69144 9.79737 9.63365 9.82763H9.32507C9.25101 9.82485 9.18092 9.79348 9.12951 9.74011C9.0781 9.68673 9.04938 9.61551 9.04938 9.54141C9.04938 9.4673 9.0781 9.39608 9.12951 9.34271C9.18092 9.28934 9.25101 9.25797 9.32507 9.25519H10.3833Z" fill="white"/>
</g>
<path d="M13.3234 9.54081C13.3235 9.6167 13.2935 9.68953 13.24 9.74331C13.1864 9.79709 13.1137 9.82742 13.0378 9.82763H11.7918C11.7178 9.82485 11.6477 9.79348 11.5963 9.74011C11.5448 9.68673 11.5161 9.61551 11.5161 9.54141C11.5161 9.4673 11.5448 9.39608 11.5963 9.34271C11.6477 9.28934 11.7178 9.25797 11.7918 9.25519H13.0378C13.1135 9.2554 13.186 9.28556 13.2395 9.33908C13.293 9.3926 13.3232 9.46512 13.3234 9.54081Z" fill="#1BC0ED"/>
<path d="M11.58 9.57263C11.58 9.49667 11.6102 9.42381 11.6639 9.3701C11.7176 9.31639 11.7905 9.28621 11.8664 9.28621H13.1112C13.1518 9.2863 13.1919 9.29508 13.2288 9.31196C13.2657 9.32885 13.2985 9.35345 13.3251 9.3841C13.2992 9.34446 13.2637 9.31191 13.222 9.2894C13.1803 9.2669 13.1336 9.25514 13.0863 9.25519H11.8415C11.7864 9.255 11.7324 9.27078 11.6861 9.30061C11.6398 9.33044 11.6031 9.37304 11.5804 9.42328C11.5578 9.47351 11.5502 9.52923 11.5586 9.58368C11.5669 9.63814 11.5909 9.68901 11.6276 9.73014C11.5967 9.68341 11.5801 9.62865 11.58 9.57263Z" fill="white"/>
<path d="M13.2633 9.31769C13.2819 9.3612 13.2895 9.40865 13.2852 9.45579C13.2809 9.50293 13.265 9.54827 13.2389 9.58773C13.2128 9.6272 13.1773 9.65956 13.1355 9.68189C13.0938 9.70423 13.0472 9.71585 12.9999 9.7157H11.7551C11.6909 9.71558 11.6286 9.69355 11.5786 9.65326C11.6005 9.70503 11.6372 9.74919 11.684 9.78022C11.7309 9.81125 11.7859 9.82776 11.8421 9.82769H13.0869C13.1463 9.82788 13.2044 9.80947 13.2529 9.77506C13.3013 9.74064 13.3379 9.69192 13.3573 9.63573C13.3767 9.57953 13.3781 9.51867 13.3613 9.46164C13.3444 9.40462 13.3102 9.35429 13.2633 9.31769Z" fill="#0593E2"/>
<g style="mix-blend-mode:overlay" opacity="0.35">
<path d="M12.9003 9.25519C12.8251 9.28727 12.7546 9.32942 12.6908 9.38047C12.5595 9.48723 12.4491 9.61855 12.3145 9.72209C12.2631 9.76222 12.2081 9.79755 12.1502 9.82763H11.8416C11.7676 9.82485 11.6975 9.79348 11.6461 9.74011C11.5946 9.68673 11.5659 9.61551 11.5659 9.54141C11.5659 9.4673 11.5946 9.39608 11.6461 9.34271C11.6975 9.28934 11.7676 9.25797 11.8416 9.25519H12.9003Z" fill="white"/>
</g>
<path d="M12.2682 7.6877C12.7771 7.11369 12.7244 6.2358 12.1504 5.72688C11.5764 5.21797 10.6985 5.27074 10.1896 5.84475C9.68067 6.41877 9.73344 7.29665 10.3075 7.80557C10.8814 8.31448 11.7593 8.26171 12.2682 7.6877Z" fill="#343A51"/>
<path d="M12.3522 6.76402C12.3522 6.98711 12.2861 7.20519 12.1621 7.39068C12.0382 7.57617 11.862 7.72075 11.6559 7.80612C11.4498 7.89149 11.223 7.91383 11.0042 7.87031C10.7854 7.82678 10.5844 7.71935 10.4266 7.56161C10.2689 7.40386 10.1615 7.20287 10.1179 6.98407C10.0744 6.76527 10.0967 6.53847 10.1821 6.33236C10.2675 6.12625 10.4121 5.95009 10.5976 5.82615C10.783 5.70221 11.0012 5.63605 11.2243 5.63605C11.4342 5.63541 11.64 5.69406 11.8181 5.80525C11.9814 5.90636 12.1161 6.04749 12.2096 6.21528C12.3031 6.38307 12.3522 6.57195 12.3522 6.76402Z" fill="#262A3A"/>
<path d="M10.1716 6.76329C10.1723 6.47101 10.2864 6.1904 10.4899 5.98059C10.6934 5.77078 10.9704 5.64815 11.2625 5.63855C11.2504 5.63855 11.2387 5.63654 11.2266 5.63654C10.9368 5.64996 10.6634 5.77454 10.4631 5.98437C10.2627 6.19421 10.1509 6.47317 10.1509 6.76329C10.1509 7.05341 10.2627 7.33237 10.4631 7.54221C10.6634 7.75204 10.9368 7.87662 11.2266 7.89005C11.2387 7.89005 11.2504 7.89005 11.2625 7.89005C10.97 7.88043 10.6928 7.75753 10.4892 7.54728C10.2857 7.33704 10.1718 7.05592 10.1716 6.76329Z" fill="white"/>
<g style="mix-blend-mode:overlay" opacity="0.35">
<path d="M11.8197 5.80646C11.5913 6.08322 11.4245 6.43853 11.3197 6.76201C11.2343 7.02789 11.1864 7.30665 11.0603 7.55601C11.0107 7.65783 10.9448 7.7509 10.8653 7.83156C10.6135 7.74472 10.4005 7.57154 10.2641 7.34271C10.1277 7.11388 10.0767 6.84417 10.1201 6.58134C10.1636 6.31852 10.2986 6.07954 10.5014 5.90674C10.7041 5.73395 10.9615 5.63849 11.2279 5.63727C11.4371 5.63701 11.6422 5.69564 11.8197 5.80646Z" fill="white"/>
</g>
<path d="M8.10498 8.21171C8.10498 8.21171 6.3369 18.0383 3.27085 18.0383C0.204808 18.0383 1.39481 7.19171 1.39481 7.19171L8.10498 8.21171Z" fill="#D0D6F3"/>
<path d="M14.2281 8.21171C14.2281 8.21171 15.9962 18.0383 19.0623 18.0383C22.1283 18.0383 20.9387 7.19171 20.9387 7.19171L14.2281 8.21171Z" fill="#D0D6F3"/>
<path d="M19.9397 8.61993C19.9397 8.61993 20.9871 16.5081 19.1457 17.0523C17.3043 17.5966 15.5016 8.99538 15.5016 8.99538L19.9397 8.61993Z" fill="#A7B3EB"/>
<path d="M2.37538 8.61993C2.37538 8.61993 1.32799 16.5081 3.16898 17.0523C5.00998 17.5966 6.81352 8.99538 6.81352 8.99538L2.37538 8.61993Z" fill="#A7B3EB"/>
<path d="M8.15114 8.16432C8.50912 6.30536 7.29233 4.50816 5.43337 4.15018C3.5744 3.7922 1.77721 5.00899 1.41923 6.86796C1.06125 8.72693 2.27804 10.5241 4.137 10.8821C5.99597 11.2401 7.79316 10.0233 8.15114 8.16432Z" fill="#D0D6F3"/>
<path d="M4.94809 10.782C4.27989 10.7822 3.62623 10.587 3.06752 10.2204C2.50882 9.85387 2.06945 9.332 1.8035 8.719C1.53754 8.10601 1.45659 7.42864 1.5706 6.77023C1.68462 6.11183 1.98863 5.50111 2.44522 5.01324C2.10885 5.32706 1.83911 5.70539 1.65207 6.12568C1.46503 6.54596 1.36452 6.99961 1.35653 7.45957C1.34855 7.91952 1.43325 8.37638 1.60559 8.80291C1.77793 9.22943 2.03438 9.6169 2.35966 9.9422C2.68493 10.2676 3.07237 10.524 3.49888 10.6964C3.9254 10.8688 4.38225 10.9535 4.84221 10.9456C5.30217 10.9376 5.75582 10.8372 6.17612 10.6502C6.59643 10.4632 6.97477 10.1934 7.28862 9.85705C6.65466 10.4522 5.81758 10.783 4.94809 10.782Z" fill="#C5CBE2"/>
<path d="M19.9712 9.94024C21.3098 8.6016 21.3098 6.43124 19.9712 5.0926C18.6325 3.75396 16.4622 3.75396 15.1235 5.0926C13.7849 6.43124 13.7849 8.6016 15.1235 9.94024C16.4622 11.2789 18.6325 11.2789 19.9712 9.94024Z" fill="#D0D6F3"/>
<path d="M17.692 10.8019C17.0227 10.802 16.3681 10.6062 15.8089 10.2385C15.2497 9.87091 14.8103 9.34761 14.5451 8.7332C14.2798 8.11879 14.2002 7.44016 14.3162 6.78106C14.4321 6.12195 14.7385 5.51122 15.1975 5.02423C14.86 5.33781 14.5892 5.71621 14.4013 6.13683C14.2133 6.55745 14.1121 7.01165 14.1037 7.47227C14.0953 7.93289 14.1798 8.39048 14.3523 8.81768C14.5247 9.24489 14.7816 9.63293 15.1074 9.95863C15.4332 10.2844 15.8214 10.541 16.2486 10.7133C16.6759 10.8856 17.1335 10.9699 17.5942 10.9613C18.0548 10.9527 18.5089 10.8513 18.9295 10.6632C19.35 10.4751 19.7283 10.2041 20.0417 9.86642C19.4071 10.4675 18.5661 10.8023 17.692 10.8019Z" fill="#C5CBE2"/>
<g style="mix-blend-mode:multiply">
<path d="M18.3917 6.00784C18.3921 6.17524 18.3428 6.339 18.2501 6.47838C18.1574 6.61777 18.0254 6.72651 17.8708 6.79085C17.7163 6.85519 17.5461 6.87223 17.3819 6.83981C17.2176 6.8074 17.0667 6.72699 16.9482 6.60876C16.8297 6.49053 16.7489 6.33979 16.7161 6.17563C16.6833 6.01148 16.6999 5.84128 16.7639 5.68658C16.8279 5.53188 16.9363 5.39964 17.0755 5.30659C17.2146 5.21355 17.3783 5.16388 17.5457 5.16388C17.7697 5.16388 17.9846 5.25273 18.1432 5.41095C18.3018 5.56916 18.3911 5.78382 18.3917 6.00784Z" fill="#B7B7B7"/>
</g>
<g style="mix-blend-mode:multiply" opacity="0.35">
<path d="M18.3506 6.26496C18.2959 6.43507 18.1887 6.58344 18.0443 6.68869C17.8999 6.79395 17.7258 6.85066 17.5471 6.85066C17.3684 6.85066 17.1944 6.79395 17.05 6.68869C16.9056 6.58344 16.7983 6.43507 16.7437 6.26496C16.7983 6.09485 16.9056 5.94648 17.05 5.84123C17.1944 5.73597 17.3684 5.67926 17.5471 5.67926C17.7258 5.67926 17.8999 5.73597 18.0443 5.84123C18.1887 5.94648 18.2959 6.09485 18.3506 6.26496Z" fill="#757272"/>
</g>
<path d="M18.2325 6.00794C18.2327 6.16737 18.1775 6.3219 18.076 6.44489C17.9746 6.56788 17.8334 6.65162 17.6768 6.68167C17.5202 6.71173 17.3581 6.68621 17.2183 6.60952C17.0785 6.53283 16.9699 6.40977 16.9111 6.26156C16.8524 6.11336 16.8471 5.94929 16.8964 5.79765C16.9456 5.64601 17.0462 5.51629 17.1808 5.43087C17.3154 5.34545 17.4756 5.30967 17.6338 5.32971C17.792 5.34975 17.9382 5.42434 18.0473 5.54064C18.1666 5.6669 18.2329 5.83418 18.2325 6.00794Z" fill="#25CC44"/>
<path d="M17.5848 6.6524C17.4523 6.65148 17.3229 6.61212 17.2123 6.53911C17.1017 6.4661 17.0147 6.36257 16.9618 6.24107C16.9088 6.11958 16.8923 5.98534 16.9142 5.85463C16.936 5.72392 16.9953 5.60237 17.0849 5.5047C17.0151 5.5667 16.9588 5.6423 16.9193 5.72686C16.8798 5.81142 16.858 5.90316 16.8553 5.99645C16.8525 6.08973 16.8689 6.1826 16.9033 6.26933C16.9378 6.35607 16.9896 6.43486 17.0556 6.50085C17.1216 6.56684 17.2003 6.61865 17.2871 6.65309C17.3738 6.68753 17.4667 6.70388 17.56 6.70114C17.6533 6.69839 17.745 6.67661 17.8296 6.63712C17.9141 6.59764 17.9897 6.54128 18.0517 6.47153C17.9248 6.58901 17.7578 6.65369 17.5848 6.6524Z" fill="white"/>
<g style="mix-blend-mode:overlay" opacity="0.35">
<path d="M18.0474 5.53933C17.7795 5.64447 17.5519 5.7613 17.3996 6.07552C17.3191 6.24149 17.2788 6.43042 17.1881 6.58955C17.1047 6.53848 17.0332 6.47015 16.9784 6.38914C16.9236 6.30812 16.8868 6.21632 16.8705 6.11989C16.8541 6.02346 16.8586 5.92465 16.8837 5.83011C16.9087 5.73557 16.9537 5.64748 17.0156 5.57179C17.0776 5.49609 17.155 5.43454 17.2427 5.39128C17.3304 5.34801 17.4264 5.32403 17.5241 5.32096C17.6219 5.31788 17.7192 5.33578 17.8094 5.37345C17.8997 5.41111 17.9808 5.46768 18.0474 5.53933Z" fill="white"/>
</g>
<g style="mix-blend-mode:multiply">
<path d="M17.5476 9.86986C18.0137 9.86986 18.3915 9.49201 18.3915 9.0259C18.3915 8.5598 18.0137 8.18195 17.5476 8.18195C17.0815 8.18195 16.7036 8.5598 16.7036 9.0259C16.7036 9.49201 17.0815 9.86986 17.5476 9.86986Z" fill="#B7B7B7"/>
</g>
<g style="mix-blend-mode:multiply" opacity="0.35">
<path d="M18.3506 9.28425C18.2959 9.45436 18.1887 9.60272 18.0443 9.70798C17.8999 9.81324 17.7258 9.86995 17.5471 9.86995C17.3684 9.86995 17.1944 9.81324 17.05 9.70798C16.9056 9.60272 16.7983 9.45436 16.7437 9.28425C16.7983 9.11414 16.9056 8.96577 17.05 8.86051C17.1944 8.75526 17.3684 8.69855 17.5471 8.69855C17.7258 8.69855 17.8999 8.75526 18.0443 8.86051C18.1887 8.96577 18.2959 9.11414 18.3506 9.28425Z" fill="#757272"/>
</g>
<path d="M18.2325 9.026C18.2327 9.18544 18.1775 9.33997 18.076 9.46296C17.9746 9.58595 17.8334 9.66969 17.6768 9.69974C17.5202 9.72979 17.3581 9.70427 17.2183 9.62758C17.0785 9.55089 16.9699 9.42784 16.9111 9.27963C16.8524 9.13142 16.8471 8.96736 16.8964 8.81572C16.9456 8.66407 17.0462 8.53436 17.1808 8.44894C17.3154 8.36352 17.4756 8.32774 17.6338 8.34778C17.792 8.36782 17.9382 8.44241 18.0473 8.5587C18.166 8.68535 18.2322 8.85238 18.2325 9.026Z" fill="#1BC0ED"/>
<path d="M17.5848 9.6737C17.4519 9.67313 17.322 9.6339 17.211 9.56079C17.1001 9.48768 17.0127 9.38385 16.9597 9.26196C16.9067 9.14008 16.8903 9.0054 16.9126 8.87436C16.9348 8.74332 16.9947 8.62158 17.0849 8.52399C17.0151 8.58598 16.9588 8.66158 16.9193 8.74614C16.8798 8.83071 16.858 8.92245 16.8553 9.01573C16.8525 9.10902 16.8689 9.20188 16.9033 9.28862C16.9378 9.37536 16.9896 9.45415 17.0556 9.52014C17.1216 9.58613 17.2003 9.63794 17.2871 9.67238C17.3738 9.70682 17.4667 9.72317 17.56 9.72042C17.6533 9.71768 17.745 9.69589 17.8296 9.65641C17.9141 9.61692 17.9897 9.56057 18.0517 9.49081C17.925 9.60899 17.7581 9.6744 17.5848 9.6737Z" fill="white"/>
<g style="mix-blend-mode:overlay" opacity="0.35">
<path d="M18.0475 8.55866C17.7796 8.6638 17.552 8.78062 17.3997 9.09524C17.3192 9.26081 17.2789 9.45015 17.1882 9.60927C17.105 9.55814 17.0336 9.48978 16.979 9.40879C16.9243 9.3278 16.8876 9.23605 16.8714 9.13971C16.8551 9.04337 16.8597 8.94466 16.8847 8.85022C16.9097 8.75578 16.9547 8.66778 17.0165 8.59215C17.0784 8.51652 17.1557 8.455 17.2433 8.41172C17.3309 8.36845 17.4268 8.34442 17.5244 8.34124C17.6221 8.33807 17.7193 8.35583 17.8095 8.39333C17.8997 8.43083 17.9809 8.4872 18.0475 8.55866Z" fill="white"/>
</g>
<g style="mix-blend-mode:multiply">
<path d="M19.1209 8.35456C19.5856 8.31937 19.9339 7.91406 19.8987 7.44929C19.8635 6.98451 19.4582 6.63626 18.9934 6.67145C18.5286 6.70664 18.1804 7.11195 18.2156 7.57673C18.2508 8.0415 18.6561 8.38975 19.1209 8.35456Z" fill="#B7B7B7"/>
</g>
<g style="mix-blend-mode:multiply" opacity="0.35">
<path d="M19.0572 8.36081C19.5011 8.36081 19.8609 8.09839 19.8609 7.77468C19.8609 7.45096 19.5011 7.18854 19.0572 7.18854C18.6133 7.18854 18.2535 7.45096 18.2535 7.77468C18.2535 8.09839 18.6133 8.36081 19.0572 8.36081Z" fill="#757272"/>
</g>
<path d="M19.7432 7.5164C19.7434 7.67581 19.688 7.8303 19.5865 7.95322C19.4849 8.07615 19.3437 8.15981 19.1872 8.18979C19.0306 8.21977 18.8685 8.19419 18.7287 8.11745C18.589 8.04072 18.4804 7.91764 18.4217 7.76943C18.363 7.62123 18.3578 7.45718 18.4071 7.30556C18.4563 7.15395 18.5569 7.02427 18.6915 6.93887C18.8262 6.85348 18.9863 6.81773 19.1445 6.83777C19.3027 6.85782 19.4489 6.93241 19.5579 7.04869C19.6774 7.17506 19.7437 7.3425 19.7432 7.5164Z" fill="#FD5299"/>
<path d="M19.0947 8.16346C18.9618 8.16307 18.8319 8.12404 18.7209 8.05114C18.6098 7.97824 18.5224 7.87461 18.4692 7.75288C18.416 7.63115 18.3993 7.49658 18.4213 7.36556C18.4432 7.23453 18.5028 7.11272 18.5927 7.01495C18.523 7.07695 18.4666 7.15255 18.4271 7.23711C18.3876 7.32167 18.3658 7.41341 18.3631 7.5067C18.3604 7.59999 18.3767 7.69285 18.4111 7.77959C18.4456 7.86633 18.4974 7.94511 18.5634 8.0111C18.6294 8.07709 18.7082 8.1289 18.7949 8.16334C18.8816 8.19779 18.9745 8.21414 19.0678 8.21139C19.1611 8.20864 19.2528 8.18686 19.3374 8.14738C19.4219 8.10789 19.4975 8.05154 19.5595 7.98178C19.4331 8.0989 19.267 8.16382 19.0947 8.16346Z" fill="white"/>
<g style="mix-blend-mode:overlay" opacity="0.35">
<path d="M19.5568 7.04873C19.2889 7.15387 19.0617 7.2711 18.9095 7.58532C18.8289 7.75129 18.7886 7.94023 18.698 8.09935C18.6146 8.04831 18.5431 7.98 18.4883 7.89901C18.4335 7.81802 18.3966 7.72624 18.3803 7.62983C18.3639 7.53343 18.3684 7.43463 18.3934 7.3401C18.4184 7.24557 18.4633 7.15748 18.5252 7.08178C18.5871 7.00607 18.6645 6.94449 18.7522 6.90119C18.8399 6.85789 18.9358 6.83386 19.0335 6.83073C19.1313 6.8276 19.2285 6.84544 19.3188 6.88304C19.4091 6.92064 19.4902 6.97714 19.5568 7.04873Z" fill="white"/>
</g>
<g style="mix-blend-mode:multiply">
<path d="M16.5135 8.21564C16.8987 7.95325 16.9983 7.42824 16.7359 7.04301C16.4735 6.65778 15.9485 6.5582 15.5633 6.82059C15.178 7.08298 15.0784 7.60799 15.3408 7.99322C15.6032 8.37845 16.1282 8.47803 16.5135 8.21564Z" fill="#B7B7B7"/>
</g>
<g style="mix-blend-mode:multiply" opacity="0.35">
<path d="M16.0376 8.36081C16.4814 8.36081 16.8412 8.09839 16.8412 7.77468C16.8412 7.45096 16.4814 7.18854 16.0376 7.18854C15.5937 7.18854 15.2339 7.45096 15.2339 7.77468C15.2339 8.09839 15.5937 8.36081 16.0376 8.36081Z" fill="#757272"/>
</g>
<path d="M16.7227 7.5164C16.7229 7.67581 16.6674 7.8303 16.5659 7.95322C16.4644 8.07615 16.3232 8.15981 16.1667 8.18979C16.0101 8.21977 15.848 8.19419 15.7082 8.11745C15.5685 8.04072 15.4599 7.91764 15.4012 7.76943C15.3425 7.62123 15.3373 7.45718 15.3865 7.30556C15.4358 7.15395 15.5364 7.02427 15.671 6.93887C15.8057 6.85348 15.9658 6.81773 16.124 6.83777C16.2821 6.85782 16.4283 6.93241 16.5374 7.04869C16.6569 7.17506 16.7232 7.3425 16.7227 7.5164Z" fill="#EF2622"/>
<path d="M16.0752 8.16346C15.9424 8.16307 15.8125 8.12404 15.7015 8.05114C15.5904 7.97824 15.5029 7.87461 15.4497 7.75288C15.3965 7.63115 15.3799 7.49658 15.4018 7.36556C15.4238 7.23453 15.4833 7.11272 15.5733 7.01495C15.5035 7.07695 15.4472 7.15255 15.4077 7.23711C15.3682 7.32167 15.3464 7.41341 15.3437 7.5067C15.3409 7.59999 15.3573 7.69285 15.3917 7.77959C15.4262 7.86633 15.478 7.94511 15.544 8.0111C15.6099 8.07709 15.6887 8.1289 15.7755 8.16334C15.8622 8.19779 15.9551 8.21414 16.0484 8.21139C16.1416 8.20864 16.2334 8.18686 16.3179 8.14738C16.4025 8.10789 16.4781 8.05154 16.5401 7.98178C16.4135 8.09866 16.2475 8.16354 16.0752 8.16346Z" fill="white"/>
<g style="mix-blend-mode:overlay" opacity="0.35">
<path d="M16.5374 7.04873C16.2695 7.15387 16.0423 7.2711 15.89 7.58532C15.8095 7.75129 15.7692 7.94023 15.6785 8.09935C15.5951 8.04831 15.5236 7.98 15.4688 7.89901C15.414 7.81802 15.3772 7.72624 15.3608 7.62983C15.3445 7.53343 15.3489 7.43463 15.3739 7.3401C15.399 7.24557 15.4439 7.15748 15.5058 7.08178C15.5677 7.00607 15.6451 6.94449 15.7328 6.90119C15.8204 6.85789 15.9164 6.83386 16.0141 6.83073C16.1118 6.8276 16.2091 6.84544 16.2994 6.88304C16.3896 6.92064 16.4708 6.97714 16.5374 7.04873Z" fill="white"/>
</g>
<g style="mix-blend-mode:multiply">
<path d="M4.78608 7.03313C4.72637 7.03318 4.66767 7.01777 4.61567 6.98841L4.22371 6.76645C4.16785 6.73486 4.12138 6.68902 4.08904 6.63361C4.0567 6.57819 4.03964 6.51518 4.03961 6.45102V5.72228C4.03972 5.63352 4.07502 5.54844 4.13778 5.48568C4.20054 5.42292 4.28562 5.38762 4.37437 5.38751H5.19779C5.28654 5.38762 5.37162 5.42292 5.43438 5.48568C5.49714 5.54844 5.53244 5.63352 5.53255 5.72228V6.45102C5.53248 6.51522 5.51536 6.57826 5.48294 6.63368C5.45053 6.6891 5.40397 6.73492 5.34805 6.76645L4.95648 6.98841C4.90449 7.01777 4.84578 7.03318 4.78608 7.03313Z" fill="#B7B7B7"/>
</g>
<path d="M5.45461 5.72273V6.45107C5.45463 6.50169 5.44121 6.5514 5.41573 6.59514C5.39025 6.63888 5.35362 6.67507 5.30958 6.70003L4.91802 6.92079C4.87756 6.94378 4.83182 6.95586 4.78528 6.95586C4.73875 6.95586 4.69301 6.94378 4.65255 6.92079L4.26098 6.70003C4.22226 6.67785 4.1895 6.64661 4.16551 6.60899C4.13385 6.5624 4.11687 6.5074 4.11676 6.45107V5.72273C4.1166 5.68893 4.12312 5.65543 4.13595 5.62416C4.14877 5.59288 4.16765 5.56445 4.19149 5.54049C4.21534 5.51654 4.24368 5.49753 4.27489 5.48456C4.30611 5.47158 4.33957 5.46491 4.37337 5.46491H5.19719C5.23052 5.46473 5.26355 5.47116 5.29439 5.48381C5.32523 5.49646 5.35326 5.51509 5.37686 5.53863C5.40147 5.56255 5.42103 5.59118 5.43439 5.6228C5.44774 5.65442 5.45462 5.6884 5.45461 5.72273Z" fill="#343A51"/>
<path d="M4.18122 6.47554V5.66985C4.18101 5.6141 4.19606 5.55935 4.22472 5.51154C4.19136 5.53525 4.16414 5.5666 4.14536 5.60297C4.12658 5.63934 4.11677 5.67968 4.11676 5.72061V6.45097C4.11685 6.50151 4.13032 6.55113 4.15579 6.59478C4.18126 6.63844 4.21783 6.67457 4.26179 6.69952L4.27105 6.70476C4.21283 6.64269 4.18067 6.56064 4.18122 6.47554Z" fill="white"/>
<g style="mix-blend-mode:multiply">
<path d="M4.78608 7.99957C4.72633 7.99967 4.66763 8.01521 4.61567 8.04469L4.22371 8.26626C4.16779 8.29787 4.12128 8.34378 4.08894 8.39927C4.05659 8.45476 4.03957 8.51785 4.03961 8.58208V9.31123C4.03972 9.39995 4.07503 9.48499 4.1378 9.54769C4.20057 9.61038 4.28566 9.64559 4.37437 9.64559H5.19779C5.2865 9.64559 5.37158 9.61038 5.43435 9.54769C5.49712 9.48499 5.53244 9.39995 5.53255 9.31123V8.58208C5.53255 8.51781 5.51546 8.45469 5.48304 8.3992C5.45062 8.3437 5.40403 8.29782 5.34805 8.26626L4.95648 8.04469C4.90452 8.01521 4.84582 7.99967 4.78608 7.99957Z" fill="#B7B7B7"/>
</g>
<path d="M5.45461 8.58248V9.31122C5.4545 9.37946 5.42735 9.44487 5.37909 9.49313C5.33084 9.54138 5.26543 9.56853 5.19719 9.56864H4.37337C4.33962 9.56859 4.30621 9.56189 4.27505 9.54892C4.24389 9.53596 4.21558 9.51698 4.19175 9.49308C4.16792 9.46917 4.14903 9.44081 4.13617 9.40961C4.1233 9.37841 4.11671 9.34497 4.11676 9.31122V8.58248C4.1167 8.53195 4.13001 8.4823 4.15534 8.43858C4.18067 8.39485 4.21712 8.35861 4.26098 8.33352L4.65254 8.11155C4.693 8.08856 4.73875 8.07648 4.78528 8.07648C4.83182 8.07648 4.87755 8.08856 4.91802 8.11155L5.20807 8.27591L5.30958 8.33352C5.35365 8.35844 5.3903 8.39463 5.41578 8.43837C5.44127 8.48212 5.45467 8.53185 5.45461 8.58248Z" fill="#343A51"/>
<path d="M4.18122 8.557V9.36269C4.181 9.41857 4.19604 9.47345 4.22472 9.52141C4.19136 9.4977 4.16414 9.46635 4.14536 9.42998C4.12658 9.3936 4.11677 9.35327 4.11676 9.31233V8.58198C4.11685 8.53144 4.13032 8.48182 4.15579 8.43817C4.18126 8.39451 4.21783 8.35837 4.26179 8.33342L4.27105 8.32819C4.21286 8.39011 4.18069 8.47203 4.18122 8.557Z" fill="white"/>
<g style="mix-blend-mode:multiply">
<path d="M5.2691 7.51655C5.26906 7.45684 5.28447 7.39814 5.31382 7.34615L5.53539 6.95418C5.567 6.89827 5.6129 6.85176 5.6684 6.81941C5.72389 6.78706 5.78698 6.77004 5.85121 6.77008H6.57996C6.66867 6.77019 6.75372 6.8055 6.81641 6.86827C6.87911 6.93104 6.91432 7.01613 6.91432 7.10484V7.92826C6.91421 8.0169 6.87895 8.10189 6.81627 8.16457C6.75359 8.22725 6.6686 8.26251 6.57996 8.26262H5.85121C5.78698 8.26266 5.72389 8.24564 5.6684 8.21329C5.6129 8.18094 5.567 8.13443 5.53539 8.07852L5.31382 7.68695C5.28447 7.63496 5.26906 7.57626 5.2691 7.51655Z" fill="#B7B7B7"/>
</g>
<path d="M6.83715 7.1048V7.92862C6.8371 7.96239 6.83038 7.99581 6.81739 8.02698C6.80439 8.05814 6.78537 8.08644 6.76142 8.11024C6.73747 8.13404 6.70906 8.15288 6.67781 8.16568C6.64656 8.17848 6.6131 8.18499 6.57933 8.18483H5.85099C5.80052 8.18481 5.75095 8.17151 5.70725 8.14627C5.66355 8.12103 5.62726 8.08472 5.60203 8.04101L5.45902 7.78884L5.38127 7.64906C5.35832 7.60866 5.34625 7.56298 5.34625 7.51651C5.34625 7.47005 5.35832 7.42439 5.38127 7.38399L5.60203 6.99201C5.62698 6.94797 5.66318 6.91134 5.70692 6.88586C5.75065 6.86038 5.80037 6.84697 5.85099 6.84698H6.57933C6.64771 6.84698 6.71329 6.87415 6.76164 6.9225C6.80999 6.97085 6.83715 7.03643 6.83715 7.1048Z" fill="#343A51"/>
<path d="M5.82638 6.91193H6.63207C6.68795 6.91171 6.74283 6.92676 6.79079 6.95544C6.76708 6.92207 6.73573 6.89486 6.69936 6.87608C6.66299 6.8573 6.62265 6.84749 6.58172 6.84747H5.85297C5.80242 6.84748 5.75276 6.86092 5.7091 6.88639C5.66543 6.91187 5.6293 6.94849 5.60442 6.9925L5.59918 7.00136C5.66074 6.94366 5.74202 6.91167 5.82638 6.91193Z" fill="white"/>
<g style="mix-blend-mode:multiply">
<path d="M4.30201 7.51655C4.30206 7.45684 4.28665 7.39814 4.2573 7.34615L4.03573 6.95418C4.00411 6.89827 3.95822 6.85176 3.90272 6.81941C3.84723 6.78706 3.78414 6.77004 3.7199 6.77008H2.99116C2.90244 6.77019 2.8174 6.8055 2.7547 6.86827C2.69201 6.93104 2.6568 7.01613 2.6568 7.10484V7.92826C2.6569 8.0169 2.69217 8.10189 2.75485 8.16457C2.81753 8.22725 2.90251 8.26251 2.99116 8.26262H3.7199C3.78414 8.26266 3.84723 8.24564 3.90272 8.21329C3.95822 8.18094 4.00411 8.13443 4.03573 8.07852L4.2573 7.68695C4.28665 7.63496 4.30206 7.57626 4.30201 7.51655Z" fill="#B7B7B7"/>
</g>
<path d="M4.19103 7.64906L3.96907 8.04101C3.94383 8.08472 3.90755 8.12103 3.86385 8.14627C3.82015 8.17151 3.77057 8.18481 3.72011 8.18483H2.99177C2.95801 8.18494 2.92457 8.1784 2.89335 8.16558C2.86212 8.15277 2.83373 8.13392 2.80979 8.11013C2.78585 8.08634 2.76683 8.05807 2.75382 8.02693C2.7408 7.99578 2.73405 7.96237 2.73395 7.92862V7.1048C2.73416 7.03649 2.76139 6.97104 2.80969 6.92273C2.858 6.87443 2.92345 6.8472 2.99177 6.84698H3.72011C3.7632 6.84698 3.80573 6.85673 3.84452 6.87549C3.88331 6.89426 3.91735 6.92156 3.94409 6.95535C3.95342 6.96686 3.96177 6.97912 3.96907 6.99201L4.19103 7.38399C4.21399 7.42439 4.22605 7.47005 4.22605 7.51651C4.22605 7.56298 4.21399 7.60866 4.19103 7.64906Z" fill="#343A51"/>
<path d="M3.74523 6.91193H2.93954C2.88366 6.91171 2.82878 6.92676 2.78082 6.95544C2.80453 6.92207 2.83588 6.89486 2.87225 6.87608C2.90862 6.8573 2.94896 6.84749 2.98989 6.84747H3.71864C3.7692 6.84748 3.81885 6.86092 3.86251 6.88639C3.90618 6.91187 3.94231 6.94849 3.96719 6.9925L3.97243 7.00136C3.91088 6.94366 3.8296 6.91167 3.74523 6.91193Z" fill="white"/>
<g style="mix-blend-mode:overlay" opacity="0.35">
<path d="M3.94409 6.95535C3.76764 7.2454 3.60328 7.54431 3.41475 7.8267C3.33121 7.95761 3.23205 8.07787 3.11946 8.18483H2.99177C2.95801 8.18494 2.92457 8.1784 2.89335 8.16558C2.86212 8.15277 2.83373 8.13392 2.80979 8.11013C2.78585 8.08634 2.76683 8.05807 2.75382 8.02693C2.7408 7.99578 2.73405 7.96237 2.73395 7.92862V7.1048C2.73416 7.03649 2.76139 6.97104 2.80969 6.92273C2.858 6.87443 2.92345 6.8472 2.99177 6.84698H3.72011C3.7632 6.84698 3.80573 6.85673 3.84452 6.87549C3.88331 6.89426 3.91735 6.92156 3.94409 6.95535Z" fill="white"/>
</g>
<g style="mix-blend-mode:overlay" opacity="0.35">
<path d="M5.37686 5.53863C4.96032 5.69977 4.61387 6.01479 4.34195 6.36446C4.28032 6.44503 4.2211 6.5256 4.16551 6.60899C4.13385 6.5624 4.11687 6.5074 4.11676 6.45107V5.72273C4.1166 5.68893 4.12312 5.65543 4.13595 5.62416C4.14877 5.59288 4.16765 5.56445 4.19149 5.54049C4.21534 5.51654 4.24368 5.49753 4.27489 5.48456C4.30611 5.47158 4.33957 5.46491 4.37337 5.46491H5.19719C5.23052 5.46473 5.26355 5.47116 5.29439 5.48381C5.32523 5.49646 5.35326 5.51509 5.37686 5.53863Z" fill="white"/>
</g>
<g style="mix-blend-mode:overlay" opacity="0.35">
<path d="M4.919 8.11155L5.20905 8.27591C5.06282 8.62357 4.93068 9.02279 4.58988 9.17345C4.51541 9.2054 4.43536 9.22231 4.35434 9.2232C4.27331 9.2241 4.1929 9.20897 4.11774 9.17869V8.58248C4.11769 8.53195 4.131 8.4823 4.15633 8.43858C4.18166 8.39485 4.2181 8.35861 4.26196 8.33352L4.65353 8.11155C4.69399 8.08856 4.73973 8.07648 4.78626 8.07648C4.8328 8.07648 4.87854 8.08856 4.919 8.11155Z" fill="white"/>
</g>
<g style="mix-blend-mode:overlay" opacity="0.35">
<path d="M6.35978 6.84698C6.28378 6.8914 6.21072 6.94064 6.14104 6.99443C5.87427 7.22265 5.64424 7.4906 5.45902 7.78884L5.38127 7.64906C5.35832 7.60866 5.34625 7.56298 5.34625 7.51651C5.34625 7.47005 5.35832 7.42439 5.38127 7.38399L5.60203 6.99201C5.62698 6.94797 5.66318 6.91134 5.70692 6.88586C5.75065 6.86038 5.80037 6.84697 5.85099 6.84698H6.35978Z" fill="white"/>
</g>
<g style="mix-blend-mode:overlay" opacity="0.25">
<path d="M2.00964 6.72891C1.74578 7.66835 1.74861 8.65934 1.75384 9.63503L1.76713 12.2865C1.77076 13.0044 1.78365 13.7581 2.13734 14.3813C2.49104 15.0045 3.30882 15.4287 3.94732 15.102C4.60678 14.7628 4.71797 13.8934 4.93631 13.1856C5.22636 12.2438 5.82538 11.4341 6.39098 10.6272C7.49678 9.05131 8.17759 7.3928 7.29818 5.53005C6.71205 4.28889 4.98827 3.88363 3.7745 4.43149C2.85803 4.84683 2.2731 5.79149 2.00964 6.72891Z" fill="white"/>
</g>
<g style="mix-blend-mode:overlay" opacity="0.25">
<path d="M20.4326 6.72891C20.6964 7.66835 20.6932 8.65934 20.6884 9.63503C20.6838 10.5188 20.6793 11.4027 20.6747 12.2865C20.6711 13.0044 20.6586 13.7581 20.3049 14.3813C19.9512 15.0045 19.1334 15.4287 18.4949 15.102C17.8354 14.7628 17.7243 13.8934 17.5059 13.1856C17.2159 12.2438 16.6168 11.4341 16.0508 10.6272C14.945 9.05131 14.2646 7.3928 15.144 5.53005C15.7302 4.28889 17.454 3.88363 18.6677 4.43149C19.583 4.84683 20.1691 5.79149 20.4326 6.72891Z" fill="white"/>
</g>
</g>
</g>
</g>
</g>
</g>
<defs>
<clipPath id="clip0_1_10520">
<rect width="21" height="20" fill="white" transform="translate(0.783752 0.25885)"/>
</clipPath>
<clipPath id="clip1_1_10520">
<rect width="21" height="20" fill="white" transform="translate(0.783752 0.25885)"/>
</clipPath>
<clipPath id="clip2_1_10520">
<rect width="21" height="20" fill="white" transform="translate(0.783752 0.25885)"/>
</clipPath>
</defs>
</svg>
