<svg width="21" height="21" viewBox="0 0 21 21" fill="none" xmlns="http://www.w3.org/2000/svg">
<g clip-path="url(#clip0_1_10246)">
<g clip-path="url(#clip1_1_10246)">
<g clip-path="url(#clip2_1_10246)">
<path d="M17.3086 2.07526H2.61476V14.7283H17.3086V2.07526Z" fill="#9F5E10"/>
<path d="M20.1653 6.97321H18.1245V11.8711H20.1653V6.97321Z" fill="url(#paint0_radial_1_10246)"/>
<path d="M20.1655 6.97321V11.8711C20.7097 10.2567 20.7097 8.58763 20.1655 6.97321Z" fill="#9F5E10"/>
<path d="M18.9408 6.97321H18.5327V11.8711H18.9408V6.97321Z" fill="#9F5E10"/>
<path d="M19.3492 2.23444V7.4875C19.3619 7.53185 19.3886 7.57085 19.4255 7.59863C19.4623 7.62641 19.5071 7.64143 19.5533 7.64143C19.5994 7.64143 19.6442 7.62641 19.6811 7.59863C19.7179 7.57085 19.7447 7.53185 19.7574 7.4875V2.23444H19.3492Z" fill="url(#paint1_radial_1_10246)"/>
<path d="M19.5614 2.48326C19.5338 2.48271 19.5063 2.48769 19.4805 2.4979C19.4548 2.50812 19.4313 2.52339 19.4116 2.54277C19.3918 2.56215 19.3761 2.58528 19.3654 2.61081C19.3547 2.63633 19.3492 2.66374 19.3492 2.69142V4.00978C19.4845 4.03026 19.6221 4.03026 19.7574 4.00978V2.68325C19.7554 2.63152 19.7342 2.58237 19.698 2.54539C19.6618 2.50841 19.6131 2.48626 19.5614 2.48326Z" fill="#9F5E10"/>
<path d="M19.5531 3.70787C20.1166 3.70787 20.5735 3.25102 20.5735 2.68746C20.5735 2.12391 20.1166 1.66705 19.5531 1.66705C18.9895 1.66705 18.5327 2.12391 18.5327 2.68746C18.5327 3.25102 18.9895 3.70787 19.5531 3.70787Z" fill="url(#paint2_radial_1_10246)"/>
<path d="M18.0467 6.565H17.7163V12.2793H18.0467C18.1755 12.2793 18.2991 12.2352 18.3902 12.1565C18.4813 12.0779 18.5325 11.9713 18.5325 11.8601V6.99264C18.5338 6.93688 18.5222 6.88145 18.4983 6.82961C18.4745 6.77778 18.4389 6.73057 18.3937 6.69074C18.3484 6.65092 18.2944 6.6193 18.2349 6.5977C18.1753 6.57611 18.1113 6.56499 18.0467 6.565Z" fill="url(#paint3_radial_1_10246)"/>
<path d="M18.1244 6.565H17.7163V12.2793H18.1244V6.565Z" fill="#9F5E10"/>
<path d="M16.9004 3.70782H3.02288C2.57204 3.70782 2.20656 4.07331 2.20656 4.52415V12.2793C2.20656 12.7301 2.57204 13.0956 3.02288 13.0956H16.9004C17.3513 13.0956 17.7168 12.7301 17.7168 12.2793V4.52415C17.7168 4.07331 17.3513 3.70782 16.9004 3.70782Z" fill="url(#paint4_radial_1_10246)"/>
<path d="M2.20656 2.58542C2.20656 2.07822 2.61773 1.66705 3.12493 1.66705H16.7983C17.3055 1.66705 17.7167 2.07822 17.7167 2.58542C17.7167 2.75449 17.5797 2.89154 17.4106 2.89154H2.51269C2.34362 2.89154 2.20656 2.75449 2.20656 2.58542Z" fill="url(#paint5_radial_1_10246)"/>
<path d="M16.1541 9.09961C16.1239 9.10027 16.0938 9.09483 16.0658 9.08361C16.0377 9.07239 16.0122 9.05562 15.9908 9.03431L15.5581 8.60166C15.5362 8.58044 15.5189 8.55506 15.5069 8.52702C15.495 8.49898 15.4889 8.46885 15.4888 8.43838C15.4884 8.40846 15.4944 8.3788 15.5064 8.35136C15.5183 8.32393 15.536 8.29934 15.5581 8.27919L15.9908 7.84246C16.035 7.80089 16.0934 7.77757 16.1541 7.77716C16.214 7.77823 16.2711 7.80279 16.313 7.84554C16.355 7.88829 16.3785 7.94581 16.3785 8.00573V8.87512C16.3789 8.90566 16.3729 8.93593 16.361 8.96403C16.349 8.99214 16.3314 9.01747 16.3092 9.0384C16.2672 9.07796 16.2117 9.09987 16.1541 9.09961Z" fill="#915123"/>
<path d="M16.1544 9.02621C16.1164 9.02631 16.0798 9.01169 16.0523 8.9854L15.6156 8.54866C15.5896 8.52098 15.5751 8.48456 15.5748 8.44662C15.5758 8.40884 15.5903 8.37267 15.6156 8.34458L16.0523 7.91193C16.0652 7.8976 16.0809 7.88617 16.0985 7.87842C16.1161 7.87068 16.1352 7.86678 16.1544 7.86701C16.1926 7.86808 16.229 7.88404 16.2556 7.91148C16.2823 7.93892 16.2972 7.9757 16.2972 8.01397V8.88336C16.2962 8.92092 16.2808 8.95666 16.2542 8.98324C16.2277 9.00981 16.1919 9.02518 16.1544 9.02621Z" fill="#72000B"/>
<path d="M15.677 8.48337L16.1096 8.91602C16.118 8.925 16.1288 8.93129 16.1407 8.93406C16.1527 8.93683 16.1651 8.93594 16.1766 8.93154C16.188 8.92715 16.1978 8.91944 16.2048 8.9094C16.2118 8.89935 16.2156 8.88746 16.2158 8.87522V8.00583C16.2165 7.99324 16.2133 7.98075 16.2066 7.97005C16.1999 7.95936 16.1901 7.95098 16.1785 7.94606C16.1669 7.94115 16.1541 7.93994 16.1417 7.9426C16.1294 7.94526 16.1182 7.95167 16.1096 7.96094L15.677 8.39767C15.6709 8.40304 15.6661 8.40962 15.6627 8.41701C15.6594 8.4244 15.6577 8.43242 15.6577 8.44052C15.6577 8.44863 15.6594 8.45665 15.6627 8.46404C15.6661 8.47143 15.6709 8.47801 15.677 8.48337Z" fill="url(#paint6_linear_1_10246)"/>
<path d="M16.2149 8.00583C16.2156 7.99324 16.2124 7.98075 16.2057 7.97005C16.1991 7.95936 16.1893 7.95098 16.1776 7.94606C16.166 7.94115 16.1532 7.93994 16.1409 7.9426C16.1286 7.94526 16.1173 7.95167 16.1088 7.96094L15.6762 8.39767C15.6701 8.40271 15.6652 8.40894 15.6617 8.41596C15.6582 8.42298 15.6561 8.43064 15.6557 8.43848H16.2149V8.00583Z" fill="url(#paint7_linear_1_10246)"/>
<path d="M3.70489 9.09965C3.73454 9.10074 3.76408 9.09546 3.79153 9.0842C3.81898 9.07294 3.84368 9.05595 3.86402 9.03435L4.2967 8.61802C4.33827 8.57377 4.36161 8.51545 4.36202 8.45474C4.36214 8.42522 4.35644 8.39596 4.34523 8.36865C4.33402 8.34133 4.31752 8.31651 4.2967 8.29558L3.85999 7.85884C3.83905 7.83802 3.81421 7.82154 3.7869 7.81034C3.75958 7.79913 3.73032 7.7934 3.7008 7.79352C3.64018 7.79352 3.58203 7.81762 3.53917 7.86048C3.4963 7.90335 3.4722 7.96147 3.4722 8.02209V8.89148C3.47182 8.9224 3.4782 8.95304 3.49089 8.98124C3.50358 9.00944 3.52229 9.03454 3.5457 9.05476C3.59092 9.08982 3.64801 9.10591 3.70489 9.09965Z" fill="#915123"/>
<path d="M3.70499 9.0262C3.74277 9.02514 3.77894 9.01068 3.80703 8.98539L4.23965 8.54865C4.25379 8.53567 4.26506 8.51991 4.27279 8.50234C4.28052 8.48478 4.28452 8.4658 4.28455 8.44661C4.28356 8.40802 4.26744 8.37137 4.23965 8.34457L3.80703 7.91192C3.78023 7.88413 3.74358 7.86799 3.70499 7.867C3.68588 7.867 3.66694 7.87083 3.64933 7.87826C3.63173 7.8857 3.61582 7.8966 3.6025 7.9103C3.58918 7.924 3.57874 7.94023 3.5718 7.95803C3.56487 7.97584 3.56154 7.99486 3.56209 8.01396V8.88335C3.56186 8.90258 3.56575 8.92163 3.5735 8.93923C3.58124 8.95683 3.5927 8.97257 3.60703 8.98539C3.61943 8.99888 3.63461 9.00951 3.65152 9.01656C3.66844 9.02361 3.68668 9.02689 3.70499 9.0262Z" fill="#72000B"/>
<path d="M4.18312 8.48341L3.74641 8.91607C3.73881 8.92589 3.7282 8.93298 3.71621 8.93625C3.70423 8.93951 3.69152 8.93879 3.67999 8.93418C3.66846 8.92956 3.65871 8.92132 3.65229 8.91069C3.64586 8.90006 3.64309 8.88762 3.64436 8.87526V8.00587C3.64451 7.99411 3.648 7.98264 3.65448 7.97284C3.66096 7.96303 3.67017 7.9553 3.68094 7.95057C3.6917 7.94583 3.70355 7.94429 3.71517 7.94613C3.72678 7.94798 3.73764 7.95314 3.74641 7.96098L4.18312 8.39772C4.1892 8.40308 4.19408 8.40966 4.19742 8.41705C4.20075 8.42444 4.2025 8.43246 4.2025 8.44057C4.2025 8.44867 4.20075 8.45669 4.19742 8.46408C4.19408 8.47147 4.1892 8.47805 4.18312 8.48341Z" fill="url(#paint8_linear_1_10246)"/>
<path d="M3.6438 8.00587C3.64394 7.99411 3.64743 7.98264 3.65392 7.97284C3.6604 7.96303 3.66961 7.9553 3.68037 7.95057C3.69114 7.94583 3.70299 7.94429 3.7146 7.94613C3.72622 7.94798 3.73708 7.95314 3.74584 7.96098L4.18256 8.39772C4.18525 8.40418 4.18664 8.41111 4.18664 8.41812C4.18664 8.42513 4.18525 8.43206 4.18256 8.43852H3.62746L3.6438 8.00587Z" fill="url(#paint9_linear_1_10246)"/>
<path d="M8.10913 5.26715H5.35402V11.606H8.10913V5.26715Z" fill="url(#paint10_linear_1_10246)"/>
<path d="M7.90112 5.70782C7.9238 5.69577 7.94317 5.67827 7.95742 5.6569C7.97167 5.63553 7.98038 5.61095 7.98278 5.58538C7.98278 5.50375 7.88887 5.43435 7.7501 5.4017C7.80368 5.36832 7.85074 5.32544 7.88891 5.27517C7.93638 5.22366 7.96884 5.16014 7.98278 5.09149C7.98278 5.07108 7.98274 5.05476 7.94601 5.03843C7.9133 5.02135 7.87682 5.01292 7.83993 5.01394C7.7583 5.01394 7.693 5.04253 7.68891 5.08335C7.67873 5.13381 7.65468 5.18043 7.61951 5.21802L7.5787 5.26294C7.51645 5.1932 7.43791 5.13991 7.35011 5.10783C7.16324 5.0399 6.96521 5.00802 6.76646 5.01394C6.64047 5.01537 6.51482 5.02767 6.39093 5.05069C6.22326 5.07767 6.05905 5.12284 5.90116 5.18539C5.85626 5.18539 5.84808 5.23028 5.88073 5.25477C5.98712 5.32399 6.1007 5.38146 6.21949 5.42619C6.19289 5.43709 6.16977 5.45498 6.15252 5.47798C6.13528 5.50098 6.12455 5.52822 6.12153 5.5568C6.11962 5.56897 6.11962 5.58138 6.12153 5.59355C5.98276 5.6262 5.89299 5.69965 5.89299 5.7772C5.8878 5.79728 5.8878 5.81836 5.89299 5.83844C5.80132 5.83668 5.71049 5.85625 5.62767 5.89559C5.5542 5.93232 5.50929 5.98537 5.50929 6.03843C5.50929 6.09149 5.5542 6.14049 5.62767 6.18131C5.71772 6.2206 5.81513 6.24007 5.91336 6.23843C6.01032 6.24053 6.10655 6.22103 6.19502 6.18131C6.28738 6.22279 6.38765 6.24366 6.48889 6.24252C6.5802 6.20226 6.67888 6.18148 6.77867 6.18148C6.87846 6.18148 6.97719 6.20226 7.0685 6.24252C7.1817 6.24788 7.2939 6.21946 7.39091 6.16088C7.58683 6.16088 7.75418 6.08742 7.79908 5.99354C7.9052 5.95681 7.96644 5.89557 7.96644 5.83027C7.96451 5.80508 7.95597 5.78086 7.94163 5.76006C7.92728 5.73927 7.90768 5.72266 7.88482 5.71191L7.90112 5.70782Z" fill="#44281F"/>
<path d="M7.50516 5.31611C7.42353 5.20182 7.23171 5.06305 6.75824 5.06305C6.47911 5.06973 6.20311 5.12356 5.94191 5.22224C6.04422 5.29242 6.15537 5.34871 6.2725 5.3896C6.34787 5.36617 6.42626 5.35379 6.50518 5.35285H6.59088C6.69344 5.27754 6.81891 5.24004 6.94598 5.24673C7.06927 5.24018 7.19125 5.27462 7.29291 5.34468H7.40312C7.43808 5.33894 7.4723 5.32936 7.50516 5.31611Z" fill="#5EAC41"/>
<path d="M7.49686 5.32001H7.36218C7.23788 5.25006 7.09654 5.21614 6.95402 5.22206C6.81144 5.21548 6.66992 5.24944 6.54586 5.32001H6.50914C6.40206 5.3189 6.29563 5.33687 6.19484 5.37307L6.27646 5.40573C6.35182 5.38231 6.43022 5.36992 6.50914 5.36899H6.59484C6.6974 5.29367 6.82287 5.2562 6.94994 5.26289C7.07323 5.25634 7.1952 5.29078 7.29686 5.36084H7.40708C7.43855 5.35092 7.46869 5.3372 7.49686 5.32001Z" fill="#3F8724"/>
<path d="M7.60342 5.41409C7.85648 5.27123 7.88099 5.09979 7.88099 5.09162C7.88099 5.08346 7.88099 5.06305 7.8361 5.06305C7.7912 5.06305 7.78303 5.06305 7.78303 5.08754C7.76402 5.15223 7.73117 5.21203 7.68677 5.26277C7.64237 5.31351 7.58748 5.354 7.52589 5.38143L7.60342 5.41409Z" fill="#5EAC41"/>
<path d="M7.60342 5.41395L7.66874 5.37312L7.58712 5.34454L7.52589 5.38129L7.60342 5.41395Z" fill="#3F8724"/>
<path d="M7.36659 6.10796C7.38543 6.08948 7.397 6.06487 7.39922 6.03858C7.40342 6.0239 7.40342 6.00836 7.39922 5.99368L7.48901 5.9692H7.59105C7.63855 5.97389 7.68644 5.97389 7.73394 5.9692C7.82782 5.94062 7.89313 5.89164 7.89313 5.83449C7.89313 5.77735 7.77475 5.69164 7.61965 5.68348V5.6345C7.63914 5.61649 7.65083 5.59161 7.65228 5.56512C7.65228 5.4794 7.51759 5.4141 7.35024 5.4141H7.2768C7.2404 5.37583 7.19573 5.34637 7.14621 5.32798C7.0967 5.30959 7.04362 5.30275 6.99106 5.30797C6.93605 5.30114 6.88024 5.30842 6.82883 5.32912C6.77742 5.34983 6.73211 5.38328 6.69719 5.42633C6.64843 5.41987 6.59903 5.41987 6.55026 5.42633C6.38291 5.42633 6.24822 5.49164 6.24822 5.57735C6.24869 5.59094 6.25222 5.60427 6.25859 5.61629C6.26495 5.62831 6.27397 5.6387 6.28494 5.64673C6.13801 5.64673 6.0278 5.72022 6.0278 5.79777C6.0276 5.81007 6.03004 5.82225 6.03497 5.83352C6.0399 5.84479 6.04723 5.85487 6.0564 5.86307L6.01554 5.90796C5.926 5.89885 5.83567 5.91436 5.75431 5.95285C5.63595 6.01 5.63595 6.10388 5.75431 6.16511C5.88527 6.21777 6.03152 6.21777 6.16248 6.16511L6.19925 6.14062H6.30129C6.37477 6.18211 6.45771 6.20392 6.54209 6.20392C6.62647 6.20392 6.70941 6.18211 6.78289 6.14062H6.88493C6.95489 6.17913 7.03368 6.19883 7.11353 6.19777C7.21016 6.20336 7.30565 6.17442 7.38293 6.11613L7.36659 6.10796Z" fill="#AC14B8"/>
<path d="M7.09698 5.88733C7.15018 5.88177 7.20395 5.88845 7.25417 5.90684C7.3044 5.92523 7.34973 5.95486 7.38676 5.99346L7.47659 5.96897C7.42639 5.91229 7.35898 5.87357 7.28472 5.85876C7.2824 5.848 7.2824 5.83686 7.28472 5.8261C7.28472 5.74447 7.41945 5.67508 7.58272 5.67508H7.61127V5.6261C7.50131 5.62202 7.39241 5.6489 7.29697 5.70365H7.26025C7.20626 5.64833 7.13634 5.61123 7.06026 5.59753C7.0565 5.58557 7.0565 5.57276 7.06026 5.56081C7.06026 5.48734 7.15411 5.4302 7.28472 5.41387C7.27412 5.3951 7.2586 5.37956 7.23983 5.36896C7.07656 5.39345 6.95822 5.47101 6.95822 5.56081H6.82349C6.74594 5.53632 6.6929 5.49142 6.6929 5.43836C6.69107 5.42756 6.69107 5.41651 6.6929 5.4057H6.59495C6.59127 5.42182 6.59127 5.43856 6.59495 5.45468C6.59495 5.51182 6.64394 5.56079 6.71741 5.59753C6.6818 5.60477 6.64743 5.61716 6.61537 5.63427C6.52717 5.59373 6.43075 5.57417 6.33371 5.57712H6.26027C6.26469 5.59694 6.27631 5.6144 6.29291 5.6261H6.33371C6.40971 5.62331 6.48529 5.63872 6.55414 5.67102C6.53725 5.68327 6.52333 5.69916 6.51343 5.71753C6.50354 5.7359 6.49792 5.75627 6.49699 5.77712C6.49015 5.79696 6.49015 5.81852 6.49699 5.83836C6.40934 5.84123 6.32321 5.86208 6.24393 5.89959C6.1839 5.86996 6.11883 5.85195 6.05211 5.84653L6.01125 5.89142C6.06791 5.89654 6.12321 5.91174 6.17453 5.93631C6.28065 5.98529 6.2888 6.06693 6.21125 6.12407H6.31329C6.32846 6.1131 6.34084 6.09867 6.34936 6.082C6.35788 6.06532 6.36231 6.04689 6.36231 6.02816C6.36231 6.00944 6.35788 5.99098 6.34936 5.9743C6.34084 5.95763 6.32846 5.9432 6.31329 5.93222C6.3851 5.89513 6.46518 5.87688 6.54597 5.87916C6.70923 5.87916 6.84392 5.94447 6.84392 6.03018C6.84337 6.04683 6.83859 6.06308 6.83002 6.07736C6.82145 6.09165 6.80937 6.1035 6.79494 6.11182H6.89698C6.91144 6.10064 6.9233 6.08647 6.93176 6.07026C6.94022 6.05406 6.94506 6.03621 6.94596 6.01795C6.94566 5.99899 6.94108 5.98035 6.93261 5.96339C6.92413 5.94643 6.91196 5.93161 6.89698 5.91999C6.9604 5.89442 7.02872 5.88326 7.09698 5.88733ZM6.8072 5.88733C6.73745 5.85152 6.66096 5.83066 6.58269 5.8261C6.5659 5.80994 6.55573 5.78814 6.55414 5.76489C6.55414 5.67917 6.68883 5.61387 6.85618 5.61387C7.02352 5.61387 7.15821 5.67917 7.15821 5.76489C7.15737 5.78751 7.14869 5.80913 7.1337 5.8261H7.09698C6.99577 5.82609 6.89618 5.85137 6.8072 5.89959V5.88733Z" fill="#7D0087"/>
<path d="M7.83174 5.67099C7.78625 5.6516 7.7381 5.63921 7.68889 5.63424C7.70831 5.61288 7.71981 5.58551 7.72153 5.55669C7.72049 5.53688 7.71524 5.51752 7.70608 5.49992C7.69693 5.48231 7.68409 5.46688 7.66847 5.45465C7.78275 5.47914 7.86438 5.53219 7.86438 5.5975C7.86313 5.62523 7.85149 5.65149 7.83174 5.67099Z" fill="#7D0087"/>
<path d="M7.47609 6.10371C7.49167 6.08549 7.50032 6.06236 7.50056 6.03839H7.58222C7.6202 6.0426 7.65849 6.0426 7.69647 6.03839C7.6327 6.08487 7.55489 6.10795 7.47609 6.10371Z" fill="#7D0087"/>
<path d="M7.92582 7.39356L7.81152 7.2752C7.80192 7.26561 7.79044 7.2581 7.77779 7.25318C7.76514 7.24826 7.75164 7.24604 7.73808 7.24663C7.72517 7.24636 7.7123 7.24876 7.70036 7.25368C7.68843 7.25859 7.67766 7.26592 7.66868 7.2752C7.6374 7.30524 7.60019 7.32837 7.55941 7.34314C7.51863 7.3579 7.47522 7.36395 7.43196 7.3609C7.30615 7.35266 7.18159 7.33077 7.06052 7.2956C6.86802 7.23932 6.66911 7.20779 6.46865 7.20173C6.33889 7.20118 6.20974 7.21902 6.085 7.25477C6.00648 7.27822 5.93108 7.31113 5.86049 7.35275C5.85436 7.33264 5.84192 7.31502 5.82502 7.30253C5.80811 7.29003 5.78764 7.28331 5.76662 7.28335H5.60743C5.58106 7.28333 5.5557 7.29353 5.53668 7.3118C5.51766 7.33006 5.50645 7.35495 5.50539 7.3813V8.26703C5.50645 8.29338 5.51766 8.3183 5.53668 8.33656C5.5557 8.35483 5.58106 8.36501 5.60743 8.36499H5.76662C5.79299 8.36501 5.81835 8.35483 5.83737 8.33656C5.8564 8.3183 5.86761 8.29338 5.86866 8.26703C5.86753 8.23066 5.87464 8.19448 5.88949 8.16126C5.90433 8.12803 5.92656 8.09861 5.95441 8.07518C6.00434 8.03064 6.06732 8.00344 6.13398 7.99763H6.21968C6.35835 8.00422 6.49557 8.02891 6.62784 8.0711L6.80337 8.11602C6.60472 8.25248 6.42728 8.41751 6.27683 8.60579C6.07649 8.88162 5.97316 9.21605 5.98296 9.55682C5.98401 9.58317 5.99523 9.60809 6.01425 9.62635C6.03327 9.64461 6.05863 9.6548 6.085 9.65477H7.37072C7.39671 9.65477 7.42161 9.64447 7.43998 9.6261C7.45835 9.60773 7.46868 9.5828 7.46868 9.55682C7.45577 9.17738 7.48865 8.79779 7.56664 8.42622C7.65333 8.10704 7.77949 7.79989 7.94216 7.51192C7.95361 7.49336 7.9582 7.47141 7.95522 7.44981C7.95224 7.42821 7.94186 7.40832 7.92582 7.39356Z" fill="#44281F"/>
<path d="M6.46817 7.316C6.21263 7.30804 5.96299 7.39368 5.76614 7.55683V7.39355H5.60695V8.27926H5.76614C5.769 8.18374 5.80743 8.09273 5.87386 8.02403C5.9403 7.95533 6.02995 7.9139 6.12533 7.90784C6.48043 7.87111 6.74984 8.05886 7.06821 8.05886C6.69678 8.34866 6.08861 8.65478 6.08861 9.56498H7.37433C7.31962 8.83569 7.48754 8.10697 7.85594 7.47519L7.7376 7.35681C7.43964 7.64252 7.00695 7.316 6.46817 7.316Z" fill="url(#paint11_linear_1_10246)"/>
<path d="M6.46817 7.316C6.21263 7.30804 5.96299 7.39368 5.76614 7.55683V7.39355H5.60695V8.27926H5.76614C5.769 8.18374 5.80743 8.09273 5.87386 8.02403C5.9403 7.95533 6.02995 7.9139 6.12533 7.90784C6.48043 7.87111 6.74984 8.05886 7.06821 8.05886C6.74487 8.25054 6.46649 8.50944 6.25188 8.81804H6.4029C6.7443 8.81924 7.08354 8.76409 7.40697 8.65479C7.48013 8.23777 7.62664 7.83701 7.83964 7.4711L7.72126 7.35275C7.43963 7.64254 7.00695 7.316 6.46817 7.316Z" fill="url(#paint12_linear_1_10246)"/>
<path d="M6.97007 7.95284C6.87456 7.93885 6.78034 7.91702 6.68842 7.88754C6.53673 7.83718 6.37872 7.80832 6.21902 7.80182H6.11289C6.01837 7.81193 5.931 7.85676 5.86766 7.92765C5.80431 7.99854 5.76951 8.09043 5.77005 8.18549H5.61086V8.28753H5.77005C5.77291 8.19201 5.81134 8.10098 5.87777 8.03228C5.9442 7.96358 6.03386 7.92217 6.12923 7.91612C6.48434 7.87938 6.75375 8.06713 7.07212 8.06713L7.19453 7.96509C7.11949 7.96743 7.04442 7.96332 6.97007 7.95284Z" fill="url(#paint13_linear_1_10246)"/>
<path d="M7.78272 7.39362C7.75414 7.4426 7.73374 7.48749 7.73374 7.48749C7.39576 8.08595 7.23574 8.76851 7.27251 9.45484H6.09291C6.09079 9.48882 6.09079 9.5229 6.09291 9.55688H7.37864C7.32393 8.82758 7.49185 8.09886 7.86024 7.46708L7.78272 7.39362Z" fill="url(#paint14_linear_1_10246)"/>
<path d="M7.60681 11.2263C7.66872 11.2261 7.72994 11.2133 7.78678 11.1888C7.84361 11.1642 7.89488 11.1284 7.93745 11.0834C7.98234 11.014 7.93741 10.9446 7.8517 10.8957C7.7607 10.8498 7.6597 10.8273 7.55783 10.8303C7.55783 10.7854 7.52928 10.7324 7.42724 10.6834C7.34861 10.645 7.26164 10.6267 7.17418 10.6303C7.08469 10.6288 6.99581 10.6455 6.91295 10.6793C6.88114 10.6893 6.85167 10.7057 6.82641 10.7274C6.80114 10.7492 6.78061 10.7759 6.76602 10.8059L6.72925 10.9201L6.69661 10.8059C6.68203 10.7759 6.66144 10.7492 6.63618 10.7274C6.61091 10.7057 6.5815 10.6893 6.54968 10.6793C6.46527 10.6459 6.37514 10.6293 6.28436 10.6303C6.197 10.6277 6.11026 10.6459 6.03131 10.6834C5.93335 10.7324 5.90475 10.7854 5.90475 10.8303C5.80283 10.8268 5.7017 10.8493 5.61089 10.8957C5.51293 10.9446 5.48029 11.014 5.52519 11.0834C5.56775 11.1284 5.61898 11.1642 5.67581 11.1888C5.73264 11.2133 5.79386 11.2261 5.85577 11.2263C5.79386 11.2265 5.73264 11.2392 5.67581 11.2638C5.61898 11.2883 5.56775 11.3242 5.52519 11.3691C5.48029 11.4385 5.52517 11.5079 5.61089 11.5569C5.7017 11.6033 5.80283 11.6257 5.90475 11.6222C5.90475 11.6671 5.93335 11.7201 6.03131 11.7691C6.11026 11.8066 6.197 11.8248 6.28436 11.8222C6.37514 11.8233 6.46527 11.8066 6.54968 11.7732C6.5815 11.7632 6.61091 11.7468 6.63618 11.7251C6.66144 11.7033 6.68203 11.6766 6.69661 11.6467L6.72925 11.5324L6.76602 11.6467C6.78061 11.6766 6.80114 11.7033 6.82641 11.7251C6.85167 11.7468 6.88114 11.7632 6.91295 11.7732C6.99581 11.807 7.08469 11.8237 7.17418 11.8222C7.26164 11.8258 7.34861 11.8076 7.42724 11.7691C7.52928 11.7201 7.55375 11.6671 7.55783 11.6222C7.6597 11.6252 7.7607 11.6028 7.8517 11.5569C7.94966 11.5079 7.98234 11.4385 7.93745 11.3691C7.89488 11.3242 7.84361 11.2883 7.78678 11.2638C7.72994 11.2392 7.66872 11.2265 7.60681 11.2263Z" fill="#44281F"/>
<path d="M7.4479 10.8505C7.4479 10.8016 7.47648 10.7444 7.35812 10.6832C7.23975 10.622 6.90099 10.6832 6.86425 10.7812L6.77442 11.075C6.77442 11.0995 6.69688 11.0995 6.68872 11.075L6.59485 10.7812C6.55812 10.6628 6.26834 10.6057 6.10508 10.6832C5.94181 10.7608 5.99891 10.8016 6.01116 10.8505C5.89892 10.8346 5.78449 10.8502 5.68057 10.8955C5.5173 10.9771 5.63566 11.124 5.87239 11.1403L6.46426 11.1893C6.51324 11.1893 6.51324 11.2261 6.46426 11.2302L5.87239 11.2791C5.63566 11.2791 5.5173 11.4424 5.68057 11.524C5.78449 11.5693 5.89892 11.5848 6.01116 11.5689C6.01116 11.6179 5.98671 11.675 6.10508 11.7363C6.22344 11.7975 6.55812 11.7567 6.59485 11.6383L6.68872 11.3444C6.68872 11.3199 6.76626 11.3199 6.77442 11.3444L6.86425 11.6383C6.90099 11.7567 7.19485 11.8138 7.35812 11.7363C7.52138 11.6587 7.46423 11.6179 7.4479 11.5689C7.56013 11.5853 7.67473 11.5697 7.77854 11.524C7.9418 11.4424 7.8234 11.2955 7.59075 11.2791L6.99893 11.2302C6.94995 11.2302 6.94995 11.1934 6.99893 11.1893L7.59075 11.1403C7.8234 11.1403 7.9418 10.9771 7.77854 10.8955C7.67473 10.8498 7.56013 10.8342 7.4479 10.8505Z" fill="#5EAC41"/>
<path d="M7.35798 10.6833C7.30002 10.6583 7.23745 10.6457 7.17433 10.6465C7.20698 10.6465 7.39879 10.6792 7.34981 10.8425H7.45185C7.46409 10.8017 7.47635 10.7445 7.35798 10.6833Z" fill="#3F8724"/>
<path d="M6.56607 11.014C6.56607 11.014 6.56603 11.0957 6.72929 11.0957C6.72929 11.0957 6.69257 11.0957 6.68849 11.0753L6.59462 10.7814C6.57764 10.7505 6.55363 10.7241 6.52456 10.7043C6.49549 10.6844 6.46216 10.6717 6.42726 10.6671C6.46269 10.6996 6.48699 10.7424 6.49666 10.7895L6.56607 11.014Z" fill="#3F8724"/>
<path d="M7.59112 11.2792L6.9993 11.2302C6.95032 11.2302 6.95032 11.1935 6.9993 11.1894L7.59112 11.1404C7.75847 11.1404 7.86868 11.0506 7.85643 10.9772C7.85643 11.0384 7.7136 11.0792 7.57483 11.0914L6.98296 11.1404C6.91357 11.1404 6.86054 11.1731 6.86054 11.2098C6.86054 11.2465 6.91357 11.2751 6.98296 11.2792L7.57483 11.3282C7.60703 11.3271 7.63908 11.3332 7.6687 11.3459C7.69831 11.3586 7.72476 11.3776 7.74622 11.4016C7.74622 11.4016 7.77073 11.4547 7.7095 11.4874C7.65913 11.5134 7.6029 11.526 7.54623 11.5241H7.46461H7.32994V11.5894C7.33222 11.6029 7.33222 11.6167 7.32994 11.6302C7.32994 11.6302 7.32992 11.6792 7.25645 11.7119C7.20093 11.7311 7.14052 11.7311 7.085 11.7119C7.00745 11.7119 6.95031 11.6669 6.93807 11.6302L6.8442 11.3323C6.8442 11.2955 6.77482 11.271 6.70135 11.271C6.62788 11.271 6.57075 11.2955 6.56259 11.3323L6.46867 11.6302C6.44715 11.674 6.41325 11.7105 6.37116 11.7352C6.32908 11.7598 6.28067 11.7716 6.23195 11.769C6.37889 11.769 6.54219 11.72 6.56667 11.6343L6.66054 11.3404C6.66054 11.3159 6.73808 11.3159 6.74624 11.3404L6.83603 11.6343C6.87276 11.7527 7.16667 11.8098 7.32994 11.7323C7.4932 11.6547 7.43605 11.6139 7.41972 11.5649C7.53196 11.5813 7.6465 11.5657 7.75031 11.52C7.94215 11.4424 7.82377 11.2955 7.59112 11.2792Z" fill="#3F8724"/>
<path d="M5.68044 11.5242C5.62738 11.4956 5.60695 11.463 5.60695 11.4303C5.60695 11.3977 5.66818 11.5446 6.01512 11.5201H6.04372V11.5732C5.92047 11.5943 5.79369 11.5772 5.68044 11.5242Z" fill="#3F8724"/>
<path d="M6.33809 11.1283C6.33809 11.1283 6.50136 11.1282 6.50136 11.2099C6.50136 11.2099 6.50138 11.1895 6.46464 11.1895L5.87278 11.1405C5.78867 11.1379 5.70743 11.1094 5.64015 11.0588C5.72031 11.0788 5.80244 11.0898 5.88503 11.0915L6.33809 11.1283Z" fill="#3F8724"/>
<path d="M14.5046 5.26715H11.7495V11.606H14.5046V5.26715Z" fill="url(#paint15_linear_1_10246)"/>
<path d="M13.6847 11.1609H13.6316C13.6161 11.1233 13.6078 11.0831 13.6072 11.0425C13.665 11.0684 13.7251 11.0889 13.7867 11.1037C13.9384 11.1355 14.093 11.1505 14.248 11.1486C14.2709 11.1532 14.2945 11.1532 14.3174 11.1486C14.3174 11.1486 14.3459 11.1241 14.3459 11.1119C14.3459 10.9241 14.1541 10.8221 13.9908 10.769L13.8724 10.7364C13.9133 10.7364 13.9296 10.6833 13.9051 10.6547C13.8664 10.6225 13.8166 10.6064 13.7663 10.6098H13.7051C13.6072 10.6343 13.5133 10.6588 13.4276 10.6874C13.0486 10.6718 12.6692 10.7005 12.2969 10.7731C12.186 10.7926 12.0819 10.8403 11.9949 10.9119C11.9648 10.9377 11.9406 10.9696 11.9237 11.0055C11.9068 11.0414 11.8977 11.0804 11.8969 11.1201C11.8969 11.1201 11.9214 11.1609 11.9541 11.169H11.999C12.0205 11.1733 12.0427 11.1733 12.0643 11.169C12.1937 11.1144 12.3321 11.084 12.4725 11.0792H12.5582H12.7459L12.6725 11.1445H12.5745C12.2072 11.1445 11.9092 11.2956 11.9092 11.4792C11.9092 11.6629 12.2072 11.8098 12.5745 11.8098C12.7605 11.8158 12.9444 11.7691 13.1051 11.6751C13.2729 11.8073 13.4838 11.8728 13.697 11.8588C14.0643 11.8588 14.3582 11.7119 14.3582 11.5282C14.3582 11.3445 14.0561 11.1609 13.6847 11.1609ZM13.1541 11.2915C13.0928 11.2361 13.0205 11.1944 12.9419 11.169C13.0633 11.061 13.2011 10.9728 13.35 10.9078C13.3156 10.9999 13.3156 11.1014 13.35 11.1935C13.2812 11.2155 13.2164 11.2486 13.1582 11.2915H13.1541Z" fill="#44281F"/>
<path d="M13.7992 10.7609C13.7351 10.7929 13.6813 10.8424 13.6441 10.9037C13.6317 10.9251 13.6234 10.9487 13.6196 10.9731C13.8154 11.0711 14.0339 11.1148 14.2523 11.0996C14.2523 10.9078 14.0237 10.8098 13.7992 10.7609Z" fill="#5EAC41"/>
<path d="M13.7992 10.7609C13.7351 10.7929 13.6813 10.8424 13.6441 10.9037C13.6317 10.9251 13.6234 10.9487 13.6196 10.9731C13.6488 10.992 13.6804 11.0071 13.7135 11.018C13.7186 10.9663 13.7382 10.9171 13.77 10.8759C13.8017 10.8348 13.8444 10.8034 13.8931 10.7853L13.7992 10.7609Z" fill="#3F8724"/>
<path d="M13.5377 11.1691C13.5108 11.1051 13.505 11.0342 13.5211 10.9666C13.5373 10.8991 13.5745 10.8385 13.6274 10.7936L13.4683 10.8507C13.4362 10.8998 13.4169 10.9561 13.4119 11.0145C13.4069 11.0729 13.4165 11.1316 13.4397 11.1854L13.5377 11.1691Z" fill="#81492E"/>
<path d="M13.468 10.8507C13.4504 10.8757 13.4367 10.9032 13.4272 10.9323L13.5538 10.8793C13.5734 10.8468 13.5982 10.8179 13.6272 10.7936L13.468 10.8507Z" fill="#693822"/>
<path d="M13.5333 11.1692V11.1202H13.4354C13.4336 11.1379 13.4336 11.1556 13.4354 11.1733L13.5333 11.1692Z" fill="#693822"/>
<path d="M13.8157 10.6588C13.8057 10.6535 13.7945 10.6506 13.7831 10.6506C13.7717 10.6506 13.7605 10.6535 13.7504 10.6588L13.5464 10.7119C13.5507 10.7138 13.5544 10.7169 13.557 10.7209C13.5596 10.7249 13.5611 10.7296 13.5611 10.7343C13.5611 10.7391 13.5596 10.7438 13.557 10.7478C13.5544 10.7517 13.5507 10.7549 13.5464 10.7568C13.6239 10.7323 13.7055 10.7078 13.7994 10.6874C13.8157 10.6915 13.828 10.6588 13.8157 10.6588Z" fill="#81492E"/>
<path d="M12.8678 11.1445C12.9127 11.1037 12.9657 11.0588 13.031 11.0098C12.9814 11.0219 12.9309 11.0301 12.88 11.0343L12.7739 11.1241L12.8678 11.1445Z" fill="#693822"/>
<path d="M13.0279 11.4751C13.0304 11.4196 13.0537 11.3672 13.0932 11.3281C13.0232 11.2624 12.9401 11.212 12.8494 11.1804C12.7587 11.1487 12.6624 11.1365 12.5667 11.1445C12.2524 11.1445 12.0034 11.271 12.0034 11.4261C12.0034 11.5812 12.2524 11.7077 12.5667 11.7077C12.7401 11.7168 12.9114 11.6664 13.0523 11.5649C13.0362 11.5377 13.0278 11.5067 13.0279 11.4751Z" fill="#F0323A"/>
<path d="M13.0276 11.4753C13.0301 11.4198 13.0534 11.3673 13.0929 11.3283L13.0399 11.2753C13.0066 11.2974 12.9789 11.327 12.9591 11.3618C12.9392 11.3965 12.9278 11.4353 12.9256 11.4753C12.9217 11.5023 12.9217 11.5298 12.9256 11.5569C12.8132 11.6268 12.6823 11.661 12.5501 11.6548C12.2929 11.6548 11.9868 11.5528 11.9868 11.4263C11.9868 11.5814 12.2358 11.7079 12.5501 11.7079C12.6917 11.7105 12.8319 11.6783 12.9582 11.614L13.0317 11.565C13.0226 11.536 13.0212 11.505 13.0276 11.4753Z" fill="#C9181F"/>
<path d="M13.6887 11.7732C13.9998 11.7732 14.252 11.6471 14.252 11.4916C14.252 11.3361 13.9998 11.21 13.6887 11.21C13.3776 11.21 13.1255 11.3361 13.1255 11.4916C13.1255 11.6471 13.3776 11.7732 13.6887 11.7732Z" fill="#F0323A"/>
<path d="M13.6848 11.7242C13.4318 11.7242 13.1216 11.6181 13.1216 11.4916C13.1216 11.6467 13.3746 11.7732 13.6848 11.7732C13.995 11.7732 14.2481 11.6467 14.2481 11.4916C14.2522 11.6181 13.946 11.7242 13.6848 11.7242Z" fill="#C9181F"/>
<path d="M12.4602 11.0138C12.8203 11.0501 13.1808 10.9479 13.4683 10.728C12.4357 10.728 12.0153 10.8138 12.0112 11.1117C12.1539 11.0527 12.3059 11.0195 12.4602 11.0138Z" fill="#5EAC41"/>
<path d="M14.0108 5.27104C14.0606 5.24608 14.1125 5.2256 14.1659 5.20983C14.2394 5.20983 14.2639 5.14044 14.219 5.10371C14.1818 5.07835 14.1374 5.06547 14.0924 5.06696C14.0667 5.0627 14.0406 5.0627 14.0149 5.06696C13.9595 5.08318 13.905 5.10226 13.8516 5.12411C13.7298 5.04578 13.5883 5.00335 13.4435 5.00167C13.3823 4.99734 13.3209 4.99734 13.2598 5.00167C13.2026 5.00167 13.1414 5.00167 13.072 5.00167C12.9965 5.00139 12.9213 4.99318 12.8475 4.97718H12.8149C12.792 4.97221 12.7683 4.97221 12.7455 4.97718C12.7169 4.97718 12.7047 5.00983 12.7169 5.02616C12.7254 5.04272 12.7364 5.05786 12.7496 5.07105C12.5849 5.09597 12.4244 5.14265 12.272 5.20983C12.0394 5.32004 11.9088 5.4629 11.9088 5.618C11.9088 5.7731 12.0394 5.91596 12.272 6.02616C12.5441 6.1419 12.8376 6.19891 13.1333 6.1935C13.4302 6.19839 13.7249 6.14141 13.9986 6.02616C14.2312 5.92004 14.3577 5.7731 14.3577 5.618C14.3577 5.4629 14.2312 5.37717 14.0108 5.27104Z" fill="#44281F"/>
<path d="M13.9422 5.30786L13.9054 5.33643C13.8679 5.36807 13.8197 5.38413 13.7707 5.38132H13.7014C13.6724 5.37541 13.6464 5.35953 13.6279 5.33643C13.6218 5.3297 13.6185 5.32098 13.6185 5.31194C13.6185 5.30291 13.6218 5.29419 13.6279 5.28745C13.5228 5.306 13.4162 5.3142 13.3095 5.31194C13.1281 5.31776 12.9491 5.26944 12.7952 5.17316C12.334 5.24254 12.0034 5.43845 12.0034 5.67519C12.0034 5.91192 12.5054 6.19765 13.1258 6.19765C13.7462 6.19765 14.2524 5.9609 14.2524 5.67519C14.2524 5.52825 14.134 5.40174 13.9422 5.30786Z" fill="#FE7C2E"/>
<path d="M13.9419 5.30786L13.9052 5.33643C13.8677 5.36807 13.8194 5.38413 13.7705 5.38132H13.7011C13.6721 5.37541 13.6461 5.35953 13.6276 5.33643C13.6216 5.3297 13.6182 5.32098 13.6182 5.31194C13.6182 5.30291 13.6216 5.29419 13.6276 5.28745C13.5225 5.306 13.4159 5.3142 13.3092 5.31194C13.1278 5.31776 12.9488 5.26944 12.7949 5.17316L12.697 5.19356C12.8799 5.30885 13.0931 5.36712 13.3092 5.36092C13.384 5.36522 13.459 5.36522 13.5337 5.36092C13.5646 5.39908 13.608 5.4251 13.6562 5.43439C13.6942 5.4386 13.7325 5.4386 13.7705 5.43439C13.834 5.43527 13.897 5.42128 13.9542 5.39356C14.0079 5.41914 14.0541 5.4581 14.0884 5.50671C14.1227 5.55531 14.144 5.61195 14.1501 5.67113C14.1501 5.92827 13.6929 6.1405 13.1256 6.1405C12.8402 6.15109 12.5552 6.1096 12.2847 6.01806C12.548 6.13977 12.8356 6.19979 13.1256 6.19356C13.7501 6.19356 14.2521 5.95684 14.2521 5.67113C14.2521 5.52827 14.1337 5.40174 13.9419 5.30786Z" fill="#E0651B"/>
<path d="M13.6844 5.7608C13.6558 5.7608 13.6313 5.7608 13.6313 5.78529C13.6313 5.80978 13.6558 5.80978 13.6844 5.80978C13.713 5.80978 13.7334 5.80978 13.7334 5.78529C13.7334 5.7608 13.7048 5.7608 13.6844 5.7608Z" fill="#E0651B"/>
<path d="M13.3786 5.82623C13.3501 5.82623 13.3297 5.82623 13.3297 5.85072C13.3297 5.87521 13.3297 5.87524 13.3786 5.87524C13.4276 5.87524 13.4276 5.87521 13.4276 5.85072C13.4276 5.82623 13.4072 5.82623 13.3786 5.82623Z" fill="#E0651B"/>
<path d="M13.3786 5.97711C13.3501 5.97711 13.3297 5.97711 13.3297 6.0016C13.3297 6.02609 13.3297 6.02609 13.3786 6.02609C13.4276 6.02609 13.4276 6.02609 13.4276 6.0016C13.4276 5.97711 13.4072 5.97711 13.3786 5.97711Z" fill="#E0651B"/>
<path d="M13.0758 6.02614C13.0472 6.02614 13.0268 6.02614 13.0268 6.05063C13.0268 6.07512 13.0268 6.0792 13.0758 6.0792C13.1248 6.0792 13.1248 6.0792 13.1248 6.05063C13.1248 6.02206 13.1044 6.02614 13.0758 6.02614Z" fill="#E0651B"/>
<path d="M13.9781 5.57721C13.9537 5.57721 13.9292 5.57721 13.9292 5.6017C13.9292 5.62619 13.9537 5.62619 13.9781 5.62619C14.0026 5.62619 14.0312 5.62619 14.0312 5.6017C14.0312 5.57721 14.0067 5.57721 13.9781 5.57721Z" fill="#E0651B"/>
<path d="M13.9781 5.72418C13.9537 5.72418 13.9292 5.72419 13.9292 5.75276C13.9292 5.78133 13.9537 5.77725 13.9781 5.77725C14.0026 5.77725 14.0312 5.77725 14.0312 5.75276C14.0312 5.72827 14.0067 5.72418 13.9781 5.72418Z" fill="#E0651B"/>
<path d="M13.6844 5.92828C13.6558 5.92828 13.6313 5.92828 13.6313 5.95277C13.6313 5.97726 13.6558 5.97729 13.6844 5.97729C13.713 5.97729 13.7334 5.97726 13.7334 5.95277C13.7334 5.92828 13.7048 5.92828 13.6844 5.92828Z" fill="#E0651B"/>
<path d="M13.7697 5.3284H13.7453C13.7208 5.3284 13.7126 5.3039 13.7248 5.29165C13.8269 5.21527 13.9416 5.15727 14.0636 5.12023C14.0859 5.11137 14.1107 5.11137 14.133 5.12023C14.133 5.12023 14.133 5.14473 14.133 5.15289C14.024 5.18448 13.9216 5.23565 13.831 5.30391C13.8234 5.31248 13.8139 5.31917 13.8033 5.32342C13.7926 5.32767 13.7811 5.32937 13.7697 5.3284Z" fill="#5EAC41"/>
<path d="M13.3091 5.2549C13.2164 5.26231 13.1233 5.24893 13.0364 5.21574C12.9496 5.18255 12.8712 5.13038 12.8071 5.06305C13.0158 5.09005 13.227 5.09005 13.4357 5.06305C13.5555 5.06323 13.6723 5.10029 13.7704 5.16918C13.6269 5.23792 13.4677 5.26751 13.3091 5.2549Z" fill="#5EAC41"/>
<path d="M14.3213 7.39356L14.207 7.2752C14.1974 7.26561 14.1859 7.2581 14.1732 7.25318C14.1606 7.24826 14.147 7.24604 14.1335 7.24663C14.1206 7.24636 14.1078 7.24876 14.0958 7.25368C14.0839 7.25859 14.0731 7.26592 14.0641 7.2752C14.0329 7.30524 13.9956 7.32837 13.9548 7.34314C13.914 7.3579 13.8706 7.36395 13.8274 7.3609C13.7016 7.35266 13.577 7.33077 13.4559 7.2956C13.2634 7.23932 13.0646 7.20779 12.8641 7.20173C12.7344 7.20118 12.6052 7.21902 12.4805 7.25477C12.4022 7.27898 12.3269 7.31186 12.2559 7.35275C12.2498 7.33264 12.2374 7.31502 12.2205 7.30253C12.2036 7.29003 12.1831 7.28331 12.1621 7.28335H12.0029C11.9765 7.28333 11.9512 7.29353 11.9321 7.3118C11.9131 7.33006 11.9019 7.35495 11.9008 7.3813V8.26703C11.9019 8.29338 11.9131 8.3183 11.9321 8.33656C11.9512 8.35483 11.9765 8.36501 12.0029 8.36499H12.1621C12.1884 8.36501 12.2138 8.35483 12.2328 8.33656C12.2519 8.3183 12.2631 8.29338 12.2641 8.26703C12.263 8.23066 12.2701 8.19448 12.2849 8.16126C12.2998 8.12803 12.322 8.09861 12.3498 8.07518C12.3998 8.03064 12.4628 8.00344 12.5294 7.99763H12.6151C12.7538 8.00422 12.891 8.02891 13.0233 8.0711L13.1988 8.11602C13.0002 8.25248 12.8227 8.41751 12.6723 8.60579C12.4719 8.88162 12.3686 9.21605 12.3784 9.55682C12.3795 9.58317 12.3907 9.60809 12.4097 9.62635C12.4287 9.64461 12.4541 9.6548 12.4805 9.65477H13.7661C13.7921 9.65477 13.8171 9.64447 13.8354 9.6261C13.8538 9.60773 13.8641 9.5828 13.8641 9.55682C13.8512 9.17738 13.8841 8.79779 13.9621 8.42622C14.0488 8.10704 14.1749 7.79989 14.3376 7.51192C14.349 7.49336 14.3537 7.47141 14.3507 7.44981C14.3477 7.42821 14.3373 7.40832 14.3213 7.39356Z" fill="#44281F"/>
<path d="M12.8685 7.316C12.613 7.30804 12.3633 7.39368 12.1665 7.55683V7.39355H12.0073V8.27926H12.1665C12.1693 8.18374 12.2077 8.09273 12.2742 8.02403C12.3406 7.95533 12.4303 7.9139 12.5257 7.90784C12.8808 7.87111 13.1501 8.05886 13.4685 8.05886C13.0971 8.34866 12.4889 8.65478 12.4889 9.56498H13.7746C13.7199 8.83569 13.8879 8.10697 14.2563 7.47519L14.1379 7.35681C13.8359 7.64252 13.4032 7.316 12.8685 7.316Z" fill="url(#paint16_linear_1_10246)"/>
<path d="M12.8685 7.316C12.613 7.30804 12.3633 7.39368 12.1665 7.55683V7.39355H12.0073V8.27926H12.1665C12.1693 8.18374 12.2077 8.09273 12.2742 8.02403C12.3406 7.95533 12.4303 7.9139 12.5257 7.90784C12.8808 7.87111 13.1501 8.05886 13.4685 8.05886C13.1452 8.25054 12.8668 8.50944 12.6522 8.81804H12.8032C13.1446 8.81962 13.484 8.76446 13.8073 8.65479C13.8805 8.23777 14.0269 7.83701 14.2399 7.4711L14.1216 7.35275C13.8358 7.64254 13.4032 7.316 12.8685 7.316Z" fill="url(#paint17_linear_1_10246)"/>
<path d="M13.3665 7.95284C13.2709 7.93885 13.1768 7.91702 13.0849 7.88754C12.9332 7.83718 12.7752 7.80832 12.6155 7.80182H12.5093C12.4148 7.81193 12.3274 7.85676 12.264 7.92765C12.2007 7.99854 12.1659 8.09043 12.1665 8.18549H12.0073V8.28753H12.1665C12.1693 8.19201 12.2077 8.10098 12.2742 8.03228C12.3406 7.96358 12.4303 7.92217 12.5257 7.91612C12.8808 7.87938 13.1501 8.06713 13.4685 8.06713L13.591 7.96509C13.5159 7.96743 13.4408 7.96332 13.3665 7.95284Z" fill="url(#paint18_linear_1_10246)"/>
<path d="M14.1783 7.39362C14.1497 7.4426 14.1293 7.48749 14.1293 7.48749C13.7913 8.08595 13.6313 8.76851 13.6681 9.45484H12.4885C12.4864 9.48882 12.4864 9.5229 12.4885 9.55688H13.7742C13.7195 8.82758 13.8875 8.09886 14.2559 7.46708L14.1783 7.39362Z" fill="url(#paint19_linear_1_10246)"/>
<path d="M11.3054 5.26715H8.55031V11.606H11.3054V5.26715Z" fill="url(#paint20_linear_1_10246)"/>
<path d="M11.1702 10.9445C11.169 10.8966 11.1547 10.8499 11.1288 10.8096C11.1028 10.7693 11.0663 10.7369 11.0232 10.716H11.0763C11.1049 10.716 11.1253 10.716 11.1212 10.6874C11.1133 10.6823 11.1041 10.6796 11.0947 10.6796C11.0853 10.6796 11.076 10.6823 11.0681 10.6874C11.026 10.6839 10.9837 10.6839 10.9416 10.6874C10.7941 10.6278 10.6352 10.6013 10.4763 10.6098C10.3501 10.6137 10.2244 10.6287 10.1008 10.6547C10.0416 10.6634 9.98305 10.6757 9.92534 10.6915H9.77841C9.53294 10.703 9.29186 10.7612 9.06816 10.8629C8.98944 10.8942 8.91842 10.9421 8.85994 11.0034C8.80147 11.0647 8.75695 11.1379 8.7294 11.218C8.71214 11.2885 8.72238 11.3629 8.758 11.4262C8.77105 11.4557 8.77778 11.4877 8.77778 11.52C8.77778 11.5524 8.77105 11.5844 8.758 11.6139C8.758 11.6139 8.758 11.6139 8.758 11.6384C8.758 11.6629 8.79474 11.7282 8.86004 11.7609C8.9356 11.7951 9.01791 11.8118 9.10085 11.8098H9.30084C9.37417 11.8035 9.44793 11.8035 9.52127 11.8098C9.61776 11.816 9.71455 11.816 9.81105 11.8098H9.94164C10.1877 11.8023 10.4295 11.744 10.6518 11.6384C10.7302 11.6078 10.8011 11.5606 10.8596 11.5C10.9181 11.4394 10.9628 11.3669 10.9906 11.2874C10.9946 11.2631 10.9946 11.2382 10.9906 11.2139C11.0813 11.149 11.1452 11.0532 11.1702 10.9445Z" fill="#44281F"/>
<path d="M10.8561 11.2506C10.8561 11.2506 10.4889 11.1282 10.4889 10.9486C10.4938 10.9112 10.5079 10.8755 10.53 10.8449C10.5521 10.8143 10.5814 10.7896 10.6153 10.7731H10.6439H10.5623C10.4498 10.7874 10.336 10.7874 10.2235 10.7731C10.0804 10.7517 9.93541 10.7448 9.79087 10.7527C9.28475 10.7812 8.88476 10.9813 8.82761 11.2302C8.81412 11.2956 8.82428 11.3635 8.85621 11.4221C8.87025 11.455 8.87749 11.4904 8.87749 11.5261C8.87749 11.5619 8.87025 11.5973 8.85621 11.6302C8.85923 11.6494 8.8672 11.6674 8.87938 11.6824C8.89156 11.6974 8.90749 11.709 8.92557 11.716C8.97938 11.7405 9.03789 11.753 9.09702 11.7527H9.13374C9.26943 11.7387 9.4062 11.7387 9.5419 11.7527C9.66813 11.7651 9.79529 11.7651 9.92151 11.7527C10.4276 11.7241 10.8276 11.5241 10.8847 11.271C10.8847 11.271 10.8847 11.271 10.8847 11.2425C10.8756 11.2465 10.866 11.2492 10.8561 11.2506Z" fill="#FFCE33"/>
<path d="M10.8563 11.2505C10.8563 11.2505 10.489 11.1281 10.489 10.9485C10.489 11.1199 10.6971 11.2505 10.7992 11.3036C10.7339 11.5199 10.3911 11.7118 9.93391 11.7118H9.8237C9.74484 11.7158 9.66579 11.7158 9.58693 11.7118C9.49637 11.6986 9.40502 11.6918 9.3135 11.6914H9.13388C9.03592 11.6914 8.89716 11.6546 8.89308 11.626C8.89308 11.6587 8.92167 11.6873 8.96248 11.7077C9.01629 11.7322 9.07475 11.7447 9.13388 11.7444H9.1706C9.30629 11.7304 9.44307 11.7304 9.57876 11.7444C9.70499 11.7568 9.83215 11.7568 9.95838 11.7444C10.4645 11.7158 10.8645 11.5158 10.9216 11.2628C10.9216 11.2628 10.9216 11.2628 10.9216 11.2342C10.9021 11.2463 10.8792 11.252 10.8563 11.2505Z" fill="#FFB329"/>
<path d="M10.9086 10.728C10.7617 10.728 10.5903 10.8423 10.5903 10.9485C10.5903 11.0546 10.9086 11.2097 10.9086 11.2097C10.9086 11.2097 11.0719 11.075 11.0719 10.9444C11.0719 10.8138 11.0352 10.7933 10.9086 10.728Z" fill="#5EAC41"/>
<path d="M10.8277 10.7485H10.8563C10.9501 10.8015 10.9869 10.8505 10.9869 10.9321C10.9685 11.0232 10.9195 11.1053 10.8481 11.1648L10.9257 11.1975C10.9257 11.1975 11.0889 11.0628 11.0889 10.9321C11.0889 10.8015 11.0522 10.7811 10.9257 10.7158C10.8918 10.7225 10.8588 10.7335 10.8277 10.7485Z" fill="#3F8724"/>
<path d="M10.4763 10.6587C10.3598 10.6627 10.2437 10.6763 10.1294 10.6995H10.2559C10.3048 10.7039 10.354 10.7039 10.4028 10.6995H10.5417H10.6233H10.7375H10.8191C10.7082 10.6657 10.5921 10.6519 10.4763 10.6587Z" fill="#3F8724"/>
<path d="M10.0107 11.2099C10.0107 11.2099 9.98626 11.2344 9.95769 11.2344C9.92912 11.2344 9.90871 11.2344 9.90871 11.2099C9.90871 11.1854 9.90871 11.1854 9.95769 11.1854C10.0067 11.1854 10.0107 11.1977 10.0107 11.2099Z" fill="#FFB329"/>
<path d="M10.0965 11.4099C10.0965 11.4099 10.0965 11.4343 10.0475 11.4343C9.99855 11.4343 9.99855 11.4343 9.99855 11.4099C9.99855 11.3854 9.99855 11.3854 10.0475 11.3854C10.0965 11.3854 10.0965 11.3976 10.0965 11.4099Z" fill="#FFB329"/>
<path d="M9.39454 11.5119C9.39454 11.5119 9.37005 11.5364 9.34556 11.5364C9.32107 11.5364 9.2925 11.5364 9.2925 11.5119C9.2925 11.4874 9.31699 11.4874 9.34556 11.4874C9.37413 11.4874 9.39454 11.4956 9.39454 11.5119Z" fill="#FFB329"/>
<path d="M10.501 11.4751C10.501 11.4751 10.4765 11.4996 10.4479 11.4996C10.4193 11.4996 10.3989 11.4996 10.3989 11.4751C10.3989 11.4506 10.3989 11.4465 10.4479 11.4465C10.4969 11.4465 10.501 11.4465 10.501 11.4751Z" fill="#FFB329"/>
<path d="M10.0107 11.5609C10.0107 11.5609 9.98626 11.5854 9.95769 11.5854C9.92912 11.5854 9.90871 11.5854 9.90871 11.5609C9.90871 11.5364 9.90871 11.5364 9.95769 11.5364C10.0067 11.5364 10.0107 11.5486 10.0107 11.5609Z" fill="#FFB329"/>
<path d="M10.4189 11.2589C10.4189 11.2589 10.3945 11.2834 10.37 11.2834C10.3455 11.2834 10.3169 11.2834 10.3169 11.2589C10.3169 11.2344 10.3414 11.2344 10.37 11.2344C10.3985 11.2344 10.4189 11.2466 10.4189 11.2589Z" fill="#FFB329"/>
<path d="M10.509 5.57717H10.4559C10.4404 5.53961 10.4321 5.49945 10.4314 5.45881C10.4893 5.48471 10.5494 5.50519 10.611 5.52002C10.7626 5.55177 10.9173 5.56685 11.0722 5.56493C11.0951 5.56955 11.1187 5.56955 11.1416 5.56493C11.1416 5.56493 11.1702 5.54043 11.1702 5.52819C11.1702 5.34043 10.9783 5.23841 10.8151 5.18535L10.6967 5.15269C10.7375 5.13228 10.7538 5.09962 10.7294 5.07105C10.6906 5.03878 10.6409 5.0227 10.5906 5.02616H10.5294L10.2518 5.09962C9.87278 5.08689 9.4935 5.117 9.12121 5.18941C9.01025 5.20884 8.9062 5.25666 8.81918 5.32819C8.78827 5.35331 8.76344 5.38505 8.74648 5.42109C8.72952 5.45713 8.72088 5.49654 8.72122 5.53636C8.72122 5.55677 8.74572 5.57309 8.77837 5.58125H8.82326C8.84486 5.58515 8.86699 5.58515 8.88858 5.58125C9.01802 5.52666 9.15635 5.49624 9.29674 5.49147H9.38244H9.57023L9.49674 5.55676H9.3947C9.03143 5.55676 8.73348 5.70778 8.73348 5.88737C8.73348 6.06697 9.03143 6.22207 9.3947 6.22207C9.58208 6.22861 9.7675 6.1819 9.92942 6.08737C10.0971 6.21991 10.308 6.28538 10.5212 6.27105C10.8885 6.27105 11.1824 6.12411 11.1824 5.94044C11.1824 5.75676 10.8763 5.57717 10.509 5.57717ZM9.9784 5.70778C9.91711 5.65241 9.84476 5.61068 9.76614 5.58534C9.88137 5.47907 10.0121 5.39098 10.1539 5.32411C10.1212 5.41654 10.1212 5.51739 10.1539 5.60983C10.0916 5.63512 10.0326 5.66802 9.9784 5.70778Z" fill="#44281F"/>
<path d="M10.6195 5.17731C10.5554 5.20932 10.5016 5.25884 10.4644 5.32015C10.452 5.34157 10.4438 5.36512 10.44 5.38956C10.6364 5.48552 10.8543 5.5291 11.0725 5.51609C11.0725 5.32017 10.8276 5.2222 10.6195 5.17731Z" fill="#5EAC41"/>
<path d="M10.6195 5.17731C10.5554 5.20932 10.5016 5.25884 10.4644 5.32015C10.452 5.34157 10.4438 5.36512 10.44 5.38956C10.4692 5.40847 10.5007 5.42355 10.5338 5.43445C10.538 5.38245 10.5572 5.33278 10.589 5.29148C10.6209 5.25018 10.6641 5.21902 10.7133 5.2018L10.6195 5.17731Z" fill="#3F8724"/>
<path d="M10.358 5.58553C10.3298 5.52174 10.3233 5.45043 10.3395 5.38259C10.3557 5.31475 10.3938 5.25413 10.4478 5.21002C10.3937 5.22595 10.3406 5.24501 10.2887 5.26715C10.2566 5.31624 10.2372 5.37252 10.2323 5.43092C10.2273 5.48932 10.2368 5.54803 10.2601 5.60184L10.358 5.58553Z" fill="#81492E"/>
<path d="M10.2884 5.26715C10.2708 5.29216 10.257 5.31969 10.2476 5.34878L10.3741 5.29572C10.3937 5.26329 10.4185 5.23434 10.4476 5.21002C10.3934 5.22595 10.3403 5.24501 10.2884 5.26715Z" fill="#693822"/>
<path d="M10.3543 5.58542V5.53644H10.2563C10.2551 5.5541 10.2551 5.57184 10.2563 5.5895L10.3543 5.58542Z" fill="#693822"/>
<path d="M10.6361 5.07928C10.626 5.07392 10.6148 5.07111 10.6034 5.07111C10.592 5.07111 10.5808 5.07392 10.5708 5.07928C10.4973 5.07928 10.432 5.11193 10.3667 5.12825C10.3871 5.12825 10.3871 5.16091 10.3667 5.17723C10.4494 5.14824 10.5339 5.12506 10.6197 5.10785C10.6361 5.10377 10.6483 5.09152 10.6361 5.07928Z" fill="#81492E"/>
<path d="M9.6803 5.56079C9.73046 5.51095 9.78512 5.46586 9.84358 5.42609C9.79396 5.43821 9.74347 5.44639 9.69256 5.45058C9.65566 5.47865 9.62023 5.50863 9.58644 5.54038L9.6803 5.56079Z" fill="#693822"/>
<path d="M9.84824 5.90792C9.85073 5.85247 9.87407 5.8 9.91356 5.76099C9.84294 5.69488 9.75919 5.64436 9.66778 5.61271C9.57636 5.58107 9.47931 5.56901 9.38293 5.57731C9.07273 5.57731 8.82375 5.69976 8.82375 5.85486C8.82375 6.00996 9.07273 6.1365 9.38293 6.1365C9.55682 6.14363 9.72846 6.09502 9.87276 5.99773C9.85719 5.97033 9.84874 5.93944 9.84824 5.90792Z" fill="#F0323A"/>
<path d="M9.84792 5.90782C9.85041 5.85236 9.87375 5.7999 9.91324 5.76089C9.89878 5.74024 9.88082 5.72229 9.86018 5.70782C9.82689 5.72998 9.79921 5.7596 9.77937 5.79432C9.75953 5.82904 9.74807 5.86789 9.74588 5.90782C9.74203 5.9349 9.74203 5.96238 9.74588 5.98946C9.63149 6.05814 9.49966 6.09216 9.36632 6.08741C9.11326 6.08741 8.80714 5.98537 8.80714 5.85476C8.80714 6.00986 9.05612 6.13639 9.36632 6.13639C9.50764 6.13993 9.6477 6.10913 9.77448 6.04661L9.84792 5.99763C9.84066 5.96814 9.84066 5.93731 9.84792 5.90782Z" fill="#C9181F"/>
<path d="M10.5091 6.1854C10.8201 6.1854 11.0723 6.0593 11.0723 5.90376C11.0723 5.74822 10.8201 5.62213 10.5091 5.62213C10.198 5.62213 9.94582 5.74822 9.94582 5.90376C9.94582 6.0593 10.198 6.1854 10.5091 6.1854Z" fill="#F0323A"/>
<path d="M10.5091 6.13635C10.256 6.13635 9.94582 6.03431 9.94582 5.90778C9.94582 6.06288 10.1989 6.18941 10.5091 6.18941C10.8192 6.18941 11.0723 6.06288 11.0723 5.90778C11.0723 6.03431 10.7621 6.13635 10.5091 6.13635Z" fill="#C9181F"/>
<path d="M9.27272 5.43031C9.63269 5.46458 9.99246 5.36262 10.2809 5.14459C9.24827 5.14459 8.82783 5.23031 8.82375 5.52827C8.96642 5.46925 9.11844 5.43609 9.27272 5.43031Z" fill="#5EAC41"/>
<path d="M11.1249 7.39356L11.0066 7.2752C10.9975 7.26607 10.9867 7.25882 10.9748 7.25388C10.9629 7.24893 10.9501 7.24638 10.9372 7.24638C10.9243 7.24638 10.9115 7.24893 10.8996 7.25388C10.8877 7.25882 10.8769 7.26607 10.8678 7.2752C10.8362 7.30483 10.799 7.3277 10.7583 7.34244C10.7176 7.35718 10.6743 7.36346 10.6311 7.3609C10.504 7.3527 10.3781 7.33081 10.2556 7.2956C10.0632 7.23902 9.86427 7.20747 9.66377 7.20173C9.53536 7.20118 9.4075 7.21903 9.28416 7.25477C9.20564 7.27822 9.13029 7.31113 9.0597 7.35275C9.05303 7.33297 9.04041 7.31571 9.02363 7.3033C9.00684 7.29089 8.98666 7.28392 8.96579 7.28335H8.80256C8.77658 7.28335 8.75162 7.29367 8.73325 7.31205C8.71488 7.33042 8.70461 7.35532 8.70461 7.3813V8.26703C8.70461 8.29301 8.71488 8.31792 8.73325 8.33629C8.75162 8.35466 8.77658 8.36499 8.80256 8.36499H8.96579C8.99177 8.36499 9.01673 8.35466 9.0351 8.33629C9.05347 8.31792 9.0638 8.29301 9.0638 8.26703C9.06251 8.23023 9.06995 8.19366 9.08556 8.16031C9.10117 8.12696 9.12449 8.09777 9.15357 8.07518C9.203 8.02986 9.26626 8.00253 9.33315 7.99763H9.4148C9.55348 8.00422 9.69069 8.02891 9.82296 8.0711L9.99846 8.11602C9.79798 8.2502 9.62026 8.41553 9.47195 8.60579C9.26991 8.88077 9.16635 9.2158 9.17803 9.55682C9.17803 9.5828 9.18836 9.60773 9.20673 9.6261C9.2251 9.64447 9.25001 9.65477 9.27599 9.65477H10.5617C10.588 9.6548 10.6134 9.64461 10.6324 9.62635C10.6514 9.60809 10.6627 9.58317 10.6637 9.55682C10.6508 9.17738 10.6837 8.79779 10.7617 8.42622C10.8468 8.10714 10.9716 7.79996 11.1331 7.51192C11.1449 7.49401 11.1505 7.47273 11.149 7.45135C11.1475 7.42997 11.1391 7.40968 11.1249 7.39356Z" fill="#44281F"/>
<path d="M9.66446 7.31593C9.41025 7.30859 9.16206 7.39422 8.96647 7.55675V7.39348H8.80324V8.27919H8.96647C8.96832 8.18403 9.00588 8.09305 9.07165 8.02426C9.13742 7.95547 9.22664 7.91389 9.32162 7.90777C9.6808 7.87103 9.95016 8.05879 10.2644 8.05879C9.89302 8.34858 9.28485 8.65471 9.28485 9.56491H10.5706C10.5159 8.83562 10.6838 8.1069 11.0522 7.47512L10.9379 7.35673C10.6358 7.64245 10.2073 7.31593 9.66446 7.31593Z" fill="url(#paint21_linear_1_10246)"/>
<path d="M9.66446 7.31593C9.41025 7.30859 9.16206 7.39422 8.96647 7.55675V7.39348H8.80324V8.27919H8.96647C8.96832 8.18403 9.00588 8.09305 9.07165 8.02426C9.13742 7.95547 9.22664 7.91389 9.32162 7.90777C9.6808 7.87103 9.95016 8.05879 10.2644 8.05879C9.94834 8.25259 9.67706 8.51136 9.46855 8.81796H9.61957C9.96094 8.81887 10.3001 8.76373 10.6236 8.65471C10.6889 8.2392 10.8271 7.83847 11.0317 7.47103L10.9175 7.35267C10.6358 7.64247 10.2073 7.31593 9.66446 7.31593Z" fill="url(#paint22_linear_1_10246)"/>
<path d="M10.1704 7.95284C10.0736 7.93842 9.97807 7.9166 9.88465 7.88754C9.73305 7.83681 9.57504 7.80793 9.4153 7.80182H9.31326C9.21873 7.81193 9.13132 7.85676 9.06797 7.92765C9.00462 7.99854 8.96982 8.09043 8.97036 8.18549H8.80714V8.28753H8.97036C8.97221 8.19238 9.00977 8.1014 9.07554 8.03261C9.14131 7.96381 9.23049 7.92224 9.32546 7.91612C9.68465 7.87938 9.95406 8.06713 10.2683 8.06713L10.3908 7.96509C10.3171 7.96746 10.2434 7.96335 10.1704 7.95284Z" fill="url(#paint23_linear_1_10246)"/>
<path d="M10.9824 7.39362L10.9294 7.48749C10.5909 8.08562 10.4322 8.76873 10.4723 9.45484H9.28859C9.28859 9.48749 9.28859 9.52014 9.28859 9.55688H10.5743C10.5196 8.82758 10.6875 8.09886 11.0559 7.46708L10.9824 7.39362Z" fill="url(#paint24_linear_1_10246)"/>
<path d="M4.9214 4.83844V12.0385L5.35405 11.6098V5.26701H8.10507V11.6098H8.55405V5.26701H11.305V11.6098H11.7499V5.26701H14.505V11.6098L14.9336 12.0385V4.83844H4.9214Z" fill="url(#paint25_linear_1_10246)"/>
<path d="M4.9214 12.0384L5.35405 11.6099H14.505L14.9336 12.0384H4.9214Z" fill="#FFEAB0"/>
<path style="mix-blend-mode:multiply" d="M14.5046 5.26715H11.7495V11.606H14.5046V5.26715Z" fill="url(#paint26_linear_1_10246)"/>
<path style="mix-blend-mode:multiply" d="M8.10913 5.26715H5.35402V11.606H8.10913V5.26715Z" fill="url(#paint27_linear_1_10246)"/>
<path style="mix-blend-mode:multiply" d="M11.3054 5.26715H8.55031V11.606H11.3054V5.26715Z" fill="url(#paint28_linear_1_10246)"/>
<path d="M17.7166 13.9119H2.2064L0.573746 17.5853H19.3492L17.7166 13.9119Z" fill="url(#paint29_radial_1_10246)"/>
<path d="M15.0145 16.7815C14.1982 16.7815 13.5288 16.406 13.5288 15.9284C13.5288 15.4509 14.1818 15.0795 15.0145 15.0795C15.8472 15.0795 16.4961 15.4509 16.4961 15.9284C16.4961 16.406 15.8431 16.7815 15.0145 16.7815Z" fill="url(#paint30_linear_1_10246)"/>
<path d="M15.0145 16.7159C14.1982 16.7159 13.5288 16.3404 13.5288 15.8628C13.5288 15.3853 14.1818 15.0098 15.0145 15.0098C15.8472 15.0098 16.4961 15.3853 16.4961 15.8628C16.4961 16.3404 15.8431 16.7159 15.0145 16.7159Z" fill="url(#paint31_linear_1_10246)"/>
<path d="M15.0141 16.4876C14.263 16.4876 13.6753 16.1774 13.6753 15.7856C13.6753 15.3937 14.263 15.0795 15.0141 15.0795C15.7651 15.0795 16.3488 15.3897 16.3488 15.7856C16.3488 16.1815 15.761 16.4876 15.0141 16.4876Z" fill="url(#paint32_linear_1_10246)"/>
<path d="M13.8139 16.0997C14.1623 16.3523 14.5816 16.4883 15.0119 16.4883C15.4422 16.4883 15.8615 16.3523 16.2099 16.0997V15.6915H13.8139V16.0997Z" fill="url(#paint33_linear_1_10246)"/>
<path d="M15.014 16.3487C14.365 16.3487 13.8139 16.0875 13.8139 15.7855V15.3773H16.2099V15.7855C16.2099 16.0875 15.6629 16.3487 15.014 16.3487Z" fill="url(#paint34_radial_1_10246)"/>
<path d="M15.014 15.9649C14.365 15.9649 13.8139 15.7078 13.8139 15.4017C13.8139 15.0955 14.2956 14.8384 15.014 14.8384C15.7323 14.8384 16.2099 15.1282 16.2099 15.4017C16.2099 15.6751 15.6629 15.9649 15.014 15.9649Z" fill="url(#paint35_linear_1_10246)"/>
<path d="M11.235 16.7815C10.4187 16.7815 9.75343 16.406 9.75343 15.9284C9.75343 15.4509 10.4024 15.0795 11.235 15.0795C12.0677 15.0795 12.7167 15.4509 12.7167 15.9284C12.7167 16.406 12.0513 16.7815 11.235 16.7815Z" fill="url(#paint36_linear_1_10246)"/>
<path d="M11.235 16.7159C10.4187 16.7159 9.75343 16.3404 9.75343 15.8628C9.75343 15.3853 10.4024 15.0098 11.235 15.0098C12.0677 15.0098 12.7167 15.3853 12.7167 15.8628C12.7167 16.3404 12.0513 16.7159 11.235 16.7159Z" fill="url(#paint37_linear_1_10246)"/>
<path d="M11.2346 16.4876C10.4836 16.4876 9.89992 16.1774 9.89992 15.7856C9.89992 15.3937 10.4836 15.0795 11.2346 15.0795C11.9856 15.0795 12.5734 15.3897 12.5734 15.7856C12.5734 16.1815 11.9774 16.4876 11.2346 16.4876Z" fill="url(#paint38_linear_1_10246)"/>
<path d="M10.0308 16.0997C10.3788 16.3513 10.7972 16.4868 11.2266 16.4868C11.6561 16.4868 12.0746 16.3513 12.4226 16.0997V15.6915H10.0308V16.0997Z" fill="url(#paint39_linear_1_10246)"/>
<path d="M11.2345 16.3487C10.5855 16.3487 10.0386 16.0875 10.0386 15.7855V15.3773H12.4304V15.7855C12.4223 16.0875 11.8753 16.3487 11.2345 16.3487Z" fill="url(#paint40_radial_1_10246)"/>
<path d="M11.2345 15.9649C10.5855 15.9649 10.0386 15.7078 10.0386 15.4017C10.0386 15.0955 10.5202 14.8384 11.2345 14.8384C11.9488 14.8384 12.4304 15.1282 12.4304 15.4017C12.4304 15.6751 11.8753 15.9649 11.2345 15.9649Z" fill="url(#paint41_linear_1_10246)"/>
<path d="M7.99789 16.7815C7.18156 16.7815 6.51222 16.406 6.51222 15.9284C6.51222 15.4509 7.16523 15.0795 7.99789 15.0795C8.83054 15.0795 9.47952 15.4509 9.47952 15.9284C9.47952 16.406 8.83054 16.7815 7.99789 16.7815Z" fill="url(#paint42_linear_1_10246)"/>
<path d="M7.99789 16.7159C7.18156 16.7159 6.51222 16.3404 6.51222 15.8628C6.51222 15.3853 7.16523 15.0098 7.99789 15.0098C8.83054 15.0098 9.47952 15.3853 9.47952 15.8628C9.47952 16.3404 8.83054 16.7159 7.99789 16.7159Z" fill="url(#paint43_linear_1_10246)"/>
<path d="M7.99842 16.4876C7.24739 16.4876 6.65968 16.1774 6.65968 15.7856C6.65968 15.3937 7.24739 15.0795 7.99842 15.0795C8.74944 15.0795 9.33312 15.3897 9.33312 15.7856C9.33312 16.1815 8.74535 16.4876 7.99842 16.4876Z" fill="url(#paint44_linear_1_10246)"/>
<path d="M6.79836 16.0997C7.14673 16.3523 7.56599 16.4883 7.99629 16.4883C8.42659 16.4883 8.84591 16.3523 9.19428 16.0997V15.6915H6.79836V16.0997Z" fill="url(#paint45_linear_1_10246)"/>
<path d="M7.99834 16.3487C7.34936 16.3487 6.79836 16.0875 6.79836 15.7855V15.3773H9.19428V15.7855C9.19428 16.0875 8.64732 16.3487 7.99834 16.3487Z" fill="url(#paint46_radial_1_10246)"/>
<path d="M7.99834 15.9649C7.34936 15.9649 6.79836 15.7078 6.79836 15.4017C6.79836 15.0955 7.27997 14.8384 7.99834 14.8384C8.7167 14.8384 9.19428 15.1282 9.19428 15.4017C9.19428 15.6751 8.64732 15.9649 7.99834 15.9649Z" fill="url(#paint47_linear_1_10246)"/>
<path d="M4.76535 16.7815C3.94902 16.7815 3.28371 16.406 3.28371 15.9284C3.28371 15.4509 3.93677 15.0795 4.76535 15.0795C5.59392 15.0795 6.25107 15.4509 6.25107 15.9284C6.25107 16.406 5.598 16.7815 4.76535 16.7815Z" fill="url(#paint48_linear_1_10246)"/>
<path d="M4.76535 16.7159C3.94902 16.7159 3.28371 16.3404 3.28371 15.8628C3.28371 15.3853 3.93677 15.0098 4.76535 15.0098C5.59392 15.0098 6.25107 15.3853 6.25107 15.8628C6.25107 16.3404 5.598 16.7159 4.76535 16.7159Z" fill="url(#paint49_linear_1_10246)"/>
<path d="M4.76587 16.4876C4.01893 16.4876 3.43117 16.1774 3.43117 15.7856C3.43117 15.3937 4.01893 15.0795 4.76587 15.0795C5.51281 15.0795 6.10466 15.3897 6.10466 15.7856C6.10466 16.1815 5.52098 16.4876 4.76587 16.4876Z" fill="url(#paint50_linear_1_10246)"/>
<path d="M3.56984 16.0997C3.91821 16.3523 4.33753 16.4883 4.76783 16.4883C5.19813 16.4883 5.61739 16.3523 5.96576 16.0997V15.6915H3.56984V16.0997Z" fill="url(#paint51_linear_1_10246)"/>
<path d="M4.76578 16.3487C4.1168 16.3487 3.56984 16.0875 3.56984 15.7855V15.3773H5.96576V15.7855C5.96576 16.0875 5.41885 16.3487 4.76578 16.3487Z" fill="url(#paint52_radial_1_10246)"/>
<path d="M4.76578 15.9649C4.1168 15.9649 3.56984 15.7078 3.56984 15.4017C3.56984 15.0955 4.0515 14.8384 4.76578 14.8384C5.48007 14.8384 5.96576 15.1282 5.96576 15.4017C5.96576 15.6751 5.41885 15.9649 4.76578 15.9649Z" fill="url(#paint53_linear_1_10246)"/>
<path d="M0.573746 17.5856H19.3492V19.6264C19.3492 19.8518 19.1665 20.0345 18.941 20.0345H0.981909C0.756487 20.0345 0.573746 19.8518 0.573746 19.6264V17.5856Z" fill="url(#paint54_radial_1_10246)"/>
<path d="M14.2397 17.9935H5.2759C4.93342 17.9935 4.65578 18.2676 4.65578 18.6058C4.65578 18.9439 4.93342 19.218 5.2759 19.218H14.2397C14.5822 19.218 14.8598 18.9439 14.8598 18.6058C14.8598 18.2676 14.5822 17.9935 14.2397 17.9935Z" fill="#9F5E10"/>
</g>
</g>
</g>
<defs>
<radialGradient id="paint0_radial_1_10246" cx="0" cy="0" r="1" gradientUnits="userSpaceOnUse" gradientTransform="translate(19.0243 8.30042) scale(1.42637 3.58316)">
<stop stop-color="#FFFF53"/>
<stop offset="0.22" stop-color="#FFFC4F"/>
<stop offset="0.44" stop-color="#FFF143"/>
<stop offset="0.66" stop-color="#FFE12E"/>
<stop offset="0.88" stop-color="#FFC912"/>
<stop offset="1" stop-color="#FFBA00"/>
</radialGradient>
<radialGradient id="paint1_radial_1_10246" cx="0" cy="0" r="1" gradientUnits="userSpaceOnUse" gradientTransform="translate(19.5292 3.70257) scale(0.284944 3.95759)">
<stop stop-color="#FFB400"/>
<stop offset="0.23" stop-color="#FFB000"/>
<stop offset="0.47" stop-color="#FFA400"/>
<stop offset="0.72" stop-color="#FF8F00"/>
<stop offset="0.96" stop-color="#FF7300"/>
<stop offset="1" stop-color="#FF6D00"/>
</radialGradient>
<radialGradient id="paint2_radial_1_10246" cx="0" cy="0" r="1" gradientUnits="userSpaceOnUse" gradientTransform="translate(18.9812 2.17539) scale(1.70068)">
<stop stop-color="#D52730"/>
<stop offset="0.1" stop-color="#C8131F"/>
<stop offset="0.19" stop-color="#BF0615"/>
<stop offset="0.49" stop-color="#90030A"/>
<stop offset="0.76" stop-color="#680000"/>
</radialGradient>
<radialGradient id="paint3_radial_1_10246" cx="0" cy="0" r="1" gradientUnits="userSpaceOnUse" gradientTransform="translate(18.0762 8.11342) scale(0.570548 4.18036)">
<stop stop-color="#FFFF53"/>
<stop offset="0.22" stop-color="#FFFC4F"/>
<stop offset="0.44" stop-color="#FFF143"/>
<stop offset="0.66" stop-color="#FFE12E"/>
<stop offset="0.88" stop-color="#FFC912"/>
<stop offset="1" stop-color="#FFBA00"/>
</radialGradient>
<radialGradient id="paint4_radial_1_10246" cx="0" cy="0" r="1" gradientUnits="userSpaceOnUse" gradientTransform="translate(9.04491 6.25165) scale(10.8404 6.86773)">
<stop stop-color="#FFFF53"/>
<stop offset="0.22" stop-color="#FFFC4F"/>
<stop offset="0.44" stop-color="#FFF143"/>
<stop offset="0.66" stop-color="#FFE12E"/>
<stop offset="0.88" stop-color="#FFC912"/>
<stop offset="1" stop-color="#FFBA00"/>
</radialGradient>
<radialGradient id="paint5_radial_1_10246" cx="0" cy="0" r="1" gradientUnits="userSpaceOnUse" gradientTransform="translate(9.04491 1.99886) scale(10.8404 0.895791)">
<stop stop-color="#FFFF53"/>
<stop offset="0.22" stop-color="#FFFC4F"/>
<stop offset="0.44" stop-color="#FFF143"/>
<stop offset="0.66" stop-color="#FFE12E"/>
<stop offset="0.88" stop-color="#FFC912"/>
<stop offset="1" stop-color="#FFBA00"/>
</radialGradient>
<linearGradient id="paint6_linear_1_10246" x1="15.9342" y1="8.93236" x2="15.9342" y2="7.9446" gradientUnits="userSpaceOnUse">
<stop stop-color="#720101"/>
<stop offset="0.08" stop-color="#860102"/>
<stop offset="0.27" stop-color="#B70004"/>
<stop offset="0.45" stop-color="#DA0006"/>
<stop offset="0.59" stop-color="#EF0007"/>
<stop offset="0.69" stop-color="#F70007"/>
<stop offset="1" stop-color="#F70007"/>
</linearGradient>
<linearGradient id="paint7_linear_1_10246" x1="15.9333" y1="8.43848" x2="15.9333" y2="7.9446" gradientUnits="userSpaceOnUse">
<stop stop-color="#F7777A"/>
<stop offset="0.15" stop-color="#F66F72"/>
<stop offset="0.37" stop-color="#F45A5D"/>
<stop offset="0.65" stop-color="#F0373A"/>
<stop offset="0.97" stop-color="#EC0709"/>
<stop offset="1" stop-color="#EB0204"/>
</linearGradient>
<linearGradient id="paint8_linear_1_10246" x1="3.92192" y1="8.93241" x2="3.92192" y2="7.94464" gradientUnits="userSpaceOnUse">
<stop stop-color="#720101"/>
<stop offset="0.08" stop-color="#860102"/>
<stop offset="0.27" stop-color="#B70004"/>
<stop offset="0.45" stop-color="#DA0006"/>
<stop offset="0.59" stop-color="#EF0007"/>
<stop offset="0.69" stop-color="#F70007"/>
<stop offset="1" stop-color="#F70007"/>
</linearGradient>
<linearGradient id="paint9_linear_1_10246" x1="3.92134" y1="8.43852" x2="3.92134" y2="7.94464" gradientUnits="userSpaceOnUse">
<stop stop-color="#F7777A"/>
<stop offset="0.15" stop-color="#F66F72"/>
<stop offset="0.37" stop-color="#F45A5D"/>
<stop offset="0.65" stop-color="#F0373A"/>
<stop offset="0.97" stop-color="#EC0709"/>
<stop offset="1" stop-color="#EB0204"/>
</linearGradient>
<linearGradient id="paint10_linear_1_10246" x1="6.72953" y1="11.6101" x2="6.72953" y2="5.26715" gradientUnits="userSpaceOnUse">
<stop stop-color="#CAD9E8"/>
<stop offset="0.08" stop-color="#DAE4EF"/>
<stop offset="0.22" stop-color="#EEF3F8"/>
<stop offset="0.36" stop-color="#FBFCFD"/>
<stop offset="0.5" stop-color="white"/>
<stop offset="0.64" stop-color="#FBFCFD"/>
<stop offset="0.78" stop-color="#EEF3F8"/>
<stop offset="0.92" stop-color="#DAE4EF"/>
<stop offset="1" stop-color="#CAD9E8"/>
</linearGradient>
<linearGradient id="paint11_linear_1_10246" x1="6.7294" y1="9.56498" x2="6.7294" y2="7.316" gradientUnits="userSpaceOnUse">
<stop stop-color="#B70104"/>
<stop offset="0.29" stop-color="#DA0006"/>
<stop offset="0.53" stop-color="#EF0007"/>
<stop offset="0.69" stop-color="#F70007"/>
<stop offset="1" stop-color="#F70007"/>
</linearGradient>
<linearGradient id="paint12_linear_1_10246" x1="6.34574" y1="8.79763" x2="6.74573" y2="7.37722" gradientUnits="userSpaceOnUse">
<stop stop-color="#F7777A"/>
<stop offset="0.15" stop-color="#F66F72"/>
<stop offset="0.37" stop-color="#F45A5D"/>
<stop offset="0.65" stop-color="#F0373A"/>
<stop offset="0.97" stop-color="#EC0709"/>
<stop offset="1" stop-color="#EB0204"/>
</linearGradient>
<linearGradient id="paint13_linear_1_10246" x1="6.39862" y1="7.34059" x2="6.39862" y2="9.50794" gradientUnits="userSpaceOnUse">
<stop stop-color="#D3040A"/>
<stop offset="0.17" stop-color="#CB040A"/>
<stop offset="0.44" stop-color="#B4030A"/>
<stop offset="0.78" stop-color="#8E010B"/>
<stop offset="1" stop-color="#72000B"/>
</linearGradient>
<linearGradient id="paint14_linear_1_10246" x1="6.97046" y1="7.34055" x2="6.97046" y2="9.5079" gradientUnits="userSpaceOnUse">
<stop stop-color="#D3040A"/>
<stop offset="0.21" stop-color="#CB040A"/>
<stop offset="0.53" stop-color="#B4030A"/>
<stop offset="0.94" stop-color="#8E010B"/>
<stop offset="1" stop-color="#88010B"/>
</linearGradient>
<linearGradient id="paint15_linear_1_10246" x1="13.125" y1="11.6101" x2="13.125" y2="5.26715" gradientUnits="userSpaceOnUse">
<stop stop-color="#CAD9E8"/>
<stop offset="0.08" stop-color="#DAE4EF"/>
<stop offset="0.22" stop-color="#EEF3F8"/>
<stop offset="0.36" stop-color="#FBFCFD"/>
<stop offset="0.5" stop-color="white"/>
<stop offset="0.64" stop-color="#FBFCFD"/>
<stop offset="0.78" stop-color="#EEF3F8"/>
<stop offset="0.92" stop-color="#DAE4EF"/>
<stop offset="1" stop-color="#CAD9E8"/>
</linearGradient>
<linearGradient id="paint16_linear_1_10246" x1="13.1257" y1="9.56498" x2="13.1257" y2="7.316" gradientUnits="userSpaceOnUse">
<stop stop-color="#B70104"/>
<stop offset="0.29" stop-color="#DA0006"/>
<stop offset="0.53" stop-color="#EF0007"/>
<stop offset="0.69" stop-color="#F70007"/>
<stop offset="1" stop-color="#F70007"/>
</linearGradient>
<linearGradient id="paint17_linear_1_10246" x1="12.742" y1="8.79763" x2="13.142" y2="7.37723" gradientUnits="userSpaceOnUse">
<stop stop-color="#F7777A"/>
<stop offset="0.15" stop-color="#F66F72"/>
<stop offset="0.37" stop-color="#F45A5D"/>
<stop offset="0.65" stop-color="#F0373A"/>
<stop offset="0.97" stop-color="#EC0709"/>
<stop offset="1" stop-color="#EB0204"/>
</linearGradient>
<linearGradient id="paint18_linear_1_10246" x1="12.795" y1="7.34059" x2="12.795" y2="9.50794" gradientUnits="userSpaceOnUse">
<stop stop-color="#D3040A"/>
<stop offset="0.17" stop-color="#CB040A"/>
<stop offset="0.44" stop-color="#B4030A"/>
<stop offset="0.78" stop-color="#8E010B"/>
<stop offset="1" stop-color="#72000B"/>
</linearGradient>
<linearGradient id="paint19_linear_1_10246" x1="13.366" y1="7.34055" x2="13.366" y2="9.5079" gradientUnits="userSpaceOnUse">
<stop stop-color="#D3040A"/>
<stop offset="0.21" stop-color="#CB040A"/>
<stop offset="0.53" stop-color="#B4030A"/>
<stop offset="0.94" stop-color="#8E010B"/>
<stop offset="1" stop-color="#88010B"/>
</linearGradient>
<linearGradient id="paint20_linear_1_10246" x1="9.9299" y1="11.6101" x2="9.9299" y2="5.26715" gradientUnits="userSpaceOnUse">
<stop stop-color="#CAD9E8"/>
<stop offset="0.08" stop-color="#DAE4EF"/>
<stop offset="0.22" stop-color="#EEF3F8"/>
<stop offset="0.36" stop-color="#FBFCFD"/>
<stop offset="0.5" stop-color="white"/>
<stop offset="0.64" stop-color="#FBFCFD"/>
<stop offset="0.78" stop-color="#EEF3F8"/>
<stop offset="0.92" stop-color="#DAE4EF"/>
<stop offset="1" stop-color="#CAD9E8"/>
</linearGradient>
<linearGradient id="paint21_linear_1_10246" x1="9.92977" y1="9.56491" x2="9.92977" y2="7.31593" gradientUnits="userSpaceOnUse">
<stop stop-color="#B70104"/>
<stop offset="0.29" stop-color="#DA0006"/>
<stop offset="0.53" stop-color="#EF0007"/>
<stop offset="0.69" stop-color="#F70007"/>
<stop offset="1" stop-color="#F70007"/>
</linearGradient>
<linearGradient id="paint22_linear_1_10246" x1="9.54201" y1="8.79756" x2="9.9461" y2="7.37715" gradientUnits="userSpaceOnUse">
<stop stop-color="#F7777A"/>
<stop offset="0.15" stop-color="#F66F72"/>
<stop offset="0.37" stop-color="#F45A5D"/>
<stop offset="0.65" stop-color="#F0373A"/>
<stop offset="0.97" stop-color="#EC0709"/>
<stop offset="1" stop-color="#EB0204"/>
</linearGradient>
<linearGradient id="paint23_linear_1_10246" x1="9.59489" y1="7.34059" x2="9.59489" y2="9.50794" gradientUnits="userSpaceOnUse">
<stop stop-color="#D3040A"/>
<stop offset="0.17" stop-color="#CB040A"/>
<stop offset="0.44" stop-color="#B4030A"/>
<stop offset="0.78" stop-color="#8E010B"/>
<stop offset="1" stop-color="#72000B"/>
</linearGradient>
<linearGradient id="paint24_linear_1_10246" x1="10.1702" y1="7.34055" x2="10.1702" y2="9.5079" gradientUnits="userSpaceOnUse">
<stop stop-color="#D3040A"/>
<stop offset="0.21" stop-color="#CB040A"/>
<stop offset="0.53" stop-color="#B4030A"/>
<stop offset="0.94" stop-color="#8E010B"/>
<stop offset="1" stop-color="#88010B"/>
</linearGradient>
<linearGradient id="paint25_linear_1_10246" x1="9.92956" y1="12.0385" x2="9.92956" y2="4.83844" gradientUnits="userSpaceOnUse">
<stop stop-color="#DC9F2C"/>
<stop offset="0.4" stop-color="#BC7E28"/>
<stop offset="0.77" stop-color="#A56625"/>
<stop offset="1" stop-color="#9D5D24"/>
</linearGradient>
<linearGradient id="paint26_linear_1_10246" x1="13.125" y1="11.6101" x2="13.125" y2="5.26715" gradientUnits="userSpaceOnUse">
<stop/>
<stop offset="0.06" stop-color="#343434"/>
<stop offset="0.12" stop-color="#696969"/>
<stop offset="0.18" stop-color="#979797"/>
<stop offset="0.25" stop-color="#BCBCBC"/>
<stop offset="0.31" stop-color="#DADADA"/>
<stop offset="0.38" stop-color="#EEEEEE"/>
<stop offset="0.44" stop-color="#FBFBFB"/>
<stop offset="0.5" stop-color="white"/>
<stop offset="0.56" stop-color="#FBFBFB"/>
<stop offset="0.62" stop-color="#EEEEEE"/>
<stop offset="0.69" stop-color="#DADADA"/>
<stop offset="0.75" stop-color="#BCBCBC"/>
<stop offset="0.82" stop-color="#979797"/>
<stop offset="0.88" stop-color="#696969"/>
<stop offset="0.94" stop-color="#343434"/>
<stop offset="1"/>
</linearGradient>
<linearGradient id="paint27_linear_1_10246" x1="6.72953" y1="11.6101" x2="6.72953" y2="5.26715" gradientUnits="userSpaceOnUse">
<stop/>
<stop offset="0.06" stop-color="#343434"/>
<stop offset="0.12" stop-color="#696969"/>
<stop offset="0.18" stop-color="#979797"/>
<stop offset="0.25" stop-color="#BCBCBC"/>
<stop offset="0.31" stop-color="#DADADA"/>
<stop offset="0.38" stop-color="#EEEEEE"/>
<stop offset="0.44" stop-color="#FBFBFB"/>
<stop offset="0.5" stop-color="white"/>
<stop offset="0.56" stop-color="#FBFBFB"/>
<stop offset="0.62" stop-color="#EEEEEE"/>
<stop offset="0.69" stop-color="#DADADA"/>
<stop offset="0.75" stop-color="#BCBCBC"/>
<stop offset="0.82" stop-color="#979797"/>
<stop offset="0.88" stop-color="#696969"/>
<stop offset="0.94" stop-color="#343434"/>
<stop offset="1"/>
</linearGradient>
<linearGradient id="paint28_linear_1_10246" x1="9.9299" y1="11.6101" x2="9.9299" y2="5.26715" gradientUnits="userSpaceOnUse">
<stop/>
<stop offset="0.06" stop-color="#343434"/>
<stop offset="0.12" stop-color="#696969"/>
<stop offset="0.18" stop-color="#979797"/>
<stop offset="0.25" stop-color="#BCBCBC"/>
<stop offset="0.31" stop-color="#DADADA"/>
<stop offset="0.38" stop-color="#EEEEEE"/>
<stop offset="0.44" stop-color="#FBFBFB"/>
<stop offset="0.5" stop-color="white"/>
<stop offset="0.56" stop-color="#FBFBFB"/>
<stop offset="0.62" stop-color="#EEEEEE"/>
<stop offset="0.69" stop-color="#DADADA"/>
<stop offset="0.75" stop-color="#BCBCBC"/>
<stop offset="0.82" stop-color="#979797"/>
<stop offset="0.88" stop-color="#696969"/>
<stop offset="0.94" stop-color="#343434"/>
<stop offset="1"/>
</linearGradient>
<radialGradient id="paint29_radial_1_10246" cx="0" cy="0" r="1" gradientUnits="userSpaceOnUse" gradientTransform="translate(8.85175 14.9073) scale(13.1226 2.68737)">
<stop stop-color="#FFFF53"/>
<stop offset="0.22" stop-color="#FFFC4F"/>
<stop offset="0.44" stop-color="#FFF143"/>
<stop offset="0.66" stop-color="#FFE12E"/>
<stop offset="0.88" stop-color="#FFC912"/>
<stop offset="1" stop-color="#FFBA00"/>
</radialGradient>
<linearGradient id="paint30_linear_1_10246" x1="16.3737" y1="16.3937" x2="13.9778" y2="15.5692" gradientUnits="userSpaceOnUse">
<stop stop-color="#AC6D26"/>
<stop offset="1" stop-color="#DC9F2C"/>
</linearGradient>
<linearGradient id="paint31_linear_1_10246" x1="14.79" y1="15.0996" x2="15.3206" y2="16.92" gradientUnits="userSpaceOnUse">
<stop stop-color="#FFEAB0"/>
<stop offset="0.15" stop-color="#FFE7A8"/>
<stop offset="0.38" stop-color="#FFE091"/>
<stop offset="0.67" stop-color="#FFD46B"/>
<stop offset="1" stop-color="#FFC338"/>
</linearGradient>
<linearGradient id="paint32_linear_1_10246" x1="15.014" y1="16.757" x2="15.014" y2="15.4917" gradientUnits="userSpaceOnUse">
<stop stop-color="#915123"/>
<stop offset="0.38" stop-color="#874A1F"/>
<stop offset="1" stop-color="#6D3815"/>
</linearGradient>
<linearGradient id="paint33_linear_1_10246" x1="15.0139" y1="16.5201" x2="15.0139" y2="15.4997" gradientUnits="userSpaceOnUse">
<stop stop-color="#720101"/>
<stop offset="1" stop-color="#F70007"/>
</linearGradient>
<radialGradient id="paint34_radial_1_10246" cx="0" cy="0" r="1" gradientUnits="userSpaceOnUse" gradientTransform="translate(14.9609 10.6495) scale(1.35102 1.04029)">
<stop stop-color="#720101"/>
<stop offset="1" stop-color="#DE0006"/>
</radialGradient>
<linearGradient id="paint35_linear_1_10246" x1="15.0139" y1="14.7935" x2="15.0139" y2="15.8629" gradientUnits="userSpaceOnUse">
<stop stop-color="#F7777A"/>
<stop offset="0.18" stop-color="#F66F72"/>
<stop offset="0.47" stop-color="#F45A5D"/>
<stop offset="0.81" stop-color="#F1383A"/>
<stop offset="1" stop-color="#EF2224"/>
</linearGradient>
<linearGradient id="paint36_linear_1_10246" x1="12.5901" y1="16.3937" x2="10.1902" y2="15.5692" gradientUnits="userSpaceOnUse">
<stop stop-color="#AC6D26"/>
<stop offset="1" stop-color="#DC9F2C"/>
</linearGradient>
<linearGradient id="paint37_linear_1_10246" x1="11.0024" y1="15.0996" x2="11.5371" y2="16.92" gradientUnits="userSpaceOnUse">
<stop stop-color="#FFEAB0"/>
<stop offset="0.15" stop-color="#FFE7A8"/>
<stop offset="0.38" stop-color="#FFE091"/>
<stop offset="0.67" stop-color="#FFD46B"/>
<stop offset="1" stop-color="#FFC338"/>
</linearGradient>
<linearGradient id="paint38_linear_1_10246" x1="11.2264" y1="16.757" x2="11.2264" y2="15.4917" gradientUnits="userSpaceOnUse">
<stop stop-color="#915123"/>
<stop offset="0.38" stop-color="#874A1F"/>
<stop offset="1" stop-color="#6D3815"/>
</linearGradient>
<linearGradient id="paint39_linear_1_10246" x1="11.2266" y1="16.5201" x2="11.2266" y2="15.4997" gradientUnits="userSpaceOnUse">
<stop stop-color="#AC6D26"/>
<stop offset="1" stop-color="#DC9F2C"/>
</linearGradient>
<radialGradient id="paint40_radial_1_10246" cx="0" cy="0" r="1" gradientUnits="userSpaceOnUse" gradientTransform="translate(11.1773 10.6495) scale(1.35105 1.04029)">
<stop stop-color="#AC6D26"/>
<stop offset="1" stop-color="#DC9F2C"/>
</radialGradient>
<linearGradient id="paint41_linear_1_10246" x1="11.2263" y1="14.7935" x2="11.2263" y2="15.8629" gradientUnits="userSpaceOnUse">
<stop stop-color="#FFEAB0"/>
<stop offset="0.15" stop-color="#FFE7A8"/>
<stop offset="0.38" stop-color="#FFE091"/>
<stop offset="0.67" stop-color="#FFD46B"/>
<stop offset="1" stop-color="#FFC338"/>
</linearGradient>
<linearGradient id="paint42_linear_1_10246" x1="9.35707" y1="16.3937" x2="6.96118" y2="15.5693" gradientUnits="userSpaceOnUse">
<stop stop-color="#AC6D26"/>
<stop offset="1" stop-color="#DC9F2C"/>
</linearGradient>
<linearGradient id="paint43_linear_1_10246" x1="7.77342" y1="15.0996" x2="8.30405" y2="16.92" gradientUnits="userSpaceOnUse">
<stop stop-color="#FFEAB0"/>
<stop offset="0.15" stop-color="#FFE7A8"/>
<stop offset="0.38" stop-color="#FFE091"/>
<stop offset="0.67" stop-color="#FFD46B"/>
<stop offset="1" stop-color="#FFC338"/>
</linearGradient>
<linearGradient id="paint44_linear_1_10246" x1="7.99844" y1="16.757" x2="7.99844" y2="15.4917" gradientUnits="userSpaceOnUse">
<stop stop-color="#915123"/>
<stop offset="0.38" stop-color="#874A1F"/>
<stop offset="1" stop-color="#6D3815"/>
</linearGradient>
<linearGradient id="paint45_linear_1_10246" x1="7.99836" y1="16.5201" x2="7.99836" y2="15.4997" gradientUnits="userSpaceOnUse">
<stop stop-color="#AC6D26"/>
<stop offset="1" stop-color="#DC9F2C"/>
</linearGradient>
<radialGradient id="paint46_radial_1_10246" cx="0" cy="0" r="1" gradientUnits="userSpaceOnUse" gradientTransform="translate(7.94938 10.6495) scale(1.35102 1.04029)">
<stop stop-color="#AC6D26"/>
<stop offset="1" stop-color="#DC9F2C"/>
</radialGradient>
<linearGradient id="paint47_linear_1_10246" x1="7.99836" y1="14.7935" x2="7.99836" y2="15.8629" gradientUnits="userSpaceOnUse">
<stop stop-color="#FFEAB0"/>
<stop offset="0.15" stop-color="#FFE7A8"/>
<stop offset="0.38" stop-color="#FFE091"/>
<stop offset="0.67" stop-color="#FFD46B"/>
<stop offset="1" stop-color="#FFC338"/>
</linearGradient>
<linearGradient id="paint48_linear_1_10246" x1="6.12862" y1="16.3937" x2="3.7327" y2="15.5692" gradientUnits="userSpaceOnUse">
<stop stop-color="#AC6D26"/>
<stop offset="1" stop-color="#DC9F2C"/>
</linearGradient>
<linearGradient id="paint49_linear_1_10246" x1="4.54494" y1="15.0996" x2="5.07556" y2="16.92" gradientUnits="userSpaceOnUse">
<stop stop-color="#FFEAB0"/>
<stop offset="0.15" stop-color="#FFE7A8"/>
<stop offset="0.38" stop-color="#FFE091"/>
<stop offset="0.67" stop-color="#FFD46B"/>
<stop offset="1" stop-color="#FFC338"/>
</linearGradient>
<linearGradient id="paint50_linear_1_10246" x1="4.76588" y1="16.757" x2="4.76588" y2="15.4917" gradientUnits="userSpaceOnUse">
<stop stop-color="#915123"/>
<stop offset="0.38" stop-color="#874A1F"/>
<stop offset="1" stop-color="#6D3815"/>
</linearGradient>
<linearGradient id="paint51_linear_1_10246" x1="4.76576" y1="16.5201" x2="4.76576" y2="15.4997" gradientUnits="userSpaceOnUse">
<stop stop-color="#AC6D26"/>
<stop offset="1" stop-color="#DC9F2C"/>
</linearGradient>
<radialGradient id="paint52_radial_1_10246" cx="0" cy="0" r="1" gradientUnits="userSpaceOnUse" gradientTransform="translate(4.71678 10.6495) scale(1.35102 1.04029)">
<stop stop-color="#AC6D26"/>
<stop offset="1" stop-color="#DC9F2C"/>
</radialGradient>
<linearGradient id="paint53_linear_1_10246" x1="4.76576" y1="14.7935" x2="4.76576" y2="15.8629" gradientUnits="userSpaceOnUse">
<stop stop-color="#FFEAB0"/>
<stop offset="0.15" stop-color="#FFE7A8"/>
<stop offset="0.38" stop-color="#FFE091"/>
<stop offset="0.67" stop-color="#FFD46B"/>
<stop offset="1" stop-color="#FFC338"/>
</linearGradient>
<radialGradient id="paint54_radial_1_10246" cx="0" cy="0" r="1" gradientUnits="userSpaceOnUse" gradientTransform="translate(8.85525 18.2505) scale(13.1074 1.79251)">
<stop stop-color="#FFB400"/>
<stop offset="0.23" stop-color="#FFB000"/>
<stop offset="0.47" stop-color="#FFA400"/>
<stop offset="0.72" stop-color="#FF8F00"/>
<stop offset="0.96" stop-color="#FF7300"/>
<stop offset="1" stop-color="#FF6D00"/>
</radialGradient>
<clipPath id="clip0_1_10246">
<rect width="20" height="20" fill="white" transform="translate(0.573746 0.25885)"/>
</clipPath>
<clipPath id="clip1_1_10246">
<rect width="20" height="20" fill="white" transform="translate(0.573746 0.25885)"/>
</clipPath>
<clipPath id="clip2_1_10246">
<rect width="20" height="20" fill="white" transform="translate(0.573746 0.25885)"/>
</clipPath>
</defs>
</svg>
