<svg width="22" height="21" viewBox="0 0 22 21" fill="none" xmlns="http://www.w3.org/2000/svg">
<g clip-path="url(#clip0_1_10642)">
<g clip-path="url(#clip1_1_10642)">
<g clip-path="url(#clip2_1_10642)">
<mask id="mask0_1_10642" style="mask-type:luminance" maskUnits="userSpaceOnUse" x="1" y="0" width="20" height="21">
<path d="M20.0266 0.25885H1.71655V20.2589H20.0266V0.25885Z" fill="white"/>
</mask>
<g mask="url(#mask0_1_10642)">
<path fill-rule="evenodd" clip-rule="evenodd" d="M7.75124 18.6551C7.70906 19.4357 7.60748 19.8777 6.94751 20.0072L5.68697 20.2305C5.21827 20.322 5.14402 20.0363 5.07452 19.5931L4.16089 14.3656C4.54488 14.4105 4.93187 14.4242 5.31807 14.4066L6.8988 14.3032L7.20948 14.2824C7.45304 14.2652 7.65679 14.1541 7.70075 14.3941L7.72689 14.984L7.75124 18.6551Z" fill="#A56005"/>
<path fill-rule="evenodd" clip-rule="evenodd" d="M7.28902 18.7613C7.26051 19.5366 7.06448 19.9714 6.43242 20.0896L5.61087 20.2446C5.50572 20.2657 5.39744 20.2655 5.29237 20.2441C5.1873 20.2227 5.08757 20.1805 4.99903 20.12C4.91049 20.0595 4.83492 19.9819 4.77678 19.8918C4.71863 19.8018 4.67906 19.701 4.66041 19.5954L3.90005 15.2155L3.75629 14.3762L3.74976 14.3399C4.1006 14.4093 4.45723 14.4453 4.81486 14.4474L4.97109 14.4397L6.61063 14.3554H6.63202C6.80666 14.3453 6.89399 14.296 6.97893 14.3661C7.01237 14.3985 7.03339 14.4416 7.03834 14.4878L7.06982 15.0225L7.28902 18.7613Z" fill="#FCD001"/>
<path fill-rule="evenodd" clip-rule="evenodd" d="M7.07012 15.0241C6.81706 14.9006 6.33649 14.723 5.30703 14.8156C4.46171 14.8923 4.015 15.1423 3.89975 15.2154L3.75659 14.376C3.85067 14.4193 3.95085 14.4477 4.05361 14.4604C4.2589 14.4907 4.4674 14.4925 4.67319 14.4657L4.97021 14.4396C5.64622 14.3844 6.20877 14.3624 6.60975 14.3552C6.78796 14.3517 6.86934 14.3511 6.97983 14.3511C7.01289 14.3825 7.03391 14.4246 7.03923 14.4699L7.07012 15.0241Z" fill="#E2AB00"/>
<path fill-rule="evenodd" clip-rule="evenodd" d="M5.19843 15.0943C5.65465 15.0617 6.12631 15.013 6.45125 15.0308C6.53231 15.0352 6.60887 15.0694 6.66622 15.1269C6.72357 15.1844 6.75766 15.261 6.76193 15.342L6.91638 18.2427C6.91661 18.2584 6.91095 18.2737 6.90052 18.2855C6.89008 18.2972 6.87562 18.3046 6.85998 18.3063C6.84434 18.3079 6.82865 18.3036 6.81601 18.2943C6.80336 18.285 6.79466 18.2712 6.79163 18.2558L6.43521 16.0436C6.37581 15.6551 6.22492 15.4609 5.74257 15.3729L5.17585 15.2179C5.16045 15.2139 5.14713 15.2042 5.13856 15.1908C5.13 15.1774 5.12683 15.1613 5.12969 15.1456C5.13255 15.13 5.14123 15.116 5.15398 15.1065C5.16673 15.097 5.18261 15.0926 5.19843 15.0943Z" fill="#E2AB00"/>
<path d="M1.90877 12.8071L2.59569 12.5129L3.16482 13.8414L2.4779 14.1356C2.39998 14.169 2.312 14.1701 2.23331 14.1386C2.15462 14.1071 2.09166 14.0456 2.05828 13.9677L1.74085 13.2267C1.70747 13.1488 1.70641 13.0608 1.7379 12.9822C1.76939 12.9035 1.83086 12.8405 1.90877 12.8071Z" fill="#FCD001"/>
<path fill-rule="evenodd" clip-rule="evenodd" d="M13.3915 15.7384C9.99843 13.7103 5.16654 14.5343 5.16654 14.5343C4.44241 14.5509 3.87332 14.5046 3.48898 14.2575C3.33442 14.1589 3.2078 14.0222 3.12127 13.8606C3.10176 13.8252 3.08411 13.7887 3.0684 13.7513L2.54446 12.53C2.24745 11.8344 2.69832 11.1804 3.42542 10.4699C3.42542 10.4699 6.74192 8.24398 8.13791 3.6004C8.36186 4.33107 8.17177 9.13444 8.79134 10.5822C9.12714 11.3692 9.55059 12.1159 10.0537 12.808C10.2378 13.0617 10.435 13.3056 10.6447 13.5387C10.8413 13.7579 12.9715 15.4806 13.3915 15.7384Z" fill="#FCD001"/>
<path fill-rule="evenodd" clip-rule="evenodd" d="M8.27135 10.7008C6.46727 6.4902 7.85553 1.95651 10.7164 0.732206C13.5772 -0.492102 17.2329 1.89295 19.0364 6.10348C20.8399 10.314 20.133 14.6576 17.2751 15.8814C14.4172 17.1051 10.0766 14.9113 8.27135 10.7008Z" fill="#FFF599"/>
<path fill-rule="evenodd" clip-rule="evenodd" d="M8.44951 10.5845C6.64958 6.38404 7.95468 1.81293 10.8256 0.621296C14.1089 -0.742019 17.224 1.88778 19.0233 6.08643C20.8226 10.2851 20.1128 14.6204 17.2572 15.8441C14.4017 17.0678 10.25 14.7849 8.44951 10.5845Z" fill="#FCD001"/>
<path fill-rule="evenodd" clip-rule="evenodd" d="M17.3315 15.765C14.6648 16.9531 11.1083 14.5301 9.38865 10.3511C7.66892 6.17198 8.43166 1.88779 11.0976 0.698533C11.7321 0.415772 12.4123 0.272016 13.0996 0.378942L13.1022 0.378119L13.1049 0.378942C13.1076 0.378365 13.1105 0.378365 13.1132 0.378942C15.3088 0.730017 17.5976 2.92795 18.9045 6.10545C19.1032 6.58782 19.2738 7.0813 19.4153 7.58341C20.449 11.254 19.6827 14.7154 17.3315 15.765Z" fill="#9F5E10"/>
<path fill-rule="evenodd" clip-rule="evenodd" d="M16.3434 16.0619C13.8383 16.3685 10.8188 13.9863 9.30882 10.4559C7.5178 6.27633 8.43261 1.81691 11.2097 0.627645C11.6627 0.434173 12.1499 0.33319 12.6425 0.330627C12.1849 0.346179 11.7343 0.446906 11.3136 0.627645C8.53835 1.81572 7.74056 6.16881 9.53158 10.3484C11.0202 13.83 13.8579 16.3679 16.3434 16.0619Z" fill="#E2AB00"/>
<path fill-rule="evenodd" clip-rule="evenodd" d="M14.1099 8.59732C14.7896 10.1827 14.6208 11.7736 13.7333 12.1566C12.8457 12.5396 11.5762 11.5595 10.8964 9.974C10.2167 8.3886 10.3855 6.79775 11.273 6.41478C12.1606 6.03181 13.4311 7.01192 14.1099 8.59732Z" fill="#FCD001"/>
<path fill-rule="evenodd" clip-rule="evenodd" d="M3.02723 11.5526C3.39969 11.2318 4.09649 10.6277 4.8028 9.95407C4.80842 9.9486 4.81548 9.94486 4.82316 9.94328C4.83083 9.94171 4.8388 9.94236 4.84612 9.94518C4.85343 9.94799 4.85978 9.95284 4.86443 9.95915C4.86907 9.96547 4.8718 9.97298 4.8723 9.9808L4.9026 10.4186C4.90688 10.4795 4.89353 10.5403 4.86414 10.5938C4.83474 10.6473 4.79056 10.6913 4.73686 10.7203L3.07356 11.6203C3.06463 11.6245 3.05451 11.6253 3.04501 11.6227C3.03551 11.6201 3.02723 11.6142 3.02167 11.6061C3.0161 11.598 3.01361 11.5881 3.01463 11.5783C3.01565 11.5685 3.02011 11.5594 3.02723 11.5526Z" fill="white"/>
<path fill-rule="evenodd" clip-rule="evenodd" d="M7.17899 8.02947L7.3572 9.06012C7.36294 9.09339 7.35853 9.12762 7.34454 9.15834C7.33056 9.18907 7.30765 9.21487 7.27879 9.23239L5.53886 10.2768C5.51459 10.2913 5.48703 10.2995 5.45874 10.3006C5.43045 10.3016 5.40236 10.2954 5.37709 10.2826C5.35181 10.2699 5.33019 10.251 5.31422 10.2276C5.29826 10.2042 5.28848 10.1772 5.2858 10.149L5.2359 9.6203C5.23344 9.59519 5.23671 9.56985 5.24546 9.54619C5.2542 9.52252 5.2682 9.50115 5.28639 9.48367C5.95409 8.84152 6.57605 8.24511 6.89682 7.93918C6.91851 7.91764 6.94569 7.90247 6.9754 7.89532C7.00512 7.88817 7.03622 7.88931 7.06533 7.89863C7.09444 7.90794 7.12043 7.92507 7.14047 7.94814C7.16052 7.97121 7.17384 7.99935 7.17899 8.02947Z" fill="white"/>
<path fill-rule="evenodd" clip-rule="evenodd" d="M2.54487 12.5298L3.12109 13.8604L2.73081 14.0274C2.73081 14.0274 2.80744 13.2325 2.20093 12.686L2.54487 12.5298Z" fill="#E2AB00"/>
<path fill-rule="evenodd" clip-rule="evenodd" d="M10.1474 13.6638L3.55835 13.7416C3.85834 13.7214 8.62785 13.3756 8.74547 11.8032C9.13123 12.4808 9.60239 13.1061 10.1474 13.6638Z" fill="#E2AB00"/>
</g>
</g>
</g>
</g>
<defs>
<clipPath id="clip0_1_10642">
<rect width="21" height="20" fill="white" transform="translate(0.33374 0.25885)"/>
</clipPath>
<clipPath id="clip1_1_10642">
<rect width="21" height="20" fill="white" transform="translate(0.33374 0.25885)"/>
</clipPath>
<clipPath id="clip2_1_10642">
<rect width="21" height="20" fill="white" transform="translate(0.33374 0.25885)"/>
</clipPath>
</defs>
</svg>
