<svg width="21" height="21" viewBox="0 0 21 21" fill="none" xmlns="http://www.w3.org/2000/svg">
<g clip-path="url(#clip0_1_10463)">
<g clip-path="url(#clip1_1_10463)">
<g clip-path="url(#clip2_1_10463)">
<mask id="mask0_1_10463" style="mask-type:luminance" maskUnits="userSpaceOnUse" x="0" y="0" width="21" height="21">
<path d="M20.2338 0.259094H0.233765V20.2586H20.2338V0.259094Z" fill="white"/>
</mask>
<g mask="url(#mask0_1_10463)">
<path d="M10.2332 20.2575C9.54532 20.2578 8.85926 20.1874 8.1858 20.0475C8.18022 20.0475 8.17413 20.0474 8.16856 20.0438C8.16298 20.0403 8.14878 20.0394 8.13914 20.0373C8.12951 20.0353 8.11175 20.0318 8.09857 20.0282C8.08538 20.0247 8.08285 20.0252 8.07524 20.0231C8.06763 20.0211 8.0585 20.019 8.05039 20.0175C6.29216 19.6255 4.67307 18.7643 3.36533 17.5254L3.36076 17.5208L3.35417 17.5142L3.3491 17.5096L3.32932 17.4909L3.31918 17.4813C1.57705 15.8178 0.496138 13.5797 0.276276 11.181L0.272728 11.1404V11.1302L0.267655 11.0642C0.246356 10.7982 0.235705 10.5293 0.235705 10.2574C0.233031 8.84115 0.532672 7.44065 1.1146 6.14948L1.1217 6.13325L1.13438 6.10586C1.17799 6.01153 1.22262 5.9172 1.26877 5.8244C2.15149 4.04409 3.54244 2.5656 5.26562 1.57599C5.29555 1.55773 5.32598 1.541 5.3559 1.52528C6.84663 0.691066 8.52693 0.254444 10.2352 0.2574C10.6872 0.257212 11.1387 0.287202 11.5867 0.347167C11.6979 0.362382 11.8085 0.379287 11.9184 0.397882C12.1852 0.443526 12.4468 0.499313 12.7055 0.564228C12.7237 0.569299 12.741 0.573356 12.7562 0.57792C12.7613 0.57792 12.7663 0.57792 12.7709 0.581977C12.9589 0.631002 13.1448 0.685605 13.3288 0.745787C15.4344 1.43245 17.2534 2.79705 18.5017 4.6265C18.6481 4.84086 18.7864 5.06147 18.9166 5.28834L18.9226 5.29848L18.9399 5.32891C18.9417 5.33257 18.9438 5.33612 18.946 5.33956C19.1139 5.63724 19.2663 5.94347 19.4024 6.257C20.2943 8.30903 20.4753 10.6002 19.9167 12.7668C19.9151 12.775 19.913 12.7832 19.9106 12.7912C19.9103 12.7935 19.9103 12.7959 19.9106 12.7983L19.9025 12.8287C19.6942 13.6101 19.3914 14.3631 19.0008 15.0712C18.9896 15.092 18.9779 15.1134 18.9658 15.1342C18.0368 16.7934 16.6556 18.1544 14.9831 19.059C14.94 19.0823 14.8959 19.1057 14.8523 19.1285C13.4265 19.8728 11.8415 20.2601 10.2332 20.2575Z" fill="#F4EDE8"/>
<path d="M6.21461 4.70365C6.23388 4.69909 6.24453 4.6717 6.22221 4.66207C5.96864 4.551 5.71506 4.44906 5.45642 4.35777C5.36817 4.32684 5.24798 4.26091 5.15212 4.27054C5.04207 4.2817 4.92594 4.39327 4.83668 4.45109C4.81132 4.46732 4.83668 4.5084 4.86051 4.49166H4.86406C4.86558 4.49575 4.86837 4.49924 4.87202 4.50161C4.87568 4.50399 4.88 4.50512 4.88435 4.50485C5.32954 4.49542 5.77288 4.56497 6.19381 4.71025C6.19754 4.71131 6.2015 4.71125 6.2052 4.71007C6.2089 4.7089 6.21217 4.70667 6.21461 4.70365Z" fill="#F4EEE7"/>
<path d="M16.5133 11.5857C16.5188 11.5879 16.5248 11.5879 16.5303 11.5858C16.5358 11.5838 16.5402 11.5797 16.5429 11.5745C16.5455 11.5692 16.546 11.5632 16.5444 11.5576C16.5428 11.552 16.5391 11.5472 16.5341 11.5441C16.5032 11.5264 16.4723 11.5101 16.4408 11.4934C16.24 11.3218 16.0279 11.1639 15.8059 11.0207C15.7141 10.9634 15.5873 10.8488 15.4706 10.862C15.354 10.8752 15.2363 10.9964 15.1456 11.0557C15.1298 11.0659 15.1293 11.0953 15.1511 11.0988C15.5937 11.1722 16.0211 11.3184 16.416 11.5314C16.4373 11.5497 16.4586 11.5669 16.4794 11.5852C16.4838 11.5897 16.4899 11.5923 16.4962 11.5924C16.5026 11.5925 16.5087 11.5901 16.5133 11.5857Z" fill="#F4EEE7"/>
<path d="M12.9283 4.95011C12.7041 4.62948 12.5725 4.25328 12.5479 3.86278C12.5479 3.83286 12.4972 3.83235 12.5013 3.86278V3.86887C12.4985 3.87083 12.4963 3.87342 12.4947 3.87641C12.4931 3.8794 12.4922 3.88273 12.4922 3.88611C12.4851 4.13664 12.4556 4.39732 12.4698 4.64684C12.4739 4.71885 12.5099 4.73863 12.5682 4.77616C12.6768 4.84564 12.7863 4.91309 12.8953 4.98206C12.9151 4.99423 12.942 4.96989 12.9283 4.95011Z" fill="#F4EEE7"/>
<path d="M9.14266 6.26204C9.34886 6.22977 9.55101 6.17553 9.74566 6.10026C10.125 5.94811 10.4713 5.72497 10.84 5.54899C11.2087 5.373 11.6038 5.21883 11.9674 5.01597C12.0644 4.96311 12.1587 4.90539 12.2499 4.84303C12.2839 4.8197 12.3361 4.79232 12.3514 4.7487C12.3716 4.68937 12.3184 4.63257 12.2662 4.65742C12.2623 4.65659 12.2583 4.65659 12.2545 4.65742C11.9375 4.71422 11.6398 4.83999 11.3416 4.96171C11.0353 5.08545 10.73 5.21105 10.4257 5.33852C9.82934 5.58838 9.23631 5.84635 8.64667 6.11243C8.64308 6.11447 8.6401 6.11742 8.63802 6.12098C8.63595 6.12454 8.63486 6.12859 8.63486 6.13272C8.63486 6.13684 8.63595 6.14089 8.63802 6.14445C8.6401 6.14802 8.64308 6.15097 8.64667 6.153C8.73271 6.19931 8.82184 6.23964 8.91343 6.27371C8.98966 6.28844 9.06832 6.28444 9.14266 6.26204Z" fill="#F4EEE7"/>
<g style="mix-blend-mode:multiply" opacity="0.7">
<path d="M8.09984 19.9905C8.10502 19.991 8.11023 19.9897 8.11451 19.9867C8.11879 19.9837 8.12186 19.9793 8.12317 19.9742C8.1754 19.7854 8.20936 19.592 8.2246 19.3966C8.23525 19.284 8.28292 19.1146 8.19112 19.0228C8.13689 18.9802 8.07654 18.946 8.0121 18.9214C7.92791 18.8778 7.84457 18.8326 7.76208 18.786C7.58407 18.6846 7.41062 18.5781 7.24022 18.465C7.23796 18.4632 7.23531 18.462 7.23248 18.4614C7.22965 18.4609 7.22674 18.4611 7.22399 18.4619C7.20979 18.4508 7.19559 18.4391 7.18139 18.4285C7.15806 18.4097 7.12408 18.4426 7.14842 18.4614C7.38577 18.6475 7.63174 18.8428 7.79048 19.104C7.95986 19.3824 7.92741 19.7126 8.05521 20.0047C8.06789 20.0305 8.10085 20.0153 8.09984 19.9905Z" fill="#F4EEE7"/>
</g>
<path d="M15.7358 6.89557L15.962 6.78146L16.887 6.31488C16.8903 6.31346 16.8932 6.31114 16.8953 6.30818C16.8973 6.30523 16.8985 6.30175 16.8987 6.29815C16.9372 6.28851 16.9758 6.27888 17.0148 6.26975C17.0442 6.26265 17.0316 6.21903 17.0022 6.2241C16.6323 6.31235 16.2632 6.40279 15.895 6.49543C15.8048 6.51774 15.7145 6.5404 15.6242 6.56339C15.5664 6.57809 15.4772 6.58367 15.4264 6.61968C15.3661 6.66228 15.3965 6.7419 15.4264 6.80783C15.4219 6.80529 15.4167 6.80429 15.4115 6.805C15.4064 6.80571 15.4016 6.80808 15.3979 6.81176C15.3942 6.81544 15.3919 6.82021 15.3911 6.82536C15.3904 6.83052 15.3914 6.83576 15.394 6.84029C15.4229 6.89101 15.4665 6.98584 15.5329 6.99244C15.5994 6.99903 15.6825 6.92245 15.7358 6.89557Z" fill="#F4EEE7"/>
<path d="M12.4846 0.964431L11.5844 0.347229C11.6956 0.362443 11.8062 0.379348 11.9161 0.397944C12.1828 0.443588 12.4445 0.499374 12.7032 0.564289C12.7214 0.569361 12.7387 0.573418 12.7539 0.577982C12.759 0.577982 12.764 0.577981 12.7686 0.582038C12.9566 0.631063 13.1425 0.685667 13.3265 0.745849L12.4846 0.964431Z" fill="#473539"/>
<g style="mix-blend-mode:multiply" opacity="0.7">
<path d="M14.8521 19.1286C14.8957 19.1058 14.9398 19.083 14.9829 19.0591C15.2111 18.9364 15.4328 18.8056 15.6498 18.6636C15.5884 18.6869 15.5266 18.7092 15.4637 18.7305C14.1375 19.1763 12.7991 18.9445 11.477 18.6088C11.048 18.4996 10.6272 18.3605 10.2177 18.1924C10.8004 17.935 11.3549 17.6182 11.8726 17.2471C11.8893 17.2357 11.9022 17.2196 11.9098 17.2008C11.9173 17.182 11.919 17.1614 11.9146 17.1416C11.9654 17.0696 11.9096 16.9474 11.8102 16.9854C10.9993 17.2959 10.1712 17.5598 9.33016 17.7755C9.22163 17.8029 4.38848 16.1156 5.14718 12.5833C5.20043 12.3353 5.70758 11.9697 5.92261 11.8338H5.92565L5.93073 11.8297C5.94797 11.8165 5.9358 11.7922 5.91855 11.7876C6.75704 11.3015 7.64013 10.8968 8.55574 10.5791C8.56466 10.5766 8.57275 10.5718 8.57913 10.5651C8.5855 10.5584 8.58992 10.5501 8.5919 10.541C8.59389 10.532 8.59336 10.5226 8.59039 10.5138C8.58741 10.5051 8.58209 10.4973 8.57501 10.4913C8.74947 10.4406 8.94371 10.3671 8.99138 10.2337C9.03905 10.1003 8.98631 9.91212 8.97515 9.78178C8.96349 9.6418 8.94979 9.50132 8.93559 9.36186C8.93848 9.35462 8.93952 9.34678 8.93864 9.33903L8.9006 9.03474C8.89249 8.97084 8.79106 8.96983 8.79917 9.03474H8.79511C8.79511 8.97896 8.70636 8.95766 8.69774 9.01852C8.66529 9.24848 8.62043 9.47653 8.56335 9.70165C8.49995 9.94609 8.45532 10.2352 8.22457 10.3757C7.84268 10.6085 7.41313 10.7814 7.01146 10.9843C6.15269 11.413 5.29341 11.8422 4.43362 12.2719C4.43088 12.2735 4.42833 12.2754 4.42601 12.2775C4.04867 11.789 3.76982 11.2318 3.60493 10.6369C3.13227 8.98606 2.64642 6.99042 4.71407 4.23963C5.08835 3.74212 2.71843 4.22492 2.82493 3.61888L2.84268 3.52252C2.21246 4.21319 1.68207 4.98871 1.26697 5.82651C1.22082 5.91932 1.17619 6.01365 1.13257 6.10848L1.1199 6.13587L1.1128 6.15159C0.53093 7.44278 0.231293 8.84327 0.233904 10.2596C0.233904 10.5537 0.246582 10.8453 0.270925 11.1329V11.1425L0.274476 11.1836C0.494366 13.5822 1.57528 15.8201 3.31738 17.4834C3.32042 17.487 3.32448 17.49 3.32752 17.4936L3.35237 17.5164L3.35896 17.523L3.36353 17.5275C4.67127 18.7664 6.29036 19.6277 8.04859 20.0197C8.0567 20.0197 8.06532 20.0232 8.07344 20.0253C8.08109 20.0275 8.08888 20.0292 8.09677 20.0303C8.10995 20.0339 8.12365 20.0364 8.13734 20.0395C8.15103 20.0425 8.15661 20.044 8.16675 20.0461C8.1769 20.0481 8.17842 20.0486 8.184 20.0501C10.4465 20.5193 12.8016 20.1938 14.8521 19.1286ZM5.3262 12.1472C5.48139 12.0458 5.63708 11.9499 5.79582 11.8561C5.7282 11.9017 5.66058 11.9485 5.59296 11.9966C5.50472 12.0493 5.41597 12.0985 5.3262 12.1472Z" fill="#F4EEE7"/>
</g>
<g style="mix-blend-mode:multiply" opacity="0.7">
<path d="M8.69854 9.01651C8.66583 9.24718 8.62062 9.47591 8.56313 9.70168C8.49974 9.94612 8.45511 10.2352 8.22435 10.3756C7.84247 10.6084 7.41291 10.7813 7.01125 10.9842C6.15247 11.4129 5.29319 11.8421 4.4334 12.2719C4.43066 12.2734 4.42811 12.2753 4.42579 12.2774C4.04846 11.7889 3.7696 11.2317 3.60471 10.6368C3.46068 10.1333 3.31564 9.59822 3.2416 9.01956C3.20268 9.72164 3.28573 10.4251 3.48705 11.0988C3.66304 11.6709 3.97443 12.1638 4.21837 12.704C4.42934 13.1716 4.07383 13.9039 4.32842 14.3426C6.38492 17.8901 9.6104 18.7041 10.8453 18.3369C11.3459 18.0995 11.4215 17.5711 11.8728 17.2485C11.8896 17.2372 11.9025 17.221 11.91 17.2022C11.9175 17.1834 11.9192 17.1628 11.9149 17.143C11.9656 17.071 11.9099 16.9488 11.8105 16.9868C10.9996 17.2974 10.1715 17.5612 9.33045 17.777C9.22192 17.8044 4.38877 16.1171 5.14747 12.5848C5.20072 12.3368 5.70787 11.9711 5.9229 11.8352H5.92594L5.93101 11.8312C5.94826 11.818 5.93609 11.7936 5.91884 11.7891C6.75733 11.303 7.64042 10.8983 8.55603 10.5805C8.56495 10.5781 8.57304 10.5732 8.57942 10.5665C8.58579 10.5598 8.59021 10.5515 8.59219 10.5425C8.59418 10.5334 8.59365 10.524 8.59068 10.5153C8.5877 10.5065 8.58238 10.4987 8.5753 10.4928C8.74976 10.4421 8.944 10.3685 8.99167 10.2352C9.03934 10.1018 8.9866 9.91366 8.97544 9.78333C8.96378 9.64335 8.95009 9.50287 8.93589 9.36341C8.93877 9.35617 8.93981 9.34833 8.93893 9.34058L8.90089 9.03629C8.89278 8.97239 8.79135 8.97138 8.79946 9.03629H8.7954C8.79338 8.97696 8.70716 8.95566 8.69854 9.01651ZM5.59173 11.9965C5.5045 12.0472 5.41575 12.0979 5.32598 12.1486C5.48117 12.0472 5.63687 11.9513 5.79561 11.8575C5.72663 11.9038 5.65867 11.9502 5.59173 11.9965Z" fill="#F4EEE7"/>
</g>
<g style="mix-blend-mode:multiply" opacity="0.7">
<path d="M12.1224 14.4253V14.406C12.13 14.3973 12.1341 14.3861 12.1341 14.3746C12.1341 13.8776 12.1327 13.3802 12.13 12.8826C12.13 12.7436 12.167 12.5478 12.0981 12.4165C12.0291 12.2851 11.8704 12.1954 11.7431 12.1122L11.7182 12.0427C11.6974 11.9874 11.6168 12.0052 11.6168 12.0549C11.6099 12.0603 11.6044 12.0671 11.6006 12.0749C11.5968 12.0827 11.5948 12.0913 11.5948 12.1C11.5948 12.1087 11.5968 12.1173 11.6006 12.1251C11.6044 12.133 11.6099 12.1398 11.6168 12.1452L11.6609 12.1797C11.9178 12.9007 12.0403 13.6627 12.0225 14.4279C12.0248 14.4396 12.0312 14.4501 12.0406 14.4575C12.0499 14.465 12.0616 14.4689 12.0735 14.4686C12.0855 14.4683 12.0969 14.4638 12.1059 14.4559C12.1148 14.448 12.1207 14.4371 12.1224 14.4253Z" fill="#F4EEE7"/>
</g>
<path d="M8.56657 10.4887C8.63453 9.08646 8.84245 7.70193 8.82774 6.28952C8.74964 7.68063 8.61373 9.06769 8.5194 10.4577C7.28144 11.0506 6.05313 11.6348 4.89632 12.3778C3.75726 11.714 2.60552 11.0724 1.47762 10.3898C1.56079 9.05146 1.65258 7.7136 1.68606 6.37269C2.89916 5.71948 4.1011 5.04801 5.28276 4.33902C6.58817 4.7985 7.73027 5.44968 8.82774 6.28952V6.25047C7.98385 5.42787 6.53897 4.73459 5.5338 4.38111C4.52863 4.02763 5.79346 4.4729 5.24523 4.27968C4.1295 5.02215 2.91488 5.64493 1.7317 6.29408C1.70938 6.3306 1.68098 6.33415 1.64041 6.35697C1.62571 7.7136 1.46139 9.07225 1.46849 10.4405C2.42954 11.0334 3.80441 11.8002 4.67671 12.3088C4.92573 12.4539 4.38562 12.2044 4.86437 12.4833C6.02777 11.7074 7.32456 11.1003 8.56657 10.4887Z" fill="#473539"/>
<path d="M4.70881 16.8006C4.69917 15.3126 4.83306 13.8591 4.86805 12.3823C6.02537 11.6185 7.40381 11.0536 8.6088 10.3978C9.10226 10.729 8.97243 10.4937 8.93845 10.55C9.83661 11.153 11.0613 12.0998 12.0919 12.7277C12.1989 14.1984 12.105 15.5844 11.9605 17.0319C10.6886 17.6851 9.38778 18.32 8.15997 19.0316C7.64572 18.743 8.83397 19.4013 7.89067 18.884C6.94737 18.3667 5.68406 17.4923 4.70881 16.8006ZM4.91167 12.4092C4.85284 13.8556 4.78691 15.3016 4.71388 16.7473C5.86866 17.5552 6.87891 18.2835 8.12751 18.9595C9.38981 18.3063 10.6424 17.6369 11.9144 16.9984C12.0812 15.588 12.1061 14.1989 12.0848 12.7804C10.8869 12.039 9.70357 11.2747 8.53475 10.4876C7.29528 11.082 6.06848 11.6662 4.91167 12.4092Z" fill="#473539"/>
<path d="M8.52762 10.4755C8.62246 9.07573 8.75838 7.67955 8.83699 6.27931C10.0425 5.68847 11.2682 5.14075 12.4752 4.55499C13.5965 5.30659 14.7138 6.06478 15.8392 6.8108C15.755 8.16641 15.6941 9.52355 15.614 10.8792C14.4212 11.4761 13.2552 12.1162 12.1005 12.7836C10.8944 12.0367 9.70354 11.2674 8.52762 10.4755Z" fill="#473539"/>
<path d="M15.5153 7.37421C15.5208 7.2481 15.4951 7.12259 15.4403 7.00887C15.3855 6.89515 15.3034 6.79677 15.2014 6.72252C14.4665 6.19001 12.8806 5.22186 12.8243 5.20106C12.2381 4.984 11.1675 5.74879 11.1802 6.37106C11.1928 6.57085 11.2746 6.76002 11.4114 6.90611C11.7198 7.26111 12.1721 7.45434 12.5013 7.78246C13.0947 8.37126 13.4872 9.07925 14.0085 9.71978C14.1277 9.86584 15.3043 11.0171 15.3535 10.4643C15.4047 9.89221 15.4823 8.15319 15.5153 7.37421Z" fill="#635458"/>
<path d="M15.6121 10.8788L15.6147 10.828C15.0015 11.0263 14.4482 10.9802 13.8168 10.9351C12.8532 10.8641 10.8206 9.85883 10.4929 9.21677C10.1217 8.48851 10.0025 6.01615 10.1562 5.64948C9.71444 5.8564 9.27321 6.06535 8.83504 6.28038C8.75643 7.68061 8.62051 9.0768 8.52567 10.4766C9.70328 11.2674 10.8943 12.0366 12.0986 12.7841C13.2549 12.1157 14.4208 11.4757 15.6121 10.8788Z" fill="#332226"/>
<path d="M1.67129 6.37559C1.50223 6.27754 1.33504 6.17983 1.16971 6.08246C1.20048 5.99692 1.23277 5.91155 1.26658 5.82634C2.14958 4.04623 3.54046 2.56782 5.26344 1.57794C5.25735 2.49538 5.25735 3.4118 5.29234 4.32873C4.10003 5.04178 2.8925 5.71832 1.67129 6.37559Z" fill="#473539"/>
<path d="M3.34906 17.5097L3.32928 17.491L3.31914 17.4813C1.57701 15.8178 0.496091 13.5797 0.276229 11.181L0.272682 11.1404V11.1303L0.267609 11.0643C0.6642 10.8473 1.06029 10.6302 1.45333 10.405C2.58935 11.0927 3.74869 11.7399 4.89587 12.4088C4.83738 13.8626 4.77128 15.3173 4.69757 16.7728C4.2457 17.0178 3.80144 17.2698 3.34906 17.5097Z" fill="#332226"/>
<path d="M10.2333 20.2574C9.54546 20.2579 8.8594 20.1877 8.18592 20.048C8.18034 20.048 8.17426 20.048 8.16868 20.0439C8.1631 20.0398 8.1489 20.0398 8.13927 20.0373C8.11746 20.0327 8.09616 20.0282 8.07536 20.0231C8.05102 19.7528 8.08246 19.3998 8.10376 18.9946C9.16067 18.4438 10.738 17.6359 11.6919 17.1592C12.0804 16.9376 11.8222 17.0578 11.772 17.0816L11.9465 16.9944C12.1636 17.1719 12.3862 17.3465 12.6144 17.5183C13.0399 17.8413 13.4796 18.1558 13.9188 18.4672L13.933 18.4768C14.2266 18.6847 14.5203 18.8911 14.8083 19.097L14.852 19.1285C14.8438 19.1325 14.8357 19.1371 14.8276 19.1407C13.4084 19.8772 11.8323 20.2602 10.2333 20.2574Z" fill="#332226"/>
<path d="M18.9601 15.1276C18.9875 14.5043 19.0108 13.8815 19.0367 13.2587C19.3278 13.1062 19.6184 12.9527 19.9085 12.7982L19.9004 12.8291C19.693 13.6103 19.391 14.3633 19.0012 15.0713L18.9601 15.1276Z" fill="#473539"/>
<path d="M14.8519 19.1285L14.8077 19.0975C14.5143 18.8947 14.2225 18.6879 13.9324 18.4773L13.9182 18.4677C13.482 18.1532 13.0484 17.8352 12.6138 17.5188C12.3907 17.3565 12.167 17.1942 11.9423 17.0339C11.9337 17.038 11.9251 17.0421 11.916 17.0471C12.8887 17.7429 13.8431 18.4611 14.8275 19.1407C14.8361 19.1366 14.8443 19.132 14.8519 19.1285Z" fill="#473539"/>
<path d="M8.10321 18.9407C7.0529 18.3677 5.77793 17.4913 4.9112 16.8782C4.83158 16.8214 4.7687 16.7767 4.719 16.7427C4.71545 16.7427 4.71088 16.7372 4.70581 16.7336C4.70074 16.7301 4.69617 16.727 4.6911 16.723C4.68603 16.7189 4.6911 16.723 4.68806 16.723L4.65864 16.7012C4.60793 16.6687 4.58409 16.6504 4.57243 16.6428L4.65611 16.7032C4.25343 17.0151 3.76555 17.2266 3.31926 17.4832C3.31672 17.4832 3.31469 17.4857 3.31216 17.4867C3.31824 17.4938 3.33346 17.508 3.33904 17.5136L3.34563 17.5207C3.34864 17.5195 3.35153 17.5179 3.35425 17.5161C3.80359 17.2773 4.24582 17.0273 4.69313 16.7843C5.84436 17.6029 6.85309 18.3215 8.10372 18.9965C8.08496 19.3378 8.06822 19.6781 8.05047 20.0194C8.05858 20.0194 8.06721 20.023 8.07532 20.025C8.08297 20.0272 8.09076 20.0289 8.09865 20.0301C8.09966 19.6619 8.17269 19.3252 8.10321 18.9407Z" fill="#473539"/>
<path d="M1.48716 10.4297C1.57135 9.07769 1.66365 7.71548 1.69763 6.36139C1.68241 6.36646 1.66669 6.38167 1.65046 6.38421C1.61699 7.72512 1.52469 9.06298 1.44101 10.4013C1.04746 10.626 0.649853 10.844 0.25174 11.0606V11.0733L0.25529 11.1123C0.668618 10.8877 1.07992 10.6625 1.48716 10.4297Z" fill="#473539"/>
<path d="M12.4934 4.56314C12.6253 3.27203 12.6211 1.97061 12.4807 0.680391L12.4087 0.649963L12.3919 0.694085L12.4351 0.712342C12.5811 2.01116 12.572 3.23237 12.4503 4.53474C11.2509 5.11745 10.0337 5.65909 8.83628 6.24688C7.7689 5.40654 6.56917 4.74961 5.28622 4.30297L5.28165 4.20915C5.27202 4.21625 5.25833 4.2274 5.25021 4.23298C5.24501 4.23764 5.23874 4.24095 5.23195 4.24262C5.2568 4.29841 5.12697 4.26899 5.19443 4.33999C6.33805 4.60625 7.78647 5.45927 8.61769 6.1419C9.46514 6.78294 8.39911 5.97707 8.86163 6.32701C10.0311 5.67076 11.2955 5.17121 12.4934 4.56314Z" fill="#473539"/>
<path d="M19.9016 12.8324C19.9065 12.8209 19.9102 12.809 19.9128 12.7969L19.9193 12.7715C19.6262 12.9272 19.3336 13.0829 19.0389 13.2355C17.8304 12.5499 16.7603 11.6634 15.6278 10.8631C15.7075 9.51605 15.7678 8.16804 15.8515 6.82156C16.8698 6.30984 17.9039 5.8316 18.939 5.35539L18.9177 5.31329C17.873 5.79204 16.8349 6.28432 15.8033 6.79012C15.7475 8.16855 15.461 9.4486 15.4681 10.8398C16.4367 11.5254 17.8857 12.629 18.8072 13.16C19.7287 13.691 18.5587 13.0114 19.077 13.3147C19.3082 13.1057 19.6298 12.9967 19.9016 12.8324Z" fill="#473539"/>
<path d="M1.8332 5.03427C1.84842 4.94704 1.86262 4.85626 1.87732 4.76447C1.65304 5.10574 1.4498 5.46039 1.26874 5.82644C1.23493 5.91164 1.20264 5.99701 1.17188 6.08255C1.33924 6.17992 1.50643 6.27764 1.67345 6.37568L1.68816 6.36757C1.75358 5.92635 1.75662 5.47498 1.8332 5.03427Z" fill="#332226"/>
<path d="M18.9382 5.35315L18.9235 5.32374C17.8884 5.79945 16.8548 6.27921 15.8364 6.79042C14.7207 6.04947 13.6095 5.29635 12.4958 4.54932C12.614 3.24442 12.6292 2.01965 12.4816 0.718302L12.5673 0.656937C12.5628 0.649837 12.5577 0.643751 12.5536 0.636651L12.541 0.620422C12.5045 0.646287 12.4679 0.671138 12.4294 0.695481C12.6105 2.07645 12.5161 3.20892 12.4852 4.60054C13.4391 5.23955 14.7623 6.13467 15.6194 6.70319L15.8659 6.867C16.8441 6.29848 17.9173 5.86183 18.9422 5.36583C18.9438 5.36025 18.9412 5.35975 18.9382 5.35315Z" fill="#473539"/>
<g style="mix-blend-mode:overlay" opacity="0.3">
<path d="M18.6685 12.1515C19.6702 11.4877 19.5789 10.1153 19.3354 9.08678C19.0912 8.05289 18.6801 7.06572 18.1183 6.16407C18.0918 6.12127 18.0517 6.08861 18.0044 6.07132C17.9572 6.05404 17.9055 6.05312 17.8576 6.06872C17.2668 6.26093 16.6764 6.45568 16.1252 6.74678C16.0932 6.76402 17.1349 6.05199 17.5873 5.71067C17.676 5.64424 17.9778 5.47383 17.9986 5.3506C18.028 5.17614 17.5087 4.64667 17.387 4.4996C16.4092 3.31438 15.0399 2.27118 13.5534 1.83198C12.0786 1.39634 10.2995 1.20464 8.84143 1.80561C8.45295 1.96587 8.51989 2.43752 8.58075 2.791C8.60043 2.92881 8.64475 3.06195 8.7116 3.18405C8.96264 3.60955 9.53267 3.94021 9.8821 4.29167C10.2716 4.68319 10.6297 5.11122 10.8965 5.59808C11.1429 6.05046 11.2195 6.62456 11.6065 6.98819C12.0041 7.36145 12.6208 7.48114 13.1071 7.69465C14.0915 8.12623 14.9836 8.72467 15.6266 9.59697C15.9122 9.9824 16.147 10.3542 16.3093 10.8081C16.4716 11.262 16.5999 11.7438 16.9645 12.0729C17.4286 12.4923 18.1563 12.4913 18.6685 12.1515Z" fill="white"/>
</g>
<g style="mix-blend-mode:multiply" opacity="0.7">
<path d="M10.3191 11.6104L10.1614 11.5211C10.1612 11.5172 10.1602 11.5134 10.1583 11.51C10.1565 11.5066 10.1539 11.5036 10.1507 11.5013C9.7668 11.2118 9.37933 10.9257 8.9797 10.6574C8.84581 10.5677 8.70787 10.4434 8.53696 10.4946C8.39122 10.544 8.25004 10.606 8.11501 10.6798C8.06429 10.7 8.41017 10.6143 8.57144 10.6965C8.75858 10.7908 8.94014 10.8994 9.12373 11.0033L10.2902 11.6525C10.3222 11.6697 10.3475 11.6261 10.3191 11.6104Z" fill="#F4EEE7"/>
</g>
<path opacity="0.5" d="M16.7456 5.84972C16.8206 5.78632 16.8703 5.70873 16.8419 5.60223C16.8173 5.52896 16.7778 5.46161 16.7258 5.40444C16.4651 5.0758 16.2369 4.76543 15.8702 4.54837C15.7221 4.45809 15.4853 4.29885 15.3022 4.37289C15.1191 4.44694 15.0593 4.7066 14.9979 4.86483C14.9092 5.09964 14.9822 5.14275 15.1592 5.30098C15.3985 5.52003 15.6096 5.76808 15.7875 6.03939C15.8301 6.10776 15.8948 6.15943 15.9709 6.18575C16.047 6.21207 16.1298 6.21142 16.2054 6.18393C16.2924 6.14788 16.3734 6.09898 16.4458 6.03888C16.5255 5.98056 16.6548 5.92528 16.7456 5.84972Z" fill="white"/>
<path opacity="0.5" d="M17.7777 7.58663V7.5425C17.7747 7.18243 17.5556 6.55863 17.1489 6.59616C16.9379 6.61543 16.4936 6.81069 16.5205 7.07643C16.5362 7.22858 16.8177 7.4497 16.912 7.57648C17.0424 7.75145 17.1874 8.1805 17.3999 8.25556C17.7123 8.3651 17.7727 7.82245 17.7777 7.58663Z" fill="white"/>
<path d="M19.4008 6.25702C19.2684 6.1708 18.351 5.62409 18.351 5.62409C18.351 5.62409 18.4316 4.873 18.4986 4.62653C18.645 4.84088 18.7833 5.06149 18.9134 5.28836L18.9195 5.2985L18.9367 5.32893C18.9386 5.33259 18.9406 5.33614 18.9428 5.33958C19.1113 5.63723 19.2642 5.94346 19.4008 6.25702Z" fill="#473539"/>
</g>
</g>
</g>
</g>
<defs>
<clipPath id="clip0_1_10463">
<rect width="20" height="20" fill="white" transform="translate(0.233765 0.25885)"/>
</clipPath>
<clipPath id="clip1_1_10463">
<rect width="20" height="20" fill="white" transform="translate(0.233765 0.25885)"/>
</clipPath>
<clipPath id="clip2_1_10463">
<rect width="20" height="20" fill="white" transform="translate(0.233765 0.25885)"/>
</clipPath>
</defs>
</svg>
