<svg width="22" height="21" viewBox="0 0 22 21" fill="none" xmlns="http://www.w3.org/2000/svg">
<g clip-path="url(#clip0_1_10674)">
<g clip-path="url(#clip1_1_10674)">
<g clip-path="url(#clip2_1_10674)">
<mask id="mask0_1_10674" style="mask-type:luminance" maskUnits="userSpaceOnUse" x="0" y="0" width="21" height="21">
<path d="M20.0638 0.25885H0.916565V20.2589H20.0638V0.25885Z" fill="white"/>
</mask>
<g mask="url(#mask0_1_10674)">
<path d="M14.6692 19.7259C14.6692 20.0204 12.7981 20.2588 10.4897 20.2588C8.18126 20.2588 6.31012 20.0204 6.31012 19.7259C6.56644 19.4918 8.18126 19.1929 10.4897 19.1929C12.7981 19.1929 14.4426 19.4775 14.6692 19.7259Z" fill="#9F5E10"/>
<path d="M14.6692 19.726C14.5507 19.7022 14.4317 19.6794 14.3132 19.6581C12.3887 19.3047 10.4246 19.2197 8.47676 19.4057C8.12937 19.4388 7.78231 19.4806 7.43558 19.5312C7.0591 19.5864 6.68395 19.6513 6.31012 19.726C6.36515 19.5877 6.42068 19.4489 6.4772 19.3105C8.31165 18.0581 9.79012 15.6848 9.77674 12.8825C10.0702 12.8742 10.3639 12.8709 10.6577 12.8726L10.8823 12.8756L11.2021 12.8825C11.1887 15.6833 12.6667 18.0572 14.4992 19.31C14.557 19.4485 14.6137 19.5872 14.6692 19.726Z" fill="#FFCA10"/>
<path d="M10.505 12.989C10.4991 13.0266 10.4941 13.0653 10.4882 13.103C10.0891 15.8061 9.49957 18.1239 8.57144 19.0481C8.5402 19.1671 8.50946 19.2856 8.48021 19.4051C8.13282 19.4381 7.78576 19.48 7.43903 19.5305C7.47324 19.4066 7.50944 19.2826 7.54712 19.1582C8.88577 17.9936 9.8858 15.702 10.274 12.9443C10.3399 12.9562 10.4059 12.9686 10.4723 12.982L10.505 12.989Z" fill="#FEE79B"/>
<path d="M14.3139 19.658C13.6141 19.5292 12.9082 19.436 12.1989 19.3789C12.1711 19.2852 12.1428 19.1925 12.1136 19.0993C11.1547 18.2495 10.8567 15.7839 10.4853 13.1036C10.4799 13.0634 10.4739 13.0228 10.469 12.9826C10.465 12.9588 10.462 12.933 10.4586 12.9112C10.525 12.8978 10.592 12.8849 10.6569 12.8725C10.7219 12.8601 10.8032 12.8462 10.8761 12.8339C10.8761 12.8477 10.8795 12.8616 10.8815 12.8755C11.2544 15.6227 12.3258 18.009 14.1444 19.2529C14.2039 19.3878 14.2594 19.5222 14.3139 19.658Z" fill="#FFA200"/>
<path fill-rule="evenodd" clip-rule="evenodd" d="M4.31774 8.87147C2.59533 7.32111 1.25966 5.12026 0.916565 2.43105C7.23537 1.15685 13.745 1.15685 20.0638 2.43105C19.7212 5.12026 18.3851 7.32111 16.6632 8.87147C14.9244 10.4184 12.7994 11.3148 10.4904 11.3198C8.18149 11.3148 6.0565 10.4184 4.31774 8.87147ZM2.15582 3.53745C3.29616 7.63225 6.76922 10.2575 10.4907 10.2804C14.2122 10.2575 17.6853 7.63225 18.8251 3.53745C13.324 2.42835 7.65688 2.42835 2.15582 3.53745Z" fill="#FFCA10"/>
<path d="M17.4523 0.954075C12.8574 0.027434 8.12378 0.027434 3.52887 0.954075C3.97509 4.46581 5.10699 7.48473 6.35492 9.65335C7.62466 11.8175 9.0119 13.1304 10.4914 13.1319C11.9708 13.1334 13.3575 11.8175 14.6273 9.65335C15.8742 7.48473 17.0046 4.46581 17.4523 0.954075Z" fill="#FFCA10"/>
<path d="M12.4532 1.16803C12.6173 3.39912 12.6446 6.24748 12.2836 8.54154C11.9827 10.4543 11.2142 12.7062 10.4908 13.1316C11.9475 12.8534 13.3367 11.1707 14.479 8.94462C15.6035 6.75419 16.2441 4.36047 16.7195 1.85917C15.4091 1.39709 13.7492 1.19331 12.4532 1.16803Z" fill="#FFA200"/>
<path d="M6.32056 1.19342C5.85352 1.24796 5.3878 1.32001 4.9234 1.40959C5.38052 4.7716 6.44699 7.20348 7.44304 9.36368C8.48422 11.5174 9.40293 12.9265 10.4907 13.1318C9.61266 12.9657 8.91061 11.5393 8.12526 9.32748C7.38157 7.11226 6.60415 4.58468 6.32056 1.19342Z" fill="#FEE79B"/>
</g>
</g>
</g>
</g>
<defs>
<clipPath id="clip0_1_10674">
<rect width="21" height="20" fill="white" transform="translate(0.533752 0.25885)"/>
</clipPath>
<clipPath id="clip1_1_10674">
<rect width="21" height="20" fill="white" transform="translate(0.533752 0.25885)"/>
</clipPath>
<clipPath id="clip2_1_10674">
<rect width="21" height="20" fill="white" transform="translate(0.533752 0.25885)"/>
</clipPath>
</defs>
</svg>
